<?xml version="1.0" encoding="UTF-8" standalone="no"?>
<!-- Created with Inkscape (http://www.inkscape.org/) -->

<svg
   width="108.52113mm"
   height="47.688892mm"
   viewBox="0 0 108.52113 47.688892"
   version="1.1"
   id="svg637"
   inkscape:version="1.1 (c4e8f9e, 2021-05-24)"
   sodipodi:docname="Photos.svg"
   xmlns:inkscape="http://www.inkscape.org/namespaces/inkscape"
   xmlns:sodipodi="http://sodipodi.sourceforge.net/DTD/sodipodi-0.dtd"
   xmlns="http://www.w3.org/2000/svg"
   xmlns:svg="http://www.w3.org/2000/svg">
  <sodipodi:namedview
     id="namedview639"
     pagecolor="#ffffff"
     bordercolor="#666666"
     borderopacity="1.0"
     inkscape:pageshadow="2"
     inkscape:pageopacity="0.0"
     inkscape:pagecheckerboard="0"
     inkscape:document-units="mm"
     showgrid="false"
     inkscape:zoom="0.48729658"
     inkscape:cx="355.01993"
     inkscape:cy="-194.95314"
     inkscape:window-width="1371"
     inkscape:window-height="768"
     inkscape:window-x="0"
     inkscape:window-y="25"
     inkscape:window-maximized="0"
     inkscape:current-layer="layer1"
     fit-margin-top="5"
     fit-margin-right="5"
     fit-margin-bottom="5"
     fit-margin-left="5" />
  <defs
     id="defs634" />
  <g
     inkscape:label="Layer 1"
     inkscape:groupmode="layer"
     id="layer1"
     transform="translate(-52.762619,-202.12836)">
    <path
       style="fill:#881b16;stroke-width:0.192424"
       d="m 100.03936,244.48043 c -0.295718,-0.1824 -0.764788,-0.795 -1.042368,-1.36136 -0.72363,-1.47643 -0.80814,-4.57548 -0.26712,-9.79395 0.55865,-5.38853 0.53215,-7.93767 -0.0825,-7.93767 -0.13705,0 -0.77376,0.57251 -1.414954,1.27227 -2.219998,2.42273 -3.946005,6.8285 -4.194213,10.70613 -0.116398,1.8183 -0.23039,2.07963 -0.754111,1.72888 -0.359198,-0.24057 -1.79247,-6.3481 -2.151611,-9.16863 l -0.340918,-2.67728 -1.329324,1.61894 c -1.811982,2.20673 -4.711296,5.04417 -6.636366,6.49476 -1.644592,1.23924 -3.429125,2.25654 -3.621289,2.06437 -0.06003,-0.06 -0.07307,-0.13393 -0.02897,-0.16423 0.0441,-0.0303 0.599722,-0.39049 1.234722,-0.80039 2.595053,-1.67515 6.171738,-4.96772 8.486718,-7.81256 1.909233,-2.34621 1.763702,-1.76193 1.866823,-7.4956 0.07689,-4.27626 0.156517,-5.37408 0.493298,-6.80218 0.96749,-4.10238 2.810279,-6.27934 5.316797,-6.28088 0.705562,0 1.719998,0.5914 2.040748,1.19057 0.91104,1.70184 -0.823568,6.89433 -4.165669,12.46976 l -1.09576,1.82803 0.135852,3.46364 c 0.07474,1.905 0.195175,4.06977 0.267662,4.81061 l 0.131791,1.34697 0.454718,-1.34697 c 1.024101,-3.03367 2.278149,-5.24291 3.741958,-6.59221 0.801118,-0.73844 0.979228,-0.81613 1.871068,-0.81613 0.85652,0 1.068018,0.0824 1.614348,0.62869 1.16796,1.16796 1.36556,4.12789 0.66663,9.98607 -0.64818,5.43306 -0.51235,9.20209 0.32012,8.88265 0.49236,-0.18894 2.01472,-2.50941 2.67783,-4.08167 0.68399,-1.62181 1.5729,-4.57073 2.11617,-7.0204 0.25423,-1.14629 0.29849,-1.82465 0.18207,-2.79015 -0.0846,-0.7016 -0.16056,-1.96837 -0.16879,-2.81503 -0.0131,-1.34696 0.051,-1.65156 0.51248,-2.43667 1.50968,-2.56814 4.47204,-2.40507 6.43376,0.35415 0.71505,1.00575 1.59408,3.53207 1.61517,4.64207 0.008,0.39141 0.079,0.87884 0.15902,1.08315 0.13276,0.33896 0.22079,0.30209 1.00532,-0.42106 1.0177,-0.93807 2.74465,-3.29788 3.69543,-5.04967 0.61584,-1.13463 0.70861,-1.51562 0.99919,-4.10349 0.17616,-1.56899 0.28457,-2.88846 0.24087,-2.93214 -0.0437,-0.0437 -0.92179,0.26462 -1.95131,0.68513 -3.57555,1.46042 -6.10551,1.78256 -7.86989,1.0021 -0.97318,-0.43049 -1.29518,-0.87104 -1.29518,-1.77203 0,-0.51558 0.0629,-0.59436 0.43295,-0.54183 0.35142,0.0499 0.43295,0.18392 0.43295,0.71164 0,1.69428 2.36979,1.94887 5.96516,0.64087 1.87821,-0.6833 4.3123,-1.6973 4.49052,-1.87067 0.0356,-0.0347 0.27475,-1.03384 0.53136,-2.22042 0.61449,-2.84113 1.05341,-3.83856 1.68918,-3.83856 0.64097,0 0.73533,0.39239 0.51068,2.1236 -0.10251,0.78994 -0.18904,1.79268 -0.19231,2.22833 l -0.006,0.79207 1.77993,-0.46967 c 2.38103,-0.62826 4.49901,-0.5506 6.25378,0.22931 0.66146,0.29401 1.20265,0.60982 1.20265,0.70181 0,0.26443 -0.33872,0.20217 -1.80474,-0.33177 -1.69314,-0.61663 -3.21499,-0.56356 -5.79188,0.202 -0.95023,0.28231 -1.74405,0.52965 -1.76406,0.54966 -0.02,0.02 -0.14831,1.11868 -0.28508,2.4415 -0.37244,3.60189 -0.32491,10.99222 0.0858,13.34632 0.35306,2.02341 0.9088,3.55267 1.47842,4.06817 0.31767,0.28748 0.40183,0.28931 0.9224,0.0201 1.88941,-0.97707 5.42731,-6.82084 5.42731,-8.96468 0,-0.19092 0.12205,-0.39395 0.27124,-0.4512 0.21099,-0.081 0.23339,-0.26718 0.10079,-0.83839 -0.88842,-3.82766 1.3207,-9.33096 4.0395,-10.06306 1.79727,-0.48394 2.98283,0.29112 3.58489,2.34365 0.59736,2.03653 0.37455,8.27357 -0.40677,11.38657 -0.12007,0.47845 -0.11251,0.48189 0.61826,0.28037 1.90373,-0.52503 4.57042,-2.19726 6.46696,-4.05529 1.12579,-1.10295 2.85717,-3.55667 3.15762,-4.47503 0.24955,-0.76281 1.15306,-0.93863 1.29836,-0.25268 0.0519,0.24481 0.31868,1.65737 0.59294,3.13904 0.27426,1.48167 0.53956,2.83225 0.58957,3.00132 0.05,0.16906 0.45727,0.417 0.90506,0.551 1.58989,0.47579 3.79673,1.7278 3.79673,2.15402 0,0.28525 -0.38743,0.17522 -0.82585,-0.23455 -0.47482,-0.44378 -2.44448,-1.42603 -3.27267,-1.63202 -0.51083,-0.12706 -0.53183,-0.10672 -0.40619,0.39381 0.24007,0.95654 0.18159,3.82611 -0.0976,4.78802 -0.5562,1.91643 -2.26887,2.99714 -4.31881,2.72521 -1.90415,-0.2526 -3.83701,-1.70712 -4.35525,-3.27743 -0.52143,-1.57994 0.17083,-3.58996 1.50859,-4.38019 0.82507,-0.48739 2.65462,-0.91419 3.91881,-0.91419 0.76379,0 1.11366,-0.0756 1.11266,-0.24053 -0.002,-0.22799 -0.25883,-2.00339 -0.4889,-3.37133 l -0.10583,-0.62931 -1.11856,1.50863 c -2.04201,2.75405 -5.20308,5.04559 -7.92871,5.74773 -1.24086,0.31966 -1.33573,0.38287 -1.53062,1.01998 -1.11327,3.63953 -2.56857,5.5835 -4.18132,5.58533 -1.86057,0.002 -3.07024,-1.70723 -3.42457,-4.83914 l -0.13293,-1.17491 -1.03793,2.02634 c -1.73219,3.38173 -3.08343,4.44291 -5.03236,3.95217 -2.33622,-0.58826 -3.78208,-4.05596 -4.02305,-9.64879 l -0.10639,-2.46913 -0.38345,0.6411 c -1.75981,2.9423 -3.26363,4.80431 -4.49441,5.56499 -0.51764,0.31992 -0.64587,0.52283 -0.64587,1.02204 0,1.54076 -1.1259,4.13826 -2.20405,5.08491 -0.81476,0.71537 -1.38611,0.88857 -2.4572,0.74491 -1.41372,-0.18962 -2.65295,-1.53986 -3.08117,-3.35719 -0.13093,-0.55562 -0.28747,-1.01023 -0.34785,-1.01023 -0.0604,0 -0.26841,0.62779 -0.4623,1.39508 -1.02244,4.04645 -2.34336,7.1774 -3.52846,8.36351 -0.51739,0.51781 -0.77874,0.6314 -1.44318,0.6272 -0.44627,-0.003 -1.05335,-0.15434 -1.34905,-0.33674 z m 11.20013,-6.76869 c 0.5466,-0.29255 1.70657,-2.12181 2.12971,-3.3586 0.21388,-0.62511 0.38887,-1.15962 0.38887,-1.18779 0,-0.0282 -0.63896,-0.003 -1.41992,0.0561 -1.02535,0.0776 -1.66701,0.0232 -2.30909,-0.19558 l -0.88917,-0.30297 v 0.4795 c 0,0.79346 0.59988,3.20019 0.98979,3.971 0.38331,0.7578 0.54926,0.8383 1.10981,0.53831 z m 23.74996,-0.96942 c 0.36045,-0.31648 0.97164,-1.17729 1.35821,-1.91291 0.71223,-1.35539 1.33051,-2.90418 1.20819,-3.0265 -0.0368,-0.0368 -0.5772,-0.16127 -1.20082,-0.27655 -1.35007,-0.24958 -2.08754,-0.59631 -2.89353,-1.36041 l -0.59732,-0.56628 -0.11771,0.99385 c -0.24639,2.08034 0.32455,5.59314 1.05139,6.46894 0.30378,0.36603 0.45697,0.32487 1.19159,-0.32014 z m 13.55717,-0.88047 c 1.10392,-0.77322 1.63416,-3.3792 1.25032,-6.14486 l -0.16024,-1.15455 -1.0541,0.0578 c -3.06731,0.16818 -4.81458,1.49269 -4.80212,3.64018 0.014,2.42867 3.10548,4.7646 4.76614,3.60142 z m -35.24973,-3.47163 0.7029,-0.29369 -0.10015,-1.95946 c -0.15017,-2.9378 -1.01062,-5.03409 -2.54745,-6.2063 -1.82805,-1.39432 -3.7517,0.29874 -3.7517,3.302 0,1.21609 0.049,1.4155 0.37296,1.51833 0.37815,0.12001 0.6519,0.77046 0.86882,2.06436 0.12561,0.74926 0.6434,1.24453 1.87203,1.79061 0.69793,0.31018 1.48007,0.24482 2.58259,-0.21585 z m 24.96685,-3.00997 c 1.05987,-5.37749 0.82221,-10.28841 -0.5706,-11.79128 -0.59828,-0.64556 -1.09218,-0.59838 -1.96195,0.1874 -2.78175,2.51314 -3.44128,9.50072 -1.13381,12.01193 0.73326,0.79799 1.52816,1.17797 2.46581,1.17874 h 0.88767 l 0.31288,-1.5875 z M 94.132493,218.94123 c 1.692467,-3.44225 2.363893,-5.58902 2.385772,-7.6281 0.01482,-1.38122 -0.04426,-1.73164 -0.348731,-2.06856 -0.464839,-0.51437 -0.538961,-0.50934 -1.244503,0.0843 -0.759922,0.63943 -1.472354,2.17291 -1.956435,4.21111 -0.404207,1.70197 -0.835506,7.1954 -0.62738,7.99122 0.113376,0.43361 0.127019,0.4366 0.386734,0.0843 0.14807,-0.20088 0.780107,-1.4043 1.404543,-2.6743 z m -26.537219,19.35915 c -0.185195,-0.12048 -0.32583,-0.85912 -0.449137,-2.35893 -0.217432,-2.6447 -0.04429,-19.99894 0.222342,-22.28476 0.104473,-0.89566 0.161111,-1.65731 0.125863,-1.69257 -0.03525,-0.0352 -0.478492,0.52438 -0.984987,1.24364 -0.506494,0.71924 -2.324818,2.69317 -4.040721,4.3865 -3.430021,3.38492 -4.321167,4.48451 -4.321167,5.33191 0,0.32415 -0.08098,0.50969 -0.192424,0.44082 -0.105833,-0.0654 -0.192424,-0.40736 -0.192424,-0.75988 0,-0.86684 1.195291,-2.45651 3.38272,-4.49882 3.364106,-3.14094 6.399641,-7.05597 6.846333,-8.82995 0.223087,-0.88596 0.668458,-1.17099 1.300851,-0.83254 0.59275,0.31723 0.660962,1.19925 0.543479,7.0277 -0.07769,3.8542 -0.05206,5.1999 0.08984,4.71849 1.710153,-5.80161 3.471258,-9.31976 5.713938,-11.41474 1.409144,-1.31633 2.437255,-1.72907 4.076386,-1.63645 1.517648,0.0857 2.517485,0.65551 3.568564,2.03358 1.249372,1.63803 1.802129,3.80903 1.802129,7.07792 0,6.88998 -3.362882,13.9151 -7.613176,15.90405 -1.122903,0.52547 -1.519228,0.61182 -2.765817,0.6026 -2.150684,-0.016 -3.600747,-0.76316 -4.380862,-2.25758 -0.585598,-1.1218 -0.120226,-3.18968 0.717828,-3.18968 0.459562,0 0.463825,0.0493 0.07013,0.81057 -0.902279,1.74482 0.95194,4.1745 3.196136,4.18807 1.1486,0.007 2.859757,-0.95831 4.137121,-2.33374 3.437621,-3.70155 5.817735,-11.3569 5.132089,-16.50671 -0.317172,-2.38227 -0.862849,-3.75133 -1.948949,-4.88988 -0.749897,-0.78611 -1.029643,-0.94956 -1.767619,-1.03272 -3.391708,-0.38231 -7.202185,4.91899 -9.173716,12.76284 -0.862667,3.43217 -1.142417,5.79024 -1.382755,11.6555 -0.120065,2.93008 -0.282961,5.57111 -0.361992,5.86894 -0.152506,0.57473 -0.825581,0.80697 -1.350008,0.46582 z"
       id="path671" />
  </g>
</svg>
