<?xml version="1.0" encoding="UTF-8" standalone="no"?>
<!-- Created with Inkscape (http://www.inkscape.org/) -->

<svg
   width="103.69695mm"
   height="43.098633mm"
   viewBox="0 0 103.69695 43.098633"
   version="1.1"
   id="svg811"
   inkscape:version="1.1 (c4e8f9e, 2021-05-24)"
   sodipodi:docname="RSVP.svg"
   xmlns:inkscape="http://www.inkscape.org/namespaces/inkscape"
   xmlns:sodipodi="http://sodipodi.sourceforge.net/DTD/sodipodi-0.dtd"
   xmlns="http://www.w3.org/2000/svg"
   xmlns:svg="http://www.w3.org/2000/svg">
  <sodipodi:namedview
     id="namedview813"
     pagecolor="#ffffff"
     bordercolor="#666666"
     borderopacity="1.0"
     inkscape:pageshadow="2"
     inkscape:pageopacity="0.0"
     inkscape:pagecheckerboard="0"
     inkscape:document-units="mm"
     showgrid="false"
     inkscape:zoom="0.48729658"
     inkscape:cx="298.58613"
     inkscape:cy="180.58817"
     inkscape:window-width="1310"
     inkscape:window-height="768"
     inkscape:window-x="26"
     inkscape:window-y="25"
     inkscape:window-maximized="0"
     inkscape:current-layer="layer1"
     fit-margin-top="5"
     fit-margin-right="5"
     fit-margin-bottom="5"
     fit-margin-left="5" />
  <defs
     id="defs808" />
  <g
     inkscape:label="Layer 1"
     inkscape:groupmode="layer"
     id="layer1"
     transform="translate(-41.209738,-71.273904)">
    <path
       style="fill:#881b16;stroke-width:0.192424"
       d="m 118.28416,109.20662 c -0.14138,-0.22874 0.33326,-4.655 0.95113,-8.87021 0.84461,-5.761882 1.35869,-8.349107 2.57125,-12.940524 0.41227,-1.561042 0.68955,-2.838257 0.61618,-2.838257 -0.0734,0 -0.96999,0.85154 -1.99253,1.892315 -1.86344,1.896668 -2.62617,3.08979 -2.63441,4.120942 -0.005,0.581971 -0.3305,0.713272 -0.52329,0.210858 -0.20655,-0.538257 0.31301,-2.031236 0.99156,-2.849243 0.35456,-0.42743 1.58677,-1.779699 2.73823,-3.005041 l 2.09358,-2.227893 0.4779,-1.716804 0.47789,-1.716801 h 0.76654 0.76654 l 0.0652,1.250758 c 0.0358,0.687916 -0.0388,1.969887 -0.16582,2.848825 -0.12703,0.878938 -0.18915,1.639901 -0.13802,1.691028 0.0511,0.05113 0.38552,-0.364034 0.7431,-0.922582 2.61472,-4.084333 6.27959,-6.956099 9.21714,-7.222466 0.96459,-0.08747 1.28971,-0.02707 2.1535,0.400079 1.18464,0.585816 1.76099,1.369885 2.1748,2.95862 0.34007,1.305568 0.35591,2.110875 0.0779,3.961909 -1.0069,6.705486 -3.59845,11.172904 -8.19583,14.128345 -2.40527,1.546223 -5.90084,2.134532 -8.40353,1.414317 -0.69669,-0.200487 -0.9669,-0.212067 -1.06963,-0.04584 -0.0756,0.12233 -0.42193,1.672855 -0.7696,3.445625 -0.76558,3.90363 -1.27912,5.83953 -1.60376,6.04561 -0.33045,0.20976 -1.25359,0.20073 -1.38603,-0.0136 z m 8.33495,-9.827784 c 2.15679,-0.409025 4.84728,-2.175862 6.66017,-4.373724 2.57475,-3.121475 4.54856,-8.638875 4.59801,-12.852786 0.0247,-2.099441 -0.20399,-3.03546 -0.96127,-3.93544 -0.70649,-0.839618 -1.38419,-0.903612 -2.80705,-0.265066 -3.12429,1.402097 -6.24378,4.97332 -8.99743,10.300352 -1.1551,2.234597 -1.67817,3.961843 -2.52147,8.326137 -0.43032,2.227031 -0.3968,2.309466 1.10313,2.712623 1.15497,0.310436 1.67078,0.325934 2.92591,0.0879 z m -20.22202,9.096964 c -0.88825,-1.32053 -3.01067,-5.01521 -3.92638,-6.83495 C 99.511694,95.760465 97.930374,88.9598 97.894424,81.959901 l -0.0189,-3.65606 0.49754,-0.05784 c 0.27364,-0.03181 0.59355,0.05786 0.71091,0.199273 0.11736,0.141408 0.47692,2.288911 0.79902,4.772228 0.809636,6.242167 1.523786,9.546291 2.993006,13.847697 0.75855,2.220845 3.43952,8.023721 3.9446,8.537981 0.0917,0.0934 0.2184,-0.24719 0.28627,-0.76969 0.29365,-2.26096 1.58319,-7.715207 2.45081,-10.366019 1.16507,-3.559642 3.50945,-8.3703 5.29486,-10.864959 2.28746,-3.196155 5.46517,-6.024375 6.07906,-5.410478 0.14908,0.149069 0.13728,0.208014 -0.0416,0.208014 -0.42383,0 -2.87926,2.507401 -4.2398,4.329545 -3.20249,4.289002 -5.27084,8.872712 -6.81611,15.105302 -0.88184,3.556825 -1.09837,5.021855 -1.25133,8.466665 l -0.1239,2.79015 -0.78507,0.0576 c -0.72063,0.0528 -0.82545,-0.002 -1.27682,-0.67348 z m -25.560014,-0.40891 c -3.345084,-0.9348 -4.976168,-3.29845 -4.414289,-6.39695 0.55905,-3.083001 2.0066,-5.759282 3.115098,-5.759282 0.712605,0 0.737428,0.131772 0.232526,1.234604 -0.558069,1.218976 -1.203191,3.654608 -1.36042,5.136138 -0.126385,1.19098 0.279149,2.75528 0.95019,3.66521 1.013864,1.37479 3.873597,2.12427 6.553066,1.71742 5.857086,-0.88933 10.073408,-5.46962 8.991215,-9.767377 -0.600614,-2.385308 -2.67362,-3.834282 -7.227301,-5.051698 -4.233064,-1.131702 -5.295226,-1.50935 -6.303876,-2.24133 -1.427499,-1.035935 -1.943831,-2.000323 -2.033481,-3.798177 -0.09591,-1.922757 0.518929,-3.73392 1.846041,-5.438119 1.663642,-2.136311 3.330844,-3.285759 5.71423,-3.939628 4.302471,-1.180369 7.739861,0.526057 7.957916,3.950565 0.09188,1.443053 -0.393103,3.371787 -0.84786,3.371787 -0.249131,0 -0.27457,-0.206487 -0.16383,-1.330214 0.181803,-1.845121 -0.138872,-3.050512 -1.102956,-4.145774 -1.9487,-2.213818 -5.324052,-1.735651 -8.009024,1.134589 -2.541231,2.716576 -3.396904,6.214964 -2.072755,8.474427 0.680604,1.161359 1.950469,1.899743 4.438322,2.580703 4.648662,1.272413 6.74803,2.244319 8.162521,3.778843 1.117677,1.212555 1.579361,2.325325 1.577263,3.801758 -0.0054,3.834455 -3.119466,7.175315 -8.20039,8.797635 -1.912158,0.61054 -6.000461,0.72838 -7.802206,0.22487 z m -25.556921,-0.78277 c -0.773427,-0.49001 -0.503613,-12.513643 0.43874,-19.551492 0.290263,-2.167795 0.807016,-5.27764 0.991208,-5.965151 0.06433,-0.240138 -0.135836,-0.09632 -0.532341,0.382461 -1.925959,2.325614 -4.094717,4.544258 -6.463225,6.611889 -1.464485,1.278449 -2.780214,2.544029 -2.923842,2.812401 -0.248238,0.463839 -0.580957,0.658195 -0.580957,0.339363 0,-0.237317 1.18165,-1.60833 2.020454,-2.344237 4.810283,-4.220194 8.889848,-9.163034 9.611481,-11.645364 0.430981,-1.482523 1.03313,-1.961042 1.831962,-1.455836 0.370178,0.234113 0.316438,1.420961 -0.197793,4.36823 -0.826822,4.738857 -1.578595,10.937746 -1.291403,10.648517 0.05254,-0.05292 0.342524,-0.659053 0.644401,-1.34697 1.941415,-4.424093 5.958894,-9.370365 9.198475,-11.325053 3.557696,-2.146631 7.00336,-2.301195 8.8164,-0.395484 0.811107,0.852574 1.09855,1.650719 1.250488,3.472159 0.621511,7.450899 -9.587372,17.265678 -17.98319,17.288977 l -1.204027,0.0033 1.091665,1.49129 c 2.194402,2.9977 3.047099,3.93208 4.436502,4.86151 1.690851,1.13108 3.162414,1.53836 4.122053,1.14087 0.942659,-0.39046 1.832419,-1.25631 2.867891,-2.79081 0.899979,-1.33371 1.372327,-1.74523 1.741398,-1.51713 0.329608,0.20371 0.174656,0.76841 -0.544356,1.98383 -0.884099,1.49448 -2.077039,2.62341 -3.060816,2.89658 -1.188408,0.32998 -3.155809,0.25056 -4.400403,-0.17764 -2.416187,-0.83129 -4.211859,-2.325 -6.283906,-5.2272 -0.74279,-1.04038 -1.417776,-1.891603 -1.499964,-1.891603 -0.08219,0 -0.210411,0.714373 -0.284933,1.587503 -0.455171,5.33286 -0.789489,6.39286 -1.811962,5.74505 z m 6.529127,-8.988009 c 5.211714,-1.538292 10.245032,-5.582301 12.849263,-10.323707 1.697779,-3.091093 2.139084,-6.315419 1.154777,-8.437238 -0.41658,-0.897996 -0.648316,-1.149572 -1.389284,-1.508266 -0.703838,-0.340727 -1.059907,-0.401997 -1.707477,-0.29381 -4.297501,0.717965 -9.668456,5.986577 -12.929219,12.68286 -1.214574,2.494237 -2.182506,5.387561 -2.256626,6.745466 -0.05142,0.942047 -0.03859,0.966912 0.615145,1.191791 0.947268,0.325849 2.445093,0.302506 3.663421,-0.0571 z"
       id="path845" />
  </g>
</svg>
