<?xml version="1.0" encoding="UTF-8" standalone="no"?>
<!-- Created with Inkscape (http://www.inkscape.org/) -->

<svg
   width="204.68762mm"
   height="54.941841mm"
   viewBox="0 0 204.68762 54.941841"
   version="1.1"
   id="svg380"
   inkscape:version="1.1 (c4e8f9e, 2021-05-24)"
   sodipodi:docname="Things to Do.svg"
   xmlns:inkscape="http://www.inkscape.org/namespaces/inkscape"
   xmlns:sodipodi="http://sodipodi.sourceforge.net/DTD/sodipodi-0.dtd"
   xmlns="http://www.w3.org/2000/svg"
   xmlns:svg="http://www.w3.org/2000/svg">
  <sodipodi:namedview
     id="namedview382"
     pagecolor="#ffffff"
     bordercolor="#666666"
     borderopacity="1.0"
     inkscape:pageshadow="2"
     inkscape:pageopacity="0.0"
     inkscape:pagecheckerboard="0"
     inkscape:document-units="mm"
     showgrid="false"
     inkscape:zoom="0.48907828"
     inkscape:cx="401.77617"
     inkscape:cy="94.054473"
     inkscape:window-width="1440"
     inkscape:window-height="768"
     inkscape:window-x="0"
     inkscape:window-y="25"
     inkscape:window-maximized="0"
     inkscape:current-layer="layer1"
     fit-margin-top="5"
     fit-margin-right="5"
     fit-margin-bottom="5"
     fit-margin-left="5" />
  <defs
     id="defs377" />
  <g
     inkscape:label="Layer 1"
     inkscape:groupmode="layer"
     id="layer1"
     transform="translate(-8.2706878,-114.93357)">
    <path
       style="fill:#881b16;stroke-width:0.192424"
       d="m 91.944785,164.31315 c -0.56353,-0.56352 -0.64543,-0.92557 -0.56919,-2.51631 0.0828,-1.72752 1.72953,-5.84563 3.7277,-9.32215 l 1.09999,-1.91381 -0.0533,-2.60816 -0.0533,-2.60815 -0.6097,1.16609 c -1.11582,2.13414 -2.65899,3.1145 -4.58889,2.91531 -1.287914,-0.13292 -2.39116,-0.69935 -3.111808,-1.59767 l -0.569806,-0.71026 -0.621531,1.1013 c -0.787938,1.39615 -2.011429,2.72836 -2.941416,3.20281 -0.942955,0.48106 -2.54252,0.48664 -3.434849,0.012 -2.026497,-1.07796 -2.692035,-4.06392 -2.000635,-8.97593 0.482542,-3.42831 0.555394,-4.71439 0.267046,-4.71439 -0.464108,0 -2.304203,1.54952 -3.359744,2.8292 -1.153859,1.39887 -2.432762,3.70998 -2.800175,5.06019 -0.129596,0.47625 -0.289248,1.55864 -0.354786,2.40531 -0.117637,1.51972 -0.126219,1.5402 -0.671576,1.60252 -1.13029,0.12917 -1.454329,-0.0994 -2.124972,-1.49877 -0.349721,-0.72975 -0.840509,-2.19895 -1.090641,-3.2649 -0.25013,-1.06596 -0.500446,-1.93771 -0.556254,-1.93724 -0.05581,3.8e-4 -0.601066,0.98775 -1.211678,2.19396 -1.922521,3.79775 -3.547064,5.9728 -4.819367,6.45247 -0.830103,0.31296 -2.256163,0.23596 -3.150601,-0.17012 -0.824761,-0.37445 -1.899152,-1.62502 -2.106772,-2.45224 -0.161727,-0.64437 -0.392143,-0.54702 -0.655536,0.27697 -1.080296,3.37957 -2.767599,6.28494 -4.16447,7.17081 -1.194218,0.75735 -2.915862,0.81601 -3.928608,0.13386 -2.027232,-1.36547 -2.293066,-4.47051 -1.016641,-11.87475 0.823079,-4.77448 0.854916,-7.50454 0.08751,-7.50454 -0.602702,0 -2.545977,2.2987 -3.505372,4.1465 -1.184792,2.28193 -1.865374,4.2341 -2.206465,6.32899 -0.154045,0.9461 -0.374255,1.83366 -0.489356,1.97235 -0.1151,0.13869 -0.463207,0.25216 -0.773572,0.25216 -0.50175,0 -0.61874,-0.12265 -1.05542,-1.10644 -0.270118,-0.60854 -0.615011,-1.75587 -0.766434,-2.54962 -0.52455,-2.74968 -0.347504,-2.67935 -2.000128,-0.79446 -2.171125,2.47626 -5.10677,4.79546 -5.525701,4.36538 -0.07874,-0.0808 0.333082,-0.54409 0.915166,-1.02944 1.379224,-1.15003 3.423868,-3.25425 4.820783,-4.96126 l 1.114129,-1.36145 -0.01358,-3.93022 c -0.02249,-6.50645 0.797604,-10.02132 2.874598,-12.3203 1.850054,-2.04779 4.728168,-2.23231 5.696574,-0.36522 0.920026,1.77381 -0.570681,6.09216 -4.04126,11.70691 l -1.256895,2.03342 0.12567,1.35597 c 0.272111,2.93604 0.234342,2.91268 1.284324,0.79438 1.894268,-3.8216 3.3695,-5.35082 5.148624,-5.33704 1.209504,0.009 1.660144,0.29189 2.195895,1.37666 0.367556,0.74422 0.423567,1.14986 0.398548,2.88636 -0.01601,1.11125 -0.215121,3.27603 -0.442468,4.81061 -0.597031,4.02991 -0.725551,7.51229 -0.326768,8.85402 0.436775,1.46955 0.559509,1.62676 1.060627,1.35857 1.029072,-0.55074 2.832583,-3.67939 4.590995,-7.96423 0.86614,-2.11058 0.885846,-2.20603 1.020364,-4.9423 0.134587,-2.73767 0.413365,-3.9933 0.961869,-4.33229 0.394429,-0.24378 1.740462,-0.1632 2.018544,0.12082 0.179402,0.18324 0.300389,1.0802 0.386378,2.8645 0.202563,4.20323 0.829723,7.82288 1.518685,8.76509 0.252214,0.34492 0.292131,0.33869 1.05202,-0.16418 0.434423,-0.28749 1.182524,-1.01979 1.662447,-1.62734 1.863866,-2.35952 4.518083,-7.32407 4.518083,-8.45079 0,-0.83499 0.535134,-2.14276 0.97261,-2.37689 0.191982,-0.10274 0.659677,-0.18681 1.03932,-0.18681 0.87802,0 0.940404,0.15477 1.357357,3.36743 0.178562,1.37583 0.38784,2.61568 0.465064,2.75523 0.09408,0.17001 0.378851,-0.154 0.863109,-0.98205 1.336419,-2.28517 3.873366,-4.86715 5.481782,-5.57909 1.11812,-0.49491 2.377613,-0.3694 3.051059,0.30405 0.674447,0.67445 0.738159,1.75224 0.332298,5.62268 -0.361065,3.44327 -0.308321,5.20658 0.199525,6.67066 0.512502,1.47754 0.727883,1.52345 1.821988,0.38835 1.183274,-1.22763 3.421822,-5.72512 3.659216,-7.3518 0.368204,-2.52279 1.579534,-4.44056 3.446741,-5.45682 1.862317,-1.0136 3.870147,-0.8766 5.511217,0.37606 0.49094,0.37473 0.91552,0.65375 0.94356,0.62006 0.028,-0.0337 0.17743,-0.45093 0.33202,-0.92718 0.18258,-0.5624 0.44885,-0.94779 0.75971,-1.09952 0.67493,-0.32943 1.54881,-0.0593 1.72309,0.53274 0.0762,0.25881 0.24755,2.13744 0.38082,4.17473 0.13326,2.03729 0.293035,3.70018 0.355065,3.69531 0.15473,-0.0122 5.03588,-6.59335 5.44586,-7.34259 0.42203,-0.77127 0.66348,-0.91623 1.53212,-0.91985 0.93745,-0.004 1.26654,0.43874 1.97552,2.6572 l 0.56425,1.76561 1.64752,0.009 c 1.82722,0.0103 4.85559,0.57102 4.97212,0.92061 0.1006,0.30178 -0.4799,0.28357 -2.55491,-0.0801 -1.56312,-0.27398 -3.75227,-0.24605 -3.75227,0.0479 0,0.0551 0.18084,0.97976 0.40186,2.05472 0.74551,3.62577 0.33176,6.48978 -1.1003,7.61623 -0.91246,0.71774 -2.48995,1.0602 -3.77922,0.82044 -2.21807,-0.4125 -3.38664,-1.64216 -3.54874,-3.73429 -0.17786,-2.29527 1.1978,-4.60785 3.58049,-6.01913 1.06798,-0.63255 1.07161,-0.64409 0.72627,-2.30511 l -0.23922,-1.15058 -1.50353,1.80646 c -0.82692,0.99355 -2.12261,2.63011 -2.87928,3.6368 l -1.37576,1.83033 -0.0181,4.15242 c -0.0195,4.45548 -0.20749,5.88512 -1.143895,8.69688 -0.84511,2.53762 -2.57306,4.94813 -4.0491,5.64856 -0.34087,0.16175 -1.06794,0.29409 -1.61571,0.29409 -0.84421,0 -1.08164,-0.0857 -1.55841,-0.56247 z m 1.98349,-1.12124 c 0.54393,-0.6177 1.32344,-2.37779 1.7126,-3.86693 0.38194,-1.46153 0.73866,-5.99481 0.47171,-5.99481 -0.0753,0 -0.46621,0.71438 -0.86865,1.5875 -1.46365,3.17557 -2.28334,6.36307 -2.0268,7.88151 0.13716,0.81184 0.27505,0.88798 0.71114,0.39273 z m 12.652805,-12.16935 c 0.53721,-0.28751 0.85211,-1.45954 0.85346,-3.17648 0.002,-1.97674 -0.46674,-5.09924 -0.76475,-5.09924 -0.47083,0 -2.01047,1.59779 -2.49609,2.59035 -0.93874,1.91873 -0.57444,4.14969 0.87707,5.37105 0.64803,0.54529 0.97372,0.61219 1.53031,0.31432 z m -13.107825,-4.18671 c 1.12,-1.12858 2.71966,-3.86099 2.71966,-4.6455 0,-0.56171 -0.66253,-2.24422 -1.19203,-3.02718 -0.24397,-0.36075 -0.77062,-0.88437 -1.17034,-1.1636 -0.6232,-0.43535 -0.78771,-0.47466 -1.15455,-0.27588 -0.59584,0.32289 -1.37771,1.4769 -1.77361,2.61785 -0.835889,2.40886 -0.0882,7.60075 1.09451,7.60075 0.20809,0 0.87243,-0.49789 1.47636,-1.10644 z m -52.07783,-10.87197 c 2.305901,-4.15049 3.035373,-6.14456 3.035373,-8.29743 0,-1.25381 -0.06213,-1.5186 -0.46609,-1.98653 l -0.466088,-0.5399 -0.846563,0.88158 c -0.954682,0.99417 -1.750729,2.86976 -2.056295,4.84488 -0.289091,1.86863 -0.481678,6.6849 -0.26731,6.6849 0.101752,0 0.581889,-0.71437 1.066973,-1.5875 z m 97.209975,17.19485 c -0.32689,-0.19933 -0.77795,-0.59585 -1.00238,-0.88116 -1.00678,-1.27992 -1.7707,-4.61631 -1.7707,-7.73351 0,-1.43158 -0.0851,-2.17326 -0.29607,-2.58126 -0.16283,-0.31488 -0.38325,-1.04429 -0.48985,-1.62091 -0.503,-2.72095 1.29165,-4.59709 4.08135,-4.26669 2.24234,0.26557 3.78424,1.88033 4.87055,5.10072 l 0.41483,1.22976 1.04661,-1.51313 c 0.57562,-0.83222 1.32561,-2.20465 1.66665,-3.04983 0.34103,-0.84519 0.71401,-1.56802 0.82883,-1.60629 0.11482,-0.0383 0.42152,-0.0162 0.68156,0.0491 0.40386,0.10136 0.47281,0.23127 0.47281,0.89077 0,1.88585 -1.33754,4.65019 -3.07971,6.36494 l -1.29583,1.27543 -0.0942,2.1882 c -0.136,3.16038 -0.96212,5.08619 -2.60966,6.08363 -0.92394,0.55936 -2.56745,0.59308 -3.42482,0.0703 z m 2.70179,-1.54578 c 0.57698,-0.91401 0.99966,-2.40204 1.16407,-4.09808 0.18363,-1.89467 0.11934,-1.99828 -1.32353,-2.13302 -1.05483,-0.0985 -1.83413,-0.32459 -3.46495,-1.00524 -0.34193,-0.14271 -0.35444,-0.0761 -0.22103,1.17805 0.16852,1.58471 0.91057,4.61059 1.32917,5.42004 0.16425,0.31763 0.52533,0.84693 0.80241,1.17622 0.60738,0.72184 0.99548,0.60002 1.71386,-0.53797 z m 0.87284,-7.9521 c -0.0112,-2.10479 -2.39896,-6.46058 -3.43258,-6.26154 -0.47506,0.0915 -0.84894,1.43259 -0.70689,2.53565 0.28088,2.1811 1.97458,4.1273 3.61259,4.15114 0.42343,0.006 0.5287,-0.0788 0.52688,-0.42525 z m -11.7964,9.13117 c -0.71526,-0.79035 -1.41984,-5.67255 -1.67186,-11.58457 -0.18242,-4.27915 -0.0231,-11.26824 0.3124,-13.71023 0.0691,-0.50271 0.0707,-0.91402 0.003,-0.91402 -0.0672,0 -1.39945,0.51608 -2.96062,1.14683 -3.55508,1.43633 -5.07011,1.80276 -7.00752,1.69482 -1.58319,-0.0882 -2.708,-0.56357 -2.2997,-0.97188 0.15313,-0.15314 0.39823,-0.12182 0.89301,0.11413 1.46864,0.70034 3.11879,0.36425 8.07721,-1.64512 3.79963,-1.53977 6.08658,-2.32297 8.73318,-2.9908 1.79022,-0.45173 2.42299,-0.51563 5.12137,-0.51721 2.91877,-0.002 3.9446,0.16119 3.94474,0.62638 1e-5,0.0756 -1.45038,0.13755 -3.22311,0.13755 -3.32825,0 -4.63662,0.18479 -7.5178,1.06176 l -1.28565,0.39133 -0.0597,4.08406 c -0.10112,6.91977 0.35064,15.94505 1.04059,20.78926 0.2303,1.61677 0.24527,2.14258 0.0671,2.3572 -0.33601,0.40487 -1.77979,0.35858 -2.16718,-0.0695 z m 41.34227,-0.50162 c -2.00895,-0.56517 -2.57396,-2.10929 -1.41307,-3.86189 1.32544,-2.00105 4.65511,-3.8718 10.01078,-5.62448 l 3.40872,-1.11552 0.34051,-1.44319 c 0.49342,-2.09117 0.44242,-5.70915 -0.11255,-7.98514 -0.73714,-3.02302 -1.93176,-5.12159 -3.408,-5.98673 -0.74357,-0.43575 -1.02276,-0.49567 -1.89169,-0.40599 -4.15775,0.42912 -8.57531,6.27755 -9.92235,13.13619 -0.23511,1.19713 -0.19984,1.85267 0.46476,8.63929 0.14453,1.47578 0.21909,2.79704 0.16571,2.93613 -0.13308,0.34685 -0.91593,0.51753 -1.32462,0.28881 -0.57901,-0.32403 -2.00308,-5.71606 -2.5768,-9.75665 -0.59318,-4.17781 -0.57117,-8.37926 0.0662,-12.63612 l 0.24973,-1.66795 -1.57467,1.37931 c -0.86606,0.75862 -1.72174,1.61743 -1.9015,1.90848 -0.17974,0.29104 -0.40851,0.52916 -0.50836,0.52916 -0.52692,0 0.0331,-0.77369 1.99882,-2.7614 1.90816,-1.92951 2.2353,-2.35724 2.62017,-3.42586 0.58091,-1.6129 0.87464,-1.92789 1.73045,-1.85578 0.50211,0.0423 0.70177,0.15882 0.75786,0.44229 0.0419,0.21166 -0.0325,2.76609 -0.16533,5.67651 -0.13281,2.91042 -0.20965,5.59473 -0.17076,5.96515 0.0702,0.66845 0.0739,0.66484 0.49727,-0.48325 0.61762,-1.67487 2.28894,-4.38202 3.566,-5.77604 4.35087,-4.74935 10.05817,-4.39354 12.88479,0.80326 1.36698,2.51324 2.04624,6.192 1.70055,9.20985 -0.10903,0.95165 -0.19893,1.83335 -0.1998,1.95934 -0.003,0.39085 4.12885,-1.12655 4.30301,-1.58037 0.0555,-0.14469 0.40504,-0.32012 0.77668,-0.38984 0.62021,-0.11635 0.70037,-0.21147 0.97534,-1.15737 0.62821,-2.16091 3.02443,-4.82318 4.76245,-5.29118 1.03145,-0.27774 2.328,-0.10726 3.03999,0.39972 0.30195,0.21501 0.79173,0.88673 1.08839,1.49272 0.46482,0.94951 0.54901,1.38213 0.60906,3.12998 0.063,1.83354 -0.18153,3.88415 -0.65876,5.52447 -0.0952,0.32706 -0.047,0.43295 0.19704,0.43295 0.6971,0 2.56315,-1.08576 3.53481,-2.05674 0.83817,-0.83756 1.14208,-1.02204 1.68372,-1.02204 0.81243,0 0.83023,0.24323 0.0894,1.22204 -0.9821,1.29759 -2.42961,2.19727 -4.70601,2.92495 l -1.33284,0.42606 -0.5117,1.32143 c -0.93277,2.40878 -1.74484,3.77789 -2.95587,4.98345 -1.35349,1.34739 -2.40326,1.76469 -3.91729,1.55717 -2.3922,-0.32789 -3.75322,-2.45159 -4.02702,-6.28365 -0.11437,-1.6009 0.17646,-4.58057 0.542,-5.55276 0.0951,-0.25281 0.13401,-0.49847 0.0865,-0.54593 -0.0935,-0.0935 -3.35042,1.07841 -3.69372,1.32914 -0.11515,0.0841 -0.31987,0.52196 -0.45493,0.97301 -0.34904,1.16572 -1.4651,3.32127 -2.31594,4.47302 -1.10298,1.49304 -3.30285,3.43009 -4.75944,4.19082 -2.65497,1.3866 -5.72285,1.95269 -7.64777,1.41117 z m 5.01841,-1.45043 c 1.84207,-0.91278 3.5773,-2.46473 4.76461,-4.26139 0.71201,-1.07739 2.09435,-4.03856 1.95184,-4.18107 -0.11313,-0.11313 -4.13418,1.24045 -5.91043,1.98958 -4.29263,1.81041 -6.98865,4.28985 -6.59811,6.06805 0.21494,0.97862 1.06655,1.37567 2.74549,1.28004 1.16734,-0.0665 1.67546,-0.21578 3.0466,-0.89521 z m 19.17069,7.7e-4 c 0.49023,-0.3109 1.28735,-1.06857 1.77136,-1.68371 0.83154,-1.05695 2.41565,-3.84472 2.41565,-4.25126 0,-0.10319 -0.75767,-0.22656 -1.68371,-0.27416 -2.0438,-0.10506 -3.40183,-0.63757 -4.37604,-1.71591 -0.3713,-0.41098 -0.6751,-0.83869 -0.6751,-0.95047 0,-0.11177 -0.0866,-0.14971 -0.19242,-0.0843 -0.29164,0.18024 -0.23255,4.47089 0.0844,6.12736 0.27766,1.45127 0.66871,2.43284 1.21939,3.0609 0.38258,0.43634 0.38989,0.43518 1.43647,-0.22854 z m 4.56201,-7.51126 c 0.66042,-0.35345 1.2475,-3.0575 1.25445,-5.778 0.006,-2.25148 -0.0273,-2.46869 -0.51664,-3.39655 -0.57385,-1.08807 -1.338,-1.7989 -1.93384,-1.7989 -0.9511,0 -2.37883,1.45216 -3.12159,3.175 -0.50769,1.17762 -0.6145,4.02714 -0.19796,5.28125 0.35392,1.06558 1.25693,2.25244 1.91718,2.51983 0.5526,0.22381 2.17837,0.22216 2.5984,-0.003 z m -175.160123,6.30275 c -0.310436,-0.233 -0.350599,-0.55087 -0.336215,-2.66094 0.03979,-5.83773 1.323674,-21.72124 1.923859,-23.80093 0.100001,-0.3465 0.105974,-0.66836 0.01347,-0.72554 -0.09145,-0.0565 -1.535467,0.38702 -3.20893,0.98565 -4.002515,1.43175 -5.036857,1.74261 -6.68047,2.00776 -1.560695,0.25176 -2.757539,0.0414 -3.395827,-0.5969 -0.826559,-0.82656 -0.102636,-1.243 0.816431,-0.46965 0.919757,0.77392 1.177114,0.71787 8.814931,-1.91968 5.317746,-1.83637 10.516086,-2.79479 13.279974,-2.44845 1.917115,0.24024 4.61548,1.28831 4.61548,1.7927 0,0.32878 -1.233851,0.16153 -3.013081,-0.4084 -1.229006,-0.39369 -2.183869,-0.57535 -3.002478,-0.57123 -1.345503,0.007 -5.295896,0.64257 -5.53734,0.89121 -0.08604,0.0886 -0.252447,1.71971 -0.369807,3.62471 -0.117359,1.905 -0.339821,5.10887 -0.494359,7.1197 -0.154536,2.01083 -0.410814,6.03731 -0.569503,8.94773 -0.332422,6.09673 -0.470396,7.74986 -0.674362,8.07989 -0.221721,0.35875 -1.763358,0.46641 -2.181769,0.15237 z m 31.862017,-14.01108 c -0.58801,-0.23635 -0.546229,-0.69355 0.07769,-0.85015 0.523764,-0.13145 1.606023,0.19731 1.606023,0.48787 0,0.20282 -0.658418,0.56484 -0.997577,0.5485 -0.13925,-0.007 -0.44801,-0.0905 -0.686136,-0.18622 z"
       id="path414" />
  </g>
</svg>
