<?xml version="1.0" encoding="UTF-8" standalone="no"?>
<!-- Created with Inkscape (http://www.inkscape.org/) -->

<svg
   width="284.00726mm"
   height="62.654903mm"
   viewBox="0 0 284.00726 62.654903"
   version="1.1"
   id="svg374"
   inkscape:version="1.1 (c4e8f9e, 2021-05-24)"
   sodipodi:docname="katherine y chandler.svg"
   xmlns:inkscape="http://www.inkscape.org/namespaces/inkscape"
   xmlns:sodipodi="http://sodipodi.sourceforge.net/DTD/sodipodi-0.dtd"
   xmlns="http://www.w3.org/2000/svg"
   xmlns:svg="http://www.w3.org/2000/svg">
  <sodipodi:namedview
     id="namedview376"
     pagecolor="#ffffff"
     bordercolor="#666666"
     borderopacity="1.0"
     inkscape:pageshadow="2"
     inkscape:pageopacity="0.0"
     inkscape:pagecheckerboard="0"
     inkscape:document-units="mm"
     showgrid="false"
     fit-margin-top="5"
     fit-margin-right="5"
     fit-margin-bottom="5"
     fit-margin-left="5"
     inkscape:zoom="0.24108596"
     inkscape:cx="524.70912"
     inkscape:cy="223.9865"
     inkscape:window-width="1440"
     inkscape:window-height="768"
     inkscape:window-x="0"
     inkscape:window-y="25"
     inkscape:window-maximized="0"
     inkscape:current-layer="layer1" />
  <defs
     id="defs371" />
  <g
     inkscape:label="Layer 1"
     inkscape:groupmode="layer"
     id="layer1"
     transform="translate(93.865878,-126.15115)">
    <path
       style="fill:#881b16;stroke-width:0.192424"
       d="m -58.789361,183.68572 c -3.416173,-0.72612 -6.506645,-2.98374 -11.218058,-8.19489 -4.507928,-4.98609 -5.839,-6.30168 -5.979221,-5.90968 -0.06757,0.1889 -0.177146,1.64231 -0.243504,3.22981 -0.103766,2.48243 -0.375223,5.0256 -0.555692,5.20607 -0.241196,0.24119 -1.078292,0.24935 -1.400496,0.0137 -0.365173,-0.26714 -0.384849,-0.50366 -0.384849,-4.62633 0,-2.38963 -0.07322,-4.34499 -0.162719,-4.34523 -0.0895,-1.9e-4 -0.412412,0.17736 -0.717589,0.39467 -1.24587,0.88713 -3.134802,1.58388 -4.550754,1.67857 -1.221881,0.0817 -1.515861,0.0315 -2.428654,-0.41512 -1.600596,-0.78311 -2.434981,-2.22038 -2.434981,-4.19439 0,-2.25863 1.444156,-3.62175 3.837059,-3.62175 1.40085,0 2.759737,0.4044 4.869775,1.44923 1.639013,0.8116 1.685628,0.82249 1.769952,0.41375 0.04763,-0.23089 0.13874,-1.97844 0.202458,-3.88344 0.13522,-4.04267 0.549971,-10.92977 0.980049,-16.27409 0.166709,-2.07159 0.274237,-4.01394 0.238952,-4.31633 -0.06256,-0.53612 -0.08146,-0.52379 -0.759454,0.49531 -0.382416,0.57481 -1.378211,1.81084 -2.212879,2.74672 -4.202183,4.71175 -5.052171,5.93248 -5.145391,7.38968 -0.04005,0.626 -0.109178,0.72235 -0.518291,0.72235 -0.436578,0 -0.469946,-0.0663 -0.443715,-0.88145 0.05116,-1.59 0.886199,-2.82783 5.181858,-7.68143 2.134695,-2.41195 3.926701,-5.29541 4.517103,-7.26831 0.271382,-0.90686 0.808528,-1.19935 1.511571,-0.8231 0.383342,0.20516 0.402758,0.36607 0.402481,3.33568 -3.85e-4,3.68151 -0.250431,9.14804 -0.758968,16.58982 -0.202499,2.96334 -0.418443,6.34038 -0.479873,7.50455 l -0.111693,2.11666 0.969338,-1.05833 c 2.69386,-2.94119 6.835176,-8.83645 9.529812,-13.56591 3.255123,-5.71319 7.222268,-14.84055 7.882682,-18.13598 0.107053,-0.53419 0.20727,-0.62538 0.687312,-0.62538 0.417415,0 0.561983,0.0911 0.561983,0.35407 0,0.75906 -0.779005,3.32705 -1.789696,5.89972 -4.286755,10.91176 -10.317525,20.97602 -16.525193,27.57756 -0.827644,0.88015 -1.504808,1.666 -1.504808,1.74632 0,0.0803 0.541194,0.58699 1.202652,1.12593 1.460267,1.18979 4.547523,4.34463 8.065362,8.24194 2.790729,3.09176 4.026571,4.23584 5.776537,5.34762 3.547006,2.25348 6.132381,2.01392 9.029702,-0.83667 1.312681,-1.29151 2.728541,-3.28149 2.943157,-4.13659 0.166037,-0.66155 1.078684,-0.70589 1.072304,-0.0521 -0.01047,1.07271 -1.75779,3.83941 -3.354053,5.3108 -1.437367,1.32492 -3.073529,1.99081 -5.074935,2.06543 -0.917983,0.0342 -2.032468,-0.015 -2.476633,-0.10943 z m -23.286377,-13.96363 c 1.033141,-0.5262 3.586376,-2.36542 3.596367,-2.59065 0.01838,-0.41412 -5.098681,-3.16124 -6.312662,-3.38899 -2.167307,-0.40659 -3.452632,2.65733 -2.090101,4.98232 0.28229,0.48169 0.752396,1.05953 1.044679,1.28409 0.756695,0.58136 2.28615,0.46476 3.761717,-0.28677 z m 181.874129,11.18623 c -0.32173,-0.25368 -0.82032,-0.92641 -1.10796,-1.49493 -1.08614,-2.14671 -1.32261,-4.78864 -1.03014,-11.50925 0.10566,-2.42797 0.0957,-3.92205 -0.0281,-4.23333 l -0.19134,-0.48106 -0.83786,0.8903 c -2.237179,2.37728 -4.349536,7.90884 -4.170581,10.92141 0.0539,0.90733 0.01116,1.05461 -0.343593,1.18616 -0.603192,0.22363 -1.276639,-0.20348 -1.691544,-1.0728 -1.154218,-2.41844 -2.196041,-6.03774 -2.884093,-10.01941 l -0.422486,-2.44489 -0.982268,1.24992 c -2.327083,2.96114 -7.510857,8.61563 -7.901979,8.6195 -0.132291,0.001 -0.240376,-0.0626 -0.240203,-0.14194 1.93e-4,-0.0794 1.219008,-1.57306 2.708487,-3.31931 1.489479,-1.74625 3.502564,-4.20199 4.473536,-5.45718 l 1.765377,-2.28219 -0.09621,-1.27766 c -0.226272,-3.00474 -0.08396,-9.92408 0.239972,-11.66858 0.86437,-4.65478 2.742392,-8.01877 4.783551,-8.56839 1.545456,-0.41615 2.793577,0.10039 3.422689,1.41653 1.487015,3.1108 -0.242897,9.5157 -4.284153,15.86185 l -1.257781,1.97514 0.19075,1.68092 c 0.402937,3.55088 1.54357,10.43622 1.728875,10.43622 0.07497,0 0.193386,-0.30431 0.263159,-0.67624 0.534343,-2.84828 3.428519,-7.4592 5.009495,-7.98096 0.83974,-0.27714 1.88587,-0.0798 2.38313,0.4495 0.704849,0.75026 0.807319,1.91993 0.68132,7.77711 -0.098,4.55791 -0.0675,5.76911 0.173699,6.89122 0.32335,1.50418 0.87315,2.80276 1.23654,2.92057 0.36805,0.11933 1.30679,-1.53349 1.86051,-3.27572 0.83204,-2.61804 1.45985,-6.0657 1.33133,-7.3111 -0.31121,-3.01525 1.37404,-6.55565 3.50854,-7.37083 1.13927,-0.43509 2.62461,-0.29702 3.26371,0.30339 0.35995,0.33815 0.49001,0.37835 0.55638,0.17196 0.0476,-0.14814 0.18811,-0.59893 0.31215,-1.00175 0.20555,-0.66747 0.27934,-0.72718 0.83243,-0.67349 l 0.60688,0.0589 0.0962,5.19545 c 0.0898,4.85106 0.12458,5.2569 0.52403,6.12233 l 0.42782,0.92687 0.46486,-0.3496 c 0.90891,-0.68358 2.08143,-2.51059 3.68211,-5.73747 0.89249,-1.79917 1.71972,-3.72708 1.83833,-4.28424 0.25292,-1.18813 0.58506,-1.5847 1.32728,-1.5847 1.08468,0 1.11885,0.32647 0.65244,6.23391 -0.14111,1.78715 0.066,1.82441 0.68622,0.12346 0.53261,-1.46074 2.05043,-3.74414 3.18239,-4.78753 0.71828,-0.66209 1.00159,-0.80015 1.64205,-0.80015 0.50306,0 0.9016,0.12761 1.13854,0.36455 0.49314,0.49314 0.78988,2.00312 0.79053,4.02258 0.002,3.16516 0.69758,6.85352 1.37314,7.27104 0.7473,0.46186 3.9278,-5.02749 5.08235,-8.7718 0.61853,-2.00595 1.19105,-2.79113 2.46919,-3.38625 1.61186,-0.75053 3.42092,-0.57063 4.59259,0.4567 0.31775,0.2786 0.33693,0.19314 0.34007,-1.51449 0.0114,-6.10297 1.78989,-12.78378 4.19002,-15.73823 1.07917,-1.3284 2.20372,-1.94652 3.5413,-1.94652 1.03876,0 1.16855,0.0517 1.85602,0.73917 1.61219,1.61218 1.59104,5.02903 -0.0617,9.96809 -1.22491,3.66064 -3.055,6.90688 -5.42721,9.62689 -1.40452,1.61044 -1.39292,1.54521 -0.92425,5.20031 0.47277,3.68709 0.87984,5.44138 1.72641,7.43997 0.47881,1.13041 1.25243,2.21289 1.67804,2.34797 0.88915,0.28221 1.9665,-1.53602 2.9148,-4.91937 0.88688,-3.1642 0.99106,-4.0553 0.7391,-6.32132 -0.33053,-2.97252 -0.29354,-9.3723 0.0692,-11.97308 0.73896,-5.29811 3.21664,-10.21016 5.72435,-11.34864 2.29204,-1.04058 3.86588,0.12353 4.40319,3.2569 0.58658,3.42073 -1.53095,9.37146 -5.89723,16.5725 l -1.69178,2.79015 0.22678,2.50152 c 0.26764,2.95234 0.66946,5.05694 1.19403,6.25379 0.44182,1.00805 1.44587,2.11666 1.91702,2.11666 0.49255,0 1.49574,-1.25509 2.14072,-2.67827 0.44668,-0.98559 0.55982,-1.47978 0.51022,-2.22854 -0.0351,-0.52917 -0.0641,-1.91463 -0.0644,-3.07879 0,-1.96556 0.0417,-2.20661 0.5934,-3.37654 1.06917,-2.26745 2.33091,-3.29417 4.0482,-3.29417 1.57165,0 2.01199,0.87758 1.51521,3.01968 -0.51075,2.20226 -1.97289,4.32174 -3.38488,4.90661 -0.65972,0.27327 -0.64081,0.14567 -0.29194,1.96898 0.30041,1.57013 0.86427,2.92474 1.50268,3.60999 l 0.41271,0.44299 0.97403,-1.04733 c 1.22772,-1.32014 2.05263,-2.8656 2.88373,-5.40274 0.91236,-2.78516 1.34452,-5.28387 1.19401,-6.90344 -0.10941,-1.17709 -0.0849,-1.31792 0.24721,-1.42334 0.77901,-0.24725 1.36299,0.10258 1.87658,1.12417 0.27297,0.54299 1.04851,1.66609 1.72342,2.49578 1.10402,1.35721 1.22709,1.59569 1.22709,2.37753 0,0.47795 -0.12371,1.35775 -0.27489,1.95511 -0.15119,0.59736 -0.37889,1.93451 -0.50598,2.97144 -0.64351,5.25019 1.56094,8.77243 4.3503,6.95087 1.60024,-1.04502 2.69646,-3.1485 3.16821,-6.07929 0.23062,-1.43288 0.20676,-1.66982 -0.29233,-2.90123 -0.10962,-0.27048 -0.0358,-0.33674 0.37498,-0.33674 1.42215,0 1.4182,4.1716 -0.007,7.22308 -1.0663,2.2833 -2.77433,3.43934 -5.08162,3.43934 -4.89652,0 -7.03433,-5.42286 -4.80487,-12.18815 0.47968,-1.45558 0.5402,-1.83017 0.35283,-2.18414 -0.30809,-0.5821 -1.16715,-1.70326 -1.24523,-1.62517 -0.0348,0.0348 -0.23538,0.95096 -0.4457,2.03588 -1.48207,7.64542 -4.20185,11.36209 -7.25451,9.91351 -0.57767,-0.27412 -0.87037,-0.59896 -1.93473,-2.14716 -0.20058,-0.29174 -0.2676,-0.24059 -0.57727,0.44052 -0.7029,1.54598 -1.20594,2.16607 -2.02213,2.49264 -1.0102,0.40421 -1.95208,0.25989 -3.11431,-0.47717 -1.02685,-0.65121 -1.73106,-1.64788 -2.3393,-3.31073 -0.256,-0.69992 -0.48371,-1.08586 -0.54192,-0.91851 -0.0552,0.15875 -0.33455,1.04391 -0.62074,1.96702 -0.95323,3.07459 -2.14411,4.28332 -4.07711,4.1383 -0.76117,-0.0571 -1.19056,-0.21804 -1.73182,-0.64907 -1.65629,-1.31901 -3.09287,-4.29217 -3.84375,-7.95508 l -0.37182,-1.81387 -0.54362,1.43476 c -1.14806,3.03006 -2.30329,4.25367 -4.12596,4.37013 -1.76841,0.11299 -2.61023,-0.6279 -3.40844,-2.99979 l -0.4187,-1.24411 -0.71143,1.42396 c -0.987,1.97549 -1.54848,2.65959 -2.54443,3.10016 -1.51609,0.67063 -2.99545,0.13006 -3.87933,-1.41757 -0.86035,-1.50641 -1.05793,-2.98685 -0.91261,-6.83844 0.0741,-1.965 0.0538,-3.33003 -0.0496,-3.33003 -0.32165,0 -1.94621,1.96433 -2.61793,3.16547 -0.86318,1.54348 -2.05163,5.13349 -2.10529,6.35952 -0.0364,0.83125 -0.10026,0.97068 -0.46938,1.025 -0.98033,0.14427 -1.45592,-0.84796 -2.0286,-4.23206 l -0.41246,-2.43738 -1.23813,2.53359 c -0.9058,1.85348 -1.5008,2.80476 -2.21654,3.54381 -0.90955,0.93918 -1.04255,1.01023 -1.89105,1.01023 -1.14642,0 -1.89555,-0.38123 -2.42154,-1.23229 -0.45253,-0.7322 -0.96276,-2.8584 -0.97415,-4.05938 -0.007,-0.69977 -0.0591,-0.61667 -0.57775,0.91478 -1.13386,3.34832 -2.0591,4.56931 -3.46247,4.56931 -0.50894,0 -0.91892,-0.15041 -1.31237,-0.48148 l -0.57221,-0.48149 -0.21124,1.20308 c -0.53525,3.0485 -1.63064,5.53507 -2.72246,6.18002 -0.80143,0.47342 -2.08661,0.40396 -2.790169,-0.1508 z m 40.997559,-7.56143 c 0.4644,-0.45101 1.13219,-1.53398 1.80944,-2.93447 1.03611,-2.1425 1.073,-2.27314 1.06105,-3.75904 -0.0102,-1.28279 -0.0996,-1.70895 -0.53592,-2.55656 -0.48379,-0.93991 -1.41474,-1.77044 -1.98657,-1.77226 -0.41005,-0.001 -1.41901,0.99572 -1.7083,1.68812 -0.7991,1.9125 -1.22494,5.39617 -0.88261,7.22038 0.26462,1.41012 0.88494,2.82866 1.23696,2.82866 0.14845,0 0.60115,-0.32167 1.00595,-0.71483 z m -32.75097,-0.20823 c 0.40979,-0.45281 1.46019,-2.73863 2.34991,-5.11368 0.76188,-2.03382 0.78676,-2.58196 0.17556,-3.86994 -0.6456,-1.36051 -1.37316,-1.26634 -2.43534,0.31522 -1.25814,1.87333 -1.72854,5.53637 -1.02275,7.96423 0.33074,1.13768 0.45524,1.23168 0.93262,0.70417 z m 57.91034,-4.03187 c 0.91471,-1.39647 1.35748,-2.40498 1.56996,-3.57598 0.14787,-0.81507 -0.0142,-1.86 -0.28858,-1.86 -0.30642,0 -1.30475,1.53843 -1.73007,2.66607 -0.37715,0.99992 -0.76258,4.06878 -0.511,4.06878 0.0599,0 0.49178,-0.58449 0.95969,-1.29887 z m -5.43729,-10.5588 c 1.27027,-2.62746 2.44027,-6.08972 2.72621,-8.06741 0.18821,-1.3018 0.18592,-1.86607 -0.0115,-2.82895 -0.29649,-1.44574 -1.13875,-3.09766 -1.62676,-3.19056 -0.54421,-0.1036 -1.86394,1.41352 -2.67308,3.07285 -1.56347,3.20633 -2.07029,6.35303 -2.07185,12.86357 l -0.002,4.71229 1.35823,-2.30698 c 0.74703,-1.26885 1.782,-3.18351 2.29993,-4.25481 z m -12.02455,2.90994 c 3.70923,-5.20639 5.94876,-13.192 4.56886,-16.2915 -0.36722,-0.82481 -0.8813,-1.31532 -1.37858,-1.31532 -0.10911,0 -0.51976,0.28142 -0.91255,0.62538 -2.07438,1.81642 -3.84749,8.66484 -4.0479,15.63447 l -0.10512,3.65606 0.38927,-0.38485 c 0.21411,-0.21167 0.88281,-1.07757 1.48602,-1.92424 z m -57.301051,-6.72606 c 2.147377,-3.81311 3.340003,-7.45815 3.373735,-10.3112 0.01828,-1.55459 -0.04664,-1.9769 -0.424449,-2.75737 -0.253249,-0.52313 -0.654974,-1.01677 -0.929101,-1.14167 -0.439863,-0.20042 -0.540404,-0.15357 -1.127029,0.52505 -0.766137,0.88629 -1.6505,3.08783 -2.082453,5.18403 -0.463146,2.2476 -0.722072,6.26326 -0.571385,8.86194 0.153862,2.65353 0.0513,2.67455 1.760682,-0.36078 z m -18.30705,26.06607 c -3.861858,-1.23344 -6.902931,-5.67811 -7.890683,-11.53263 -0.403379,-2.39081 -0.404899,-7.86307 -0.0031,-11.01283 0.561437,-4.40075 1.822296,-8.86006 3.391882,-11.99607 2.672099,-5.33886 6.649335,-7.99341 11.605317,-7.7458 2.822921,0.14103 4.723111,1.30394 5.708361,3.49346 0.817245,1.8162 0.490317,7.13871 -0.438496,7.13871 -0.21134,0 -0.292831,-0.5383 -0.378691,-2.50152 -0.12623,-2.88637 -0.329815,-3.74507 -1.192068,-5.02818 -1.459288,-2.17156 -3.940656,-2.75094 -6.588991,-1.5385 -3.8293,1.75311 -7.695699,8.89229 -9.130145,16.85845 -1.664566,9.24423 -0.305243,17.35458 3.571355,21.30824 1.846311,1.88302 3.383492,2.35401 5.552459,1.70124 2.778818,-0.8363 5.175462,-3.42463 9.003665,-9.72383 0.509328,-0.83808 0.821094,-1.16917 1.058334,-1.12395 0.631805,0.12042 0.45466,0.89051 -0.729077,3.16929 -1.497714,2.88319 -2.485005,4.26547 -4.206567,5.88952 -2.805141,2.64623 -6.261658,3.62553 -9.333595,2.6444 z m -61.59444,-3.54422 c -2.1110059,-0.93825 -2.7500719,-3.6622 -2.1175459,-9.02584 0.322581,-2.73541 0.308113,-3.40253 -0.07379,-3.40253 -0.100627,0 -0.66539,0.44092 -1.25503,0.97982 -1.329301,1.2149 -2.2996619,3.09387 -3.0075503,5.82369 -0.4641042,1.78971 -0.5468081,1.95667 -0.9959051,2.01046 -0.3012179,0.0361 -0.6856642,-0.11207 -0.9986192,-0.38485 -0.9487631,-0.82694 -2.4191575,-5.2722 -2.4221805,-7.32268 -7.697e-4,-0.50271 -0.066292,-0.91368 -0.145667,-0.91326 -0.079375,3.8e-4 -0.8156113,1.33378 -1.6360794,2.96305 -1.0022494,1.99025 -1.7117791,3.15549 -2.1622462,3.55101 -1.5747307,1.38263 -3.7739107,1.1778 -5.0295597,-0.46844 l -0.5254298,-0.68887 -0.5367597,1.18246 c -1.1213082,2.4702 -2.5794082,3.5973 -4.4243702,3.42002 -1.210789,-0.11634 -1.867165,-0.58769 -2.456667,-1.76416 -0.570037,-1.13762 -0.746234,-3.25675 -0.41203,-4.95549 0.326534,-1.65973 1.226783,-4.23058 1.897809,-5.41957 l 0.565635,-1.00225 -1.19887,-1.09244 -1.198869,-1.09244 -0.243132,1.09568 c -0.686464,3.0936 -2.820658,7.97726 -4.314621,9.87313 -0.961651,1.22036 -2.459212,2.09717 -3.570166,2.0903 -1.050459,-0.006 -2.198033,-0.61986 -2.710205,-1.44857 l -0.450263,-0.72854 -0.18964,0.46529 c -1.174384,2.88141 -2.50753,4.90985 -3.597248,5.47336 -0.899899,0.46536 -2.360593,0.36912 -3.037078,-0.20011 -1.628857,-1.37059 -1.754918,-5.07539 -0.392106,-11.52371 0.310921,-1.47116 0.534772,-2.76646 0.497445,-2.87844 -0.1017,-0.3051 -1.994758,1.54291 -2.929032,2.85934 -1.58317,2.23075 -2.913714,5.44479 -3.066888,7.40833 -0.05919,0.7587 -0.127317,0.87324 -0.550293,0.92508 -0.714025,0.0875 -1.198947,-0.56156 -1.826856,-2.44529 l -0.55108,-1.65324 -0.344499,1.44241 c -0.448093,1.87616 -1.308414,3.6927 -2.040704,4.30888 -1.287643,1.08348 -2.956282,1.11702 -4.133859,0.0831 -0.81251,-0.71339 -1.831338,-2.77897 -2.403962,-4.87381 -0.231438,-0.84667 -0.46049,-1.66928 -0.509008,-1.82803 -0.04852,-0.15875 -0.39603,0.53113 -0.772253,1.53306 -1.180151,3.14291 -2.031084,4.14345 -3.523884,4.14345 -1.175779,0 -1.834678,-0.46084 -2.556891,-1.78831 -0.677645,-1.24555 -1.087689,-3.15612 -1.102922,-5.13896 l -0.01183,-1.53939 -0.84921,2.08773 c -0.467066,1.14826 -1.06843,2.37515 -1.336362,2.72642 -0.970326,1.27217 -2.730044,1.30022 -3.46546,0.0553 -0.425437,-0.7202 -0.487295,-3.2864 -0.117169,-4.86069 0.568227,-2.41691 1.775843,-4.72297 2.732274,-5.21756 1.037378,-0.53645 2.484076,-0.2042 3.130713,0.719 0.330451,0.47179 0.298325,0.52288 0.806572,-1.28289 0.442633,-1.57265 0.76464,-2.02045 1.45287,-2.02045 0.332186,0 0.608438,0.12315 0.676987,0.30178 0.06369,0.16598 0.0095,2.48229 -0.120315,5.14735 -0.175393,3.59935 -0.181839,5.32745 -0.02506,6.71923 0.202846,1.80077 0.665646,3.418 0.978118,3.418 0.223703,0 1.479669,-1.43915 1.795226,-2.05706 0.151857,-0.29737 0.62758,-1.49965 1.057159,-2.67174 l 0.781052,-2.13107 -0.01472,-4.31514 c -0.0081,-2.37332 0.05043,-5.32331 0.130055,-6.55553 l 0.144771,-2.24039 -0.839588,-0.13005 c -1.36477,-0.21141 -2.639708,-0.6822 -3.259301,-1.20355 -0.602295,-0.50681 -1.332541,-1.74517 -1.332541,-2.25977 0,-0.47005 0.713291,-0.35381 0.838538,0.13665 0.173757,0.68043 1.241504,1.84963 2.079598,2.2772 0.420334,0.21443 1.178379,0.43893 1.684544,0.49888 l 0.920297,0.109 0.134638,-1.5147 c 0.160732,-1.80825 0.839212,-7.25969 0.996992,-8.01062 0.18147,-0.86367 1.285419,-1.21914 1.894526,-0.61003 0.388876,0.38888 0.37791,1.47388 -0.06113,6.04762 -0.187941,1.95792 -0.313738,3.6152 -0.279548,3.68286 0.03419,0.0677 1.37007,-0.27924 2.968617,-0.77088 l 2.906453,-0.89389 0.73411,-2.23668 c 1.312799,-3.99981 3.165913,-7.15218 4.982881,-8.47647 0.663558,-0.48364 1.088554,-0.63463 1.964584,-0.698 1.028383,-0.0744 1.162414,-0.0363 1.674578,0.47586 0.754463,0.75447 0.892279,1.82778 0.514947,4.01038 -0.488358,2.82481 -0.980517,4.48325 -3.169283,10.67955 -1.397862,3.95728 -2.48724,6.33451 -3.72828,8.13581 l -0.898931,1.30475 0.193677,1.29298 c 0.407778,2.72228 0.827138,4.65023 0.989655,4.54979 0.09303,-0.0575 0.169141,-0.2382 0.169141,-0.40156 0,-0.47811 1.423314,-3.37893 2.268773,-4.62392 0.929503,-1.36875 2.279819,-2.79168 3.156381,-3.3261 0.9347,-0.56988 2.340685,-0.53038 2.954046,0.083 0.403606,0.4036 0.472315,0.65244 0.472315,1.71056 0,0.68103 -0.126278,1.91889 -0.28062,2.75079 -0.478091,2.57692 -0.873925,5.79751 -0.873925,7.11046 0,1.31699 0.323642,2.96496 0.582285,2.96496 0.441291,0 2.023913,-2.19529 3.006379,-4.17022 1.106893,-2.22505 1.108475,-2.23075 1.239497,-4.46482 0.147066,-2.50762 0.561561,-4.36334 1.230304,-5.50814 1.177421,-2.01559 3.065578,-2.78796 4.273608,-1.74817 0.505882,0.43543 0.538299,0.55362 0.514556,1.87613 -0.04212,2.34599 -1.136402,4.58998 -2.763331,5.66663 -0.631764,0.41808 -0.771177,0.62115 -0.771177,1.12333 0,0.95975 0.526267,2.49208 1.012896,2.94924 0.414751,0.38964 0.478482,0.39729 1.013703,0.12169 2.387542,-1.22941 5.266468,-6.30257 6.445086,-11.35735 0.289579,-1.24192 0.320665,-1.68225 0.150572,-2.13289 -0.296193,-0.7847 -0.0665,-1.56458 0.502902,-1.70749 0.724162,-0.18176 1.199373,0.19457 1.337649,1.05929 0.09822,0.61423 0.387429,1.03917 1.420788,2.0876 0.713605,0.72401 1.592936,1.53268 1.954068,1.79704 l 0.656603,0.48066 -0.54075,1.1429 c -1.327133,2.80497 -2.079579,5.63086 -2.097607,7.87775 -0.01055,1.31477 0.07153,1.9056 0.34081,2.45341 0.195089,0.39688 0.43118,0.72159 0.52465,0.72159 0.428035,0 1.761904,-1.50149 2.283391,-2.57032 1.317148,-2.69964 1.5709958,-3.68625 1.7398769,-6.76225 0.087159,-1.5875 0.2187537,-3.0403 0.2924329,-3.22845 0.2961794,-0.75632 1.6420754,-0.87547 1.9171285,-0.16972 0.068459,0.17566 0.2065424,1.70484 0.3068512,3.39817 0.190983,3.22399 0.5240213,4.99275 1.1161703,5.92799 l 0.3527925,0.5572 0.7274656,-0.72747 c 0.8327667,-0.83278 2.6678474,-3.59779 4.5236618,-6.81606 l 1.2760556,-2.21288 0.791895,-0.0586 c 1.2185476,-0.0902 1.3618479,0.26879 1.6869371,4.22608 0.1507759,1.83539 0.2785129,3.46697 0.2838584,3.62572 0.00535,0.15875 0.3668068,-0.43362 0.8032442,-1.31637 0.8872528,-1.79459 2.1559601,-3.22995 3.4289651,-3.87939 1.168214,-0.59597 2.8741009,-0.48369 3.5943829,0.23659 0.685569,0.68557 0.756943,1.76708 0.346379,5.24855 -0.200058,1.69644 -0.288571,3.35019 -0.219119,4.09394 0.120956,1.29528 0.764882,2.9295 1.153649,2.92784 0.5694,-0.002 2.11159,-1.7859 3.327011,-3.84753 0.664433,-1.12703 0.749113,-1.42445 0.85602,-3.0066 0.259386,-3.83877 2.575679,-6.61461 5.519553,-6.61461 1.729876,0 2.537135,0.67242 2.541137,2.11667 0.006,2.1501 -2.119193,4.78273 -4.407901,5.4605 l -0.729449,0.21601 0.266446,1.05834 c 0.293099,1.1642 1.032826,2.35057 1.837859,2.94754 l 0.520646,0.38609 0.779698,-0.51598 c 1.198171,-0.79292 2.620652,-2.97477 3.279694,-5.03053 0.292063,-0.91104 0.522443,-1.10045 1.016725,-0.83592 0.448839,0.24021 0.35495,0.97013 -0.37464,2.91252 -0.641862,1.70883 -1.506538,2.97012 -2.523621,3.68116 -1.045268,0.73075 -2.86821,0.9115 -4.171825,0.41365 -0.795695,-0.30388 -2.122626,-1.52865 -2.814499,-2.5978 l -0.3024,-0.4673 -0.626383,1.0948 c -0.957425,1.6734 -2.101539,3.02041 -2.820676,3.32088 -0.806544,0.337 -1.923032,0.33681 -2.681849,-3.8e-4 z m -58.097365,-3.80528 c 0.64942,-0.95406 1.42442,-3.17822 1.934433,-5.5516 0.323417,-1.50503 0.321356,-1.56498 -0.136931,-3.98347 -0.384575,-2.0295 -0.461081,-3.0062 -0.44104,-5.63044 0.01401,-1.83312 0.152863,-3.98494 0.328562,-5.09139 0.167373,-1.05401 0.274586,-1.94612 0.23825,-1.98245 -0.05469,-0.0547 -1.563135,0.36555 -5.305454,1.47806 -0.385402,0.11458 -0.508829,0.31208 -0.62071,0.99326 -0.281523,1.71401 -0.403504,11.36325 -0.166432,13.1654 0.459713,3.49458 1.37897,6.56773 2.243657,7.50074 0.442428,0.47739 0.519226,0.49823 0.90846,0.24656 0.233847,-0.1512 0.69159,-0.6663 1.017205,-1.14467 z m -15.901607,-7.07253 1.39995,-2.85397 -0.523336,-1.16615 c -0.287836,-0.64138 -0.679977,-1.30791 -0.871422,-1.48116 -0.325359,-0.29445 -0.368962,-0.28315 -0.667833,0.17298 -0.429582,0.65563 -1.217942,2.95621 -1.550228,4.52386 -0.286196,1.35022 -0.373722,4.28827 -0.134864,4.52712 0.250975,0.25098 0.915129,-0.80214 2.347733,-3.72268 z m 83.871449,2.77604 c 1.793357,-1.61238 2.60757,-3.72387 1.813908,-4.704 -0.369346,-0.45613 -0.393896,-0.45993 -0.886437,-0.1372 -0.683302,0.44771 -1.460534,1.71734 -1.886331,3.08137 -0.370093,1.18558 -0.468429,2.62869 -0.179125,2.62869 0.09439,0 0.60648,-0.39099 1.137985,-0.86886 z m -46.729179,-3.19229 c 0.612919,-0.84611 1.242131,-2.36048 1.457284,-3.50735 0.164777,-0.87833 -0.04045,-2.05271 -0.358723,-2.05271 -0.54858,0 -1.55605,2.49838 -1.758873,4.36176 -0.06719,0.61728 -0.162554,1.31716 -0.211922,1.55528 -0.138794,0.66947 0.241388,0.51388 0.872234,-0.35698 z m -16.155045,-5.36958 c 1.13361,-1.94101 2.555452,-5.3387 4.226712,-10.10033 1.927935,-5.49293 2.343256,-9.3208 1.130293,-10.4175 -0.391301,-0.35379 -0.40814,-0.34533 -1.35008,0.67875 -1.340858,1.45777 -3.445286,5.95013 -4.08187,8.71362 -0.104866,0.45524 -0.04312,0.53914 0.537932,0.7309 0.717126,0.23667 1.020625,0.68124 0.580393,0.85018 -0.152985,0.0587 -0.505891,0.0202 -0.784232,-0.0857 -0.278342,-0.10583 -0.539194,-0.1593 -0.579671,-0.11882 -0.526494,0.52649 -1.184086,11.52857 -0.670075,11.21089 0.117679,-0.0727 0.563449,-0.73064 0.990598,-1.46202 z m 85.481197,14.75417 c -0.938274,-0.34028 -1.917619,-1.19955 -2.403625,-2.10891 -0.369534,-0.69143 -0.432493,-1.10335 -0.432493,-2.82968 0,-2.19932 0.279471,-3.04745 1.326076,-4.02431 0.490182,-0.45752 0.491885,-0.46848 0.113841,-0.73328 -0.999006,-0.69973 -1.215744,-2.23835 -0.561596,-3.98672 0.481514,-1.28696 1.405029,-2.11691 2.814708,-2.52954 1.433442,-0.41958 2.481596,-0.12321 2.872428,0.81219 0.299836,0.71757 0.221596,1.31959 -0.192135,1.47835 -0.397298,0.15246 -0.660111,-0.11073 -0.928466,-0.92979 -0.31242,-0.95351 -0.736512,-1.05049 -1.626216,-0.37188 -1.257296,0.95898 -1.998389,3.40677 -1.384531,4.573 0.296187,0.56271 0.536173,0.70194 1.221952,0.70895 0.748951,0.008 1.144578,0.26739 0.996199,0.65406 -0.07267,0.18939 -0.344543,0.30806 -0.705762,0.30806 -0.490695,0 -0.682407,0.14957 -1.162989,0.90737 -1.142852,1.80209 -1.304754,3.96039 -0.423608,5.6471 0.673052,1.28837 1.839393,2.00466 2.748289,1.68782 1.200208,-0.4184 2.107719,-2.09672 2.107719,-3.89797 0,-1.06678 -0.347518,-2.56672 -0.635981,-2.745 -0.302183,-0.18675 -1.45542,1.24529 -1.59285,1.97792 -0.07549,0.40234 -0.01174,0.85004 0.174221,1.2227 l 0.293293,0.58793 h -0.565635 c -0.455189,0 -0.62732,-0.12934 -0.881526,-0.66242 -0.598464,-1.25499 0.231966,-2.52575 3.200031,-4.89682 0.981825,-0.78434 1.546148,-1.65627 1.547129,-2.39045 0,-0.49448 0.05473,-0.53613 0.624513,-0.48106 1.37491,0.1329 0.752898,1.80089 -1.254433,3.36389 l -0.53442,0.41612 0.487238,0.71798 c 0.532649,0.78489 1.062663,2.36252 1.062663,3.16307 0,1.65555 -1.195244,3.62314 -2.584123,4.25396 -0.898314,0.408 -2.744049,0.46127 -3.719911,0.10736 z M -8.7692882,158.34791 c -0.4196869,-0.16934 -0.2599017,-0.64441 0.2866332,-0.85221 0.5906462,-0.22456 1.6984152,-0.0808 1.9007878,0.2466 0.3105381,0.50246 -1.3225395,0.9546 -2.187421,0.60561 z"
       id="path408" />
  </g>
</svg>
