<?xml version="1.0" encoding="UTF-8" standalone="no"?>
<!-- Created with Inkscape (http://www.inkscape.org/) -->

<svg
   width="40.927967mm"
   height="19.073578mm"
   viewBox="0 0 40.927967 19.073578"
   version="1.1"
   id="svg5"
   inkscape:version="1.1 (c4e8f9e, 2021-05-24)"
   sodipodi:docname="website embellishment.svg"
   xmlns:inkscape="http://www.inkscape.org/namespaces/inkscape"
   xmlns:sodipodi="http://sodipodi.sourceforge.net/DTD/sodipodi-0.dtd"
   xmlns="http://www.w3.org/2000/svg"
   xmlns:svg="http://www.w3.org/2000/svg">
  <sodipodi:namedview
     id="namedview7"
     pagecolor="#ffffff"
     bordercolor="#666666"
     borderopacity="1.0"
     inkscape:pageshadow="2"
     inkscape:pageopacity="0.0"
     inkscape:pagecheckerboard="0"
     inkscape:document-units="mm"
     showgrid="false"
     fit-margin-top="5"
     fit-margin-right="5"
     fit-margin-bottom="5"
     fit-margin-left="5"
     inkscape:zoom="1.5428183"
     inkscape:cx="93.335682"
     inkscape:cy="63.520117"
     inkscape:window-width="1435"
     inkscape:window-height="762"
     inkscape:window-x="0"
     inkscape:window-y="25"
     inkscape:window-maximized="0"
     inkscape:current-layer="layer1" />
  <defs
     id="defs2" />
  <g
     inkscape:label="Layer 1"
     inkscape:groupmode="layer"
     id="layer1"
     transform="translate(-95.29702,-136.20263)">
    <path
       style="fill:#c3bfbe;stroke-width:0.0962121"
       d="m 105.45295,150.13987 c -1.13348,-0.30526 -1.87372,-0.87109 -2.22895,-1.70377 -0.10723,-0.25135 -0.25185,-0.45701 -0.32137,-0.45701 -0.0695,0 -0.42824,-0.14574 -0.79717,-0.32388 -1.16009,-0.56016 -1.81679,-1.40337 -1.80836,-2.32195 0.0131,-1.42151 1.26728,-2.60528 3.28024,-3.09597 1.00913,-0.246 3.26564,-0.21588 4.49599,0.06 1.84554,0.41382 3.67126,1.22253 5.4661,2.42125 l 0.84793,0.5663 1.24362,-0.45685 c 0.684,-0.25127 1.24411,-0.48014 1.2447,-0.50861 0.002,-0.12121 -2.81429,-1.70366 -3.70304,-2.08034 -1.85207,-0.78498 -2.79348,-0.87968 -3.77922,-0.38017 -0.58793,0.29793 -0.91563,0.32915 -0.87014,0.0829 0.0174,-0.0941 0.28586,-0.29574 0.60838,-0.457 0.53593,-0.26797 0.64962,-0.2881 1.5875,-0.28106 0.89564,0.007 1.12646,0.047 2.03491,0.35492 1.22379,0.41482 2.65355,1.0918 4.00834,1.89793 l 0.99211,0.59033 1.5094,-0.38177 c 2.2606,-0.57176 3.52599,-0.7226 5.57465,-0.6645 1.83522,0.0521 2.80758,0.23527 4.1609,0.78406 1.73173,0.70224 2.59608,1.92354 2.07478,2.9316 -0.19617,0.37935 -0.87147,0.96341 -1.36771,1.18293 -0.48368,0.21395 -1.56661,0.46058 -2.0332,0.46305 -0.2338,0.001 -0.40697,0.0928 -0.66634,0.35211 -0.41359,0.41359 -1.28981,0.83079 -2.09655,0.99824 -0.72736,0.15098 -2.40605,0.15218 -3.21467,0.002 -1.46828,-0.27214 -3.24703,-1.0406 -4.8019,-2.07451 l -0.66397,-0.44152 -1.43246,0.63739 c -3.20131,1.42446 -4.91107,2.05832 -6.22366,2.30731 -0.94249,0.17879 -2.44983,0.17699 -3.12084,-0.004 z m 3.06417,-0.51276 c 0.9904,-0.25719 2.31643,-0.76498 4.95241,-1.89647 l 2.21381,-0.95027 -0.57096,-0.42033 -0.57097,-0.42032 -1.40601,0.55227 c -1.93047,0.75827 -3.42761,1.25318 -4.48202,1.48162 -1.21291,0.26279 -3.02238,0.41958 -3.92342,0.33997 -0.41011,-0.0362 -0.74565,-0.0376 -0.74565,-0.003 0,0.15204 0.2941,0.60352 0.54463,0.83611 0.32886,0.30529 0.76472,0.53361 1.25622,0.65805 0.52203,0.13216 1.87864,0.0439 2.73196,-0.17765 z m 16.48954,-0.39695 c 0.56046,-0.21464 1.44748,-0.74968 1.37049,-0.82666 -0.0209,-0.021 -0.41688,-0.10416 -0.87984,-0.18489 -1.31294,-0.22896 -2.79648,-0.75512 -4.40352,-1.56179 -0.81125,-0.40722 -1.53995,-0.72686 -1.61932,-0.71031 -0.4317,0.09 -2.68396,1.00879 -2.64145,1.07757 0.098,0.15855 1.64281,1.1275 2.40092,1.50591 1.52234,0.75989 2.49894,0.98961 4.0409,0.95052 0.92355,-0.0234 1.27005,-0.0735 1.73182,-0.25035 z m -17.12576,-1.63441 c 1.12055,-0.25248 2.34506,-0.65853 4.13713,-1.37188 0.79375,-0.31597 1.5483,-0.615 1.67679,-0.66452 0.21935,-0.0845 0.17681,-0.12803 -0.69628,-0.71188 -1.08141,-0.72316 -2.48068,-1.48703 -3.35175,-1.82975 -2.26213,-0.89001 -4.94382,-0.94898 -6.67726,-0.14683 -2.23946,1.03631 -2.48804,3.29192 -0.48915,4.43839 0.27154,0.15574 0.52065,0.28357 0.55357,0.28406 0.0329,4.8e-4 0.0862,-0.16361 0.11832,-0.36469 0.17232,-1.07761 1.24787,-2.36975 2.43998,-2.93135 0.56734,-0.26727 0.75407,-0.3073 1.42275,-0.30498 1.10629,0.004 1.76265,0.38263 2.11207,1.2189 0.20408,0.48843 0.18699,0.82389 -0.0676,1.32647 -0.23021,0.45452 -0.49842,0.59169 -0.93806,0.47974 -0.18646,-0.0475 -0.24754,-0.13314 -0.27169,-0.38104 -0.0303,-0.31087 -0.0228,-0.31813 0.26765,-0.26004 0.25797,0.0516 0.31153,0.0263 0.39195,-0.18524 0.14281,-0.37563 0.11229,-0.70943 -0.1061,-1.16059 -0.42249,-0.87274 -1.24195,-1.03242 -2.37897,-0.46359 -1.13336,0.56699 -2.01576,1.71175 -2.11492,2.74372 -0.0371,0.38572 -0.0158,0.46588 0.13576,0.51068 0.40057,0.11843 2.98304,-0.0334 3.83578,-0.22558 z m 18.93573,0.0166 c 0.13497,-0.67483 -0.29804,-1.46144 -1.07694,-1.95639 -1.03944,-0.6605 -2.39379,-0.76374 -4.23187,-0.32257 l -1.09354,0.26247 0.51626,0.28552 c 1.04001,0.57516 1.97651,1.02124 2.68105,1.27704 0.97584,0.35431 2.37595,0.7139 2.80217,0.71968 0.3069,0.004 0.35527,-0.0277 0.40287,-0.26575 z m 1.80796,-0.0274 c 1.29442,-0.47091 1.88474,-1.55173 1.31185,-2.40186 -0.88921,-1.3195 -3.8124,-2.0589 -6.85402,-1.73367 -1.14011,0.1219 -2.74002,0.45263 -3.89406,0.80497 l -0.71907,0.21953 0.68464,0.39472 0.68463,0.39472 0.94844,-0.23707 c 1.17085,-0.29265 2.93374,-0.39748 3.80786,-0.22642 0.8146,0.1594 1.88619,0.66714 2.31676,1.09772 0.48971,0.4897 0.67067,0.88469 0.67931,1.48275 0.008,0.58663 -0.008,0.58344 1.03366,0.20461 z m -11.96124,-1.20332 c 0.19674,-0.0848 0.80072,-0.31416 1.34219,-0.50965 l 0.98449,-0.35544 -0.63605,-0.36582 c -0.74343,-0.42758 -0.70975,-0.43001 -2.23804,0.16146 l -1.09755,0.42477 0.52027,0.39392 c 0.59484,0.45037 0.63888,0.46019 1.12469,0.25076 z"
       id="path39" />
  </g>
</svg>
