<?xml version="1.0" encoding="UTF-8" standalone="no"?>
<!-- Created with Inkscape (http://www.inkscape.org/) -->

<svg
   width="239.66103mm"
   height="272.13602mm"
   viewBox="0 0 239.66103 272.13602"
   version="1.1"
   id="svg5"
   inkscape:version="1.1 (c4e8f9e, 2021-05-24)"
   sodipodi:docname="thicccc-kc.svg"
   xmlns:inkscape="http://www.inkscape.org/namespaces/inkscape"
   xmlns:sodipodi="http://sodipodi.sourceforge.net/DTD/sodipodi-0.dtd"
   xmlns="http://www.w3.org/2000/svg"
   xmlns:svg="http://www.w3.org/2000/svg">
  <sodipodi:namedview
     id="namedview7"
     pagecolor="#ffffff"
     bordercolor="#666666"
     borderopacity="1.0"
     inkscape:pageshadow="2"
     inkscape:pageopacity="0.0"
     inkscape:pagecheckerboard="0"
     inkscape:document-units="mm"
     showgrid="false"
     fit-margin-top="5"
     fit-margin-right="5"
     fit-margin-bottom="5"
     fit-margin-left="5"
     inkscape:zoom="0.17656261"
     inkscape:cx="976.99054"
     inkscape:cy="11.327427"
     inkscape:window-width="1422"
     inkscape:window-height="698"
     inkscape:window-x="0"
     inkscape:window-y="25"
     inkscape:window-maximized="0"
     inkscape:current-layer="layer1" />
  <defs
     id="defs2" />
  <g
     inkscape:label="Layer 1"
     inkscape:groupmode="layer"
     id="layer1"
     transform="translate(81.445596,-182.68414)">
    <path
       style="fill:#666;stroke-width:0.192424"
       d="m -4.2494378,449.45841 c -5.0341491,-1.32054 -8.3899432,-4.00948 -10.3770272,-8.31495 -1.683401,-3.64748 -2.038587,-8.33407 -0.938303,-12.38064 1.112283,-4.09071 3.826983,-8.21849 6.6407451,-10.09744 1.8240317,-1.21804 2.7752847,-1.26779 3.3405425,-0.1747 0.4212513,0.81461 0.1075574,1.51817 -0.9369752,2.10148 -2.7734221,1.54881 -5.5614604,5.83748 -6.4195694,9.87483 -0.459836,2.16348 -0.26896,5.93685 0.400483,7.91704 1.460427,4.31993 4.4112376,7.00921 8.994348,8.19722 1.9911039,0.51612 4.30820793,0.43501 5.9579089,-0.20853 3.044711,-1.18776 6.01832,-4.57748 7.301534,-8.32327 1.9837841,-5.7908 0.6064261,-12.24755 -3.80766,-17.84951 -0.54205,-0.68791 -2.368677,-2.99793 -4.059172,-5.13337 -4.0488181,-5.11449 -4.6925599,-6.03758 -5.6992697,-8.17247 -1.3927204,-2.95348 -1.7933958,-6.09442 -1.1785792,-9.23896 0.6273473,-3.20866 1.6388792,-5.17758 3.7516489,-7.30254 1.54967903,-1.5586 2.778029,-2.3028 4.572352,-2.77016 4.230618,-1.10194 9.2263021,1.14352 11.2862071,5.0729 1.02174,1.94905 1.356672,3.43071 1.332979,5.89688 -0.04201,4.37236 -1.537499,7.52298 -3.280023,6.91016 -0.851276,-0.29939 -0.974344,-1.03876 -0.372391,-2.23725 0.730011,-1.45346 0.960387,-2.79895 0.861752,-5.03303 -0.06179,-1.3996 -0.207852,-2.2626 -0.518171,-3.06163 -1.169932,-3.0124 -3.7545071,-4.78643 -7.0384571,-4.83113 -1.33046,-0.0181 -1.692214,0.054 -2.665353,0.5317 -2.18885497,1.07438 -4.074512,3.58633 -4.857207,6.47042 -0.464832,1.71283 -0.4669621,4.90026 -0.0043,6.438 0.746064,2.47967 1.59567403,3.78704 6.354861,9.77863 5.9662021,7.51118 8.2199631,11.78212 8.9584791,16.97655 1.188701,8.36083 -4.0378431,17.21574 -11.2424361,19.04711 -1.58540797,0.403 -4.6584789,0.36272 -6.3589434,-0.0833 z M 50.408332,439.10959 c -1.226158,-0.31148 -2.108186,-1.82803 -2.382454,-4.0964 -0.172597,-1.42747 0.0096,-9.71156 0.255988,-11.63825 0.06767,-0.52916 0.18667,-2.29379 0.264452,-3.92137 0.13255,-2.77362 0.169316,-2.98186 0.58607,-3.31932 0.605777,-0.49053 1.097125,-0.45214 1.680578,0.13131 0.486587,0.48659 0.490466,0.51518 0.39831,2.93447 -0.05118,1.3437 -0.237209,4.43469 -0.413387,6.86885 -0.441417,6.09881 -0.206097,10.48712 0.562362,10.48712 0.454314,0 1.240981,-1.14931 1.556343,-2.27378 0.48746,-1.73813 1.375067,-2.2228 2.327127,-1.27075 0.437645,0.43763 0.482051,0.60085 0.375329,1.37947 -0.279625,2.04009 -1.842354,4.24305 -3.294496,4.64422 -0.796797,0.22013 -1.270234,0.23851 -1.916222,0.0744 z m -27.71711,-0.35468 c -0.926298,-0.48175 -1.427969,-1.05367 -2.029102,-2.31324 -0.668338,-1.40037 -1.236411,-3.71258 -1.532007,-6.23567 -0.263704,-2.25088 -0.486928,-11.22291 -0.303545,-12.20042 0.256278,-1.36608 1.274795,-1.85617 2.113834,-1.01714 0.432729,0.43275 0.447534,0.56721 0.55611,5.05114 0.158297,6.53746 0.713464,10.62278 1.751768,12.89073 0.613012,1.339 0.946256,1.32805 1.774685,-0.0583 0.992503,-1.66091 1.773678,-4.47907 2.946889,-10.63117 0.292101,-1.53173 0.48507,-2.1019 0.797758,-2.35719 0.536954,-0.43838 1.368136,-0.42872 1.925218,0.0224 0.416169,0.33699 0.452672,0.54737 0.592591,3.41553 0.302112,6.19282 0.821742,8.66913 2.084013,9.93141 0.399164,0.39917 0.819028,0.72575 0.933028,0.72575 0.394953,0 1.193373,-1.06324 1.587336,-2.11384 0.668836,-1.78358 0.925067,-3.02248 1.149058,-5.5558 0.210424,-2.37989 0.136342,-9.55027 -0.117889,-11.41051 -0.10281,-0.75228 -0.05783,-0.9607 0.280335,-1.29886 0.22154,-0.22154 0.609683,-0.40281 0.862542,-0.40281 1.389461,0 1.829408,1.69395 1.983042,7.63544 0.157745,6.10048 -0.333166,9.86212 -1.655982,12.68907 -1.022456,2.18505 -2.445449,3.34774 -4.087097,3.33944 -2.133115,-0.0108 -3.873457,-1.723 -4.881605,-4.80277 -0.325068,-0.99305 -0.356294,-1.0268 -0.533884,-0.57727 -0.572261,1.44855 -1.529991,3.35528 -1.984897,3.9517 -1.092217,1.43196 -2.90641,2.00152 -4.212199,1.32239 z m 43.02021,-0.0341 c -0.694709,-0.56496 -1.06324,-3.58142 -1.839537,-15.0572 -0.161079,-2.38125 -0.344151,-4.82744 -0.406805,-5.43598 l -0.113934,-1.10644 h -1.013479 c -1.252663,0 -2.027517,-0.51478 -2.027517,-1.34697 0,-0.79468 0.779915,-1.34697 1.902095,-1.34695 l 0.888057,2e-5 0.0037,-5.05116 c 0.0054,-7.46527 0.634307,-10.68949 2.463126,-12.62674 2.527493,-2.67735 7.058256,-0.53483 7.058256,3.33773 0,1.59699 -0.537364,2.40983 -1.593138,2.40983 -0.782378,0 -1.155007,-0.6144 -1.126355,-1.85715 0.02859,-1.24031 -0.293428,-1.90267 -1.068263,-2.19725 -0.760807,-0.28925 -1.178675,-0.0459 -1.705032,0.99279 -1.110096,2.19066 -1.501448,5.49591 -1.313738,11.09532 l 0.130637,3.89659 h 1.326245 c 1.151525,0 1.388437,0.0622 1.798551,0.4723 0.542328,0.54235 0.603616,1.17883 0.172758,1.79397 -0.260215,0.37152 -0.473479,0.42767 -1.624253,0.42767 -0.728575,0 -1.364249,0.0649 -1.412605,0.14432 -0.04836,0.0794 0.112068,2.26579 0.356485,4.85871 0.244437,2.59291 0.584373,6.40291 0.755438,8.46666 0.171066,2.06375 0.408632,4.49378 0.527936,5.40008 0.256155,1.94614 0.147955,2.53648 -0.520777,2.84118 -0.686628,0.31285 -1.134014,0.28206 -1.617769,-0.11133 z m 15.960397,-0.2749 c -1.480897,-0.76621 -2.523951,-2.79075 -2.890269,-5.60992 -0.09856,-0.75855 -0.18188,-4.56141 -0.185151,-8.45079 l -0.0059,-7.07159 h -1.163301 c -0.978535,0 -1.238288,-0.075 -1.635606,-0.4723 -1.052252,-1.05228 -0.356677,-2.06899 1.519959,-2.22164 l 1.182736,-0.0962 0.12344,-1.15455 c 0.06789,-0.635 0.138122,-2.88636 0.156075,-5.00303 0.04276,-5.03876 0.311266,-11.64699 0.490932,-12.08174 0.07814,-0.18911 0.393893,-0.47405 0.701637,-0.63321 1.075632,-0.55622 2.228272,0.48969 1.879561,1.70554 -0.09292,0.32404 -0.173586,4.27588 -0.179243,8.78185 l -0.0102,8.19272 0.663921,-0.0613 c 1.492385,-0.13785 2.471574,1.03099 1.713884,2.04584 -0.40715,0.54534 -0.929082,0.75599 -1.948584,0.78645 l -0.642004,0.0192 0.07747,7.84129 c 0.07372,7.462 0.09806,7.90377 0.503247,9.13315 0.526126,1.59627 0.984827,1.99619 1.803843,1.57266 0.309168,-0.15986 0.732328,-0.57916 0.940358,-0.93173 0.52576,-0.89108 1.355667,-1.21813 2.007446,-0.79106 1.957507,1.28262 -0.222538,4.5648 -3.22147,4.85011 -0.817553,0.0778 -1.190202,0.008 -1.88264,-0.34969 z M 48.852173,413.18522 c -0.522498,-0.52251 -0.582382,-0.88329 -0.251085,-1.51269 0.298234,-0.56661 0.537002,-0.70252 1.240234,-0.706 1.176199,-0.006 1.676082,1.43746 0.787119,2.2726 -0.583463,0.54814 -1.192707,0.52963 -1.776268,-0.0539 z M -28.18506,412.8728 c -0.967505,-0.58984 -4.284374,-3.11747 -6.369929,-4.85423 -16.469854,-13.71544 -28.716731,-31.9663 -35.66301,-53.14665 -11.269799,-34.36347 -7.097314,-73.13978 11.3277,-105.27212 16.964611,-29.58548 44.400218,-50.86474 75.616369,-58.64862 9.184954,-2.29031 17.122927,-3.27047 26.458333,-3.26703 7.605764,0.003 13.127466,0.5193 20.396969,1.90791 13.49171,2.57718 26.894285,8.07814 38.578078,15.83402 16.93532,11.24193 30.83477,27.64164 39.65444,46.78751 10.56452,22.9336 13.9249,49.38358 9.50486,74.814 -4.80934,27.67026 -17.76247,52.54535 -37.34768,71.72213 -4.5604,4.46528 -11.94114,10.64168 -14.797643,12.38304 -1.20548,0.73489 -2.77374,0.3892 -3.35774,-0.74016 -0.72221,-1.39658 -0.20295,-2.19017 3.02471,-4.62286 16.101833,-12.13581 28.782283,-27.80385 37.610753,-46.47206 6.91997,-14.6326 11.02402,-30.77512 11.98581,-47.14394 1.67302,-28.47351 -6.4276,-56.33801 -22.71185,-78.12424 -3.20329,-4.28556 -5.88412,-7.3545 -10.18018,-11.65395 -8.66991,-8.67675 -16.972863,-14.62309 -27.814316,-19.91981 -17.7175,-8.6561 -36.837172,-11.85061 -56.837894,-9.49647 -30.77482807,3.62229 -59.608744,21.18964 -78.842605,48.03563 -20.987303,29.29339 -28.700956,66.44085 -21.029339,101.27323 2.063131,9.36748 5.737776,19.61274 9.972873,27.8053 7.626473,14.753 16.87657,26.05303 29.839241,36.45196 3.254413,2.61076 4.233333,3.69045 4.233333,4.66912 0,0.84603 -0.492522,1.62612 -1.177413,1.86488 -0.877853,0.30601 -1.333013,0.26506 -2.07387,-0.18659 z m 22.8309916,-36.16048 c -0.794358,-0.23909 -2.3283833,-1.43372 -2.8962734,-2.25548 -0.8877127,-1.28461 -1.6646833,-3.26481 -2.5346972,-6.46001 -0.467073,-1.71537 -1.035176,-3.71723 -1.262455,-4.44858 -0.227278,-0.73135 -0.7468,-2.84057 -1.154491,-4.68718 -0.407693,-1.8466 -0.785145,-3.40133 -0.838781,-3.45498 -0.05364,-0.0536 -1.065301,0.31097 -2.248143,0.81026 -5.580379,2.35544 -10.285558,3.42628 -15.09108,3.4345 -2.965215,0.005 -4.568573,-0.26483 -6.760839,-1.13807 -2.940087,-1.17114 -5.015711,-2.95308 -6.09599,-5.2335 -0.561864,-1.18606 -0.612845,-1.45386 -0.612591,-3.21797 1.93e-4,-1.72327 0.05945,-2.05249 0.566809,-3.15221 1.764407,-3.8244 5.569058,-6.61936 10.35688,-7.6083 3.918547,-0.8094 8.595726,0.0972 15.149518,2.93643 1.825063,0.79067 2.61576,1.05092 2.658355,0.87503 0.03334,-0.1377 -0.116061,-1.70446 -0.332011,-3.48171 -0.771394,-6.3485 -1.43337,-14.60363 -1.748159,-21.8003 -0.353839,-8.08945 -0.164278,-23.64608 0.385707,-31.65378 0.948684,-13.81263 1.395516,-17.13624 5.480794,-40.76697 0.582923,-3.37184 1.05986,-6.24299 1.05986,-6.38034 0,-0.13735 -1.407103,0.6877 -3.126894,1.83345 -2.843501,1.89437 -6.60588,4.03159 -14.383712,8.17065 -4.792226,2.55024 -6.169781,3.56031 -7.575196,5.55437 -1.445937,2.05155 -1.568305,2.87705 -0.698894,4.71483 0.715789,1.51305 0.731285,2.13328 0.06982,2.79473 -0.745985,0.74599 -2.03616,0.71388 -3.129145,-0.0779 -2.115191,-1.53223 -2.962329,-4.86556 -1.965466,-7.73372 0.813,-2.33915 3.232577,-5.37274 5.791381,-7.26105 0.689541,-0.50885 4.197802,-2.59274 7.796135,-4.63085 3.598334,-2.03811 7.235152,-4.13504 8.081818,-4.65984 2.973413,-1.84305 6.734989,-4.83579 9.621212,-7.65472 1.5875002,-1.55048 3.1004608,-2.96281 3.3621347,-3.13851 0.7500735,-0.50364 2.1645148,-0.42071 2.8640442,0.1679 0.9784504,0.82331 1.0716568,1.45305 0.7206307,4.86881 -0.1703724,1.65786 -0.5242078,5.61202 -0.7863012,8.78702 -0.2620914,3.175 -0.7408718,7.8942 -1.063954,10.48712 -0.5360304,4.30195 -0.7894532,6.65603 -1.9161317,17.79924 -1.1851467,11.72146 -1.7041245,33.18319 -1.1539739,47.7212 0.3658369,9.66741 1.405686,24.65143 1.7346968,24.99662 0.2503054,0.26262 7.45076233,-7.05437 10.2071993,-10.37238 7.7751191,-9.35917 13.8009941,-18.60505 19.5012251,-29.92196 8.438478,-16.75326 13.955608,-30.39396 16.643536,-41.14992 1.481423,-5.92804 2.868634,-13.76023 4.232737,-23.898 0.607072,-4.51165 1.29681,-7.69592 1.884147,-8.69842 0.771964,-1.31762 1.495071,-1.18746 1.955727,0.35204 0.370026,1.23662 0.405045,10.38334 0.05446,14.22385 -0.43445,4.75916 -1.195667,11.08321 -1.674953,13.91516 -2.15769,12.74916 -7.063432,26.89119 -15.551158,44.83005 -3.892703,8.22725 -7.28456,14.27056 -11.956637,21.30326 -6.910496,10.40211 -13.7956331,18.51035 -21.224217,24.99454 -1.1950662,1.04316 -2.1433982,1.92608 -2.1074053,1.96208 0.035995,0.036 2.875482,1.74496 6.3099722,3.79768 13.1481651,7.85845 19.2058281,10.4121 26.8281991,11.30964 2.437688,0.28704 5.909477,0.1139 7.798902,-0.38893 2.105479,-0.56034 4.795151,-1.95968 6.114525,-3.18119 1.40059,-1.29669 2.061252,-2.49857 2.625088,-4.77561 0.513205,-2.07254 0.86831,-2.83679 1.57719,-3.3944 1.076428,-0.84672 2.646395,-0.25319 3.537742,1.33743 0.410741,0.73298 0.479877,1.09755 0.472969,2.49406 -0.02984,6.03091 -5.830494,11.68044 -14.136273,13.76802 -1.604174,0.40318 -2.65217,0.5283 -5.098059,0.6086 -9.021145,0.29617 -17.745178,-2.88464 -31.74999907,-11.57613 -1.90500023,-1.18226 -3.58476573,-2.2225 -3.73281113,-2.31165 -0.2233468,-0.13451 -0.2466263,0.0148 -0.1367271,0.87718 0.2142355,1.68102 2.1908808,9.43733 2.9144532,11.43622 1.00866303,2.78647 0.89344003,4.84055 -0.356602,6.35706 -0.8950306,1.08583 -1.9736916,1.43198 -3.2578463,1.0455 z M -26.761807,352.56874 c 2.853749,-0.65107 5.747059,-1.58816 7.724576,-2.50183 l 1.503395,-0.69461 -0.861714,-0.49272 c -3.222479,-1.84262 -8.346172,-4.09802 -10.420559,-4.58705 -1.606085,-0.37863 -4.058997,-0.37063 -5.367213,0.0175 -3.086798,0.91586 -5.567122,3.24785 -5.567122,5.23419 0,1.25894 1.853789,2.61911 4.630786,3.39773 1.632743,0.4578 5.465601,0.28664 8.357851,-0.37322 z m 111.028785,17.86618 c -6.011121,-0.91363 -10.596245,-3.15593 -14.874913,-7.27439 -9.185256,-8.84131 -14.262042,-21.8722 -16.048699,-41.19316 -0.383488,-4.14706 -0.32223,-17.10745 0.104138,-22.03257 1.260685,-14.56255 3.870419,-27.3156 7.973829,-38.9659 2.479214,-7.03892 5.77875,-13.43607 9.544397,-18.50469 1.896879,-2.55325 5.58594,-6.28619 7.913369,-8.0075 3.138825,-2.32141 7.440488,-4.25397 11.064398,-4.97078 0.70579,-0.13961 2.46643,-0.23971 4.04091,-0.22974 2.32046,0.0147 3.10028,0.0988 4.63238,0.49967 4.037653,1.05642 7.120373,2.83116 10.088073,5.80782 4.1417,4.15418 7.05978,10.20361 8.49555,17.61203 0.48506,2.50287 0.49576,7.14916 0.02,8.68602 -0.4302,1.3897 -1.27529,2.33239 -2.01476,2.24747 -0.49863,-0.0573 -0.53898,-0.12804 -0.58391,-1.02364 -0.10664,-2.12578 -0.67987,-6.00571 -1.20204,-8.13587 -2.60909,-10.64399 -8.03174,-17.85769 -15.052503,-20.0242 -2.14512,-0.66196 -4.36399,-0.87713 -6.38234,-0.61892 -7.87762,1.00778 -15.245352,7.36202 -20.435476,17.6244 -5.48919,10.85372 -9.2776,27.45044 -10.891578,47.7152 -0.322349,4.04745 -0.319886,16.46535 0.004,20.10833 1.624773,18.2752 5.885219,30.56666 13.290242,38.34251 3.306137,3.47168 6.974166,5.37596 11.40714,5.92204 2.24307,0.27633 4.922192,0.0248 7.407872,-0.69553 6.03196,-1.748 13.137403,-7.67544 17.397233,-14.51296 1.86513,-2.99378 2.80037,-5.38086 4.78723,-12.21894 1.35622,-4.66762 2.02936,-5.86894 3.28856,-5.86894 1.56832,0 1.77402,0.56825 1.74581,4.82244 -0.0273,4.11791 -0.43216,6.76461 -1.56012,10.19962 -3.01138,9.17067 -10.04976,17.36688 -18.572423,21.62761 -4.413,2.20619 -7.41041,2.97413 -12.026514,3.08116 -1.640416,0.038 -3.242348,0.0297 -3.559848,-0.0187 z"
       id="path131" />
  </g>
</svg>
