<?xml version="1.0" encoding="UTF-8" standalone="no"?>
<!-- Created with Inkscape (http://www.inkscape.org/) -->

<svg
   width="297.48441mm"
   height="42.645218mm"
   viewBox="0 0 297.48441 42.645218"
   version="1.1"
   id="svg5"
   inkscape:version="1.1 (c4e8f9e, 2021-05-24)"
   sodipodi:docname="Ceremony and Reception.svg"
   xmlns:inkscape="http://www.inkscape.org/namespaces/inkscape"
   xmlns:sodipodi="http://sodipodi.sourceforge.net/DTD/sodipodi-0.dtd"
   xmlns="http://www.w3.org/2000/svg"
   xmlns:svg="http://www.w3.org/2000/svg">
  <sodipodi:namedview
     id="namedview7"
     pagecolor="#ffffff"
     bordercolor="#666666"
     borderopacity="1.0"
     inkscape:pageshadow="2"
     inkscape:pageopacity="0.0"
     inkscape:pagecheckerboard="0"
     inkscape:document-units="mm"
     showgrid="false"
     inkscape:zoom="0.34602191"
     inkscape:cx="-332.3489"
     inkscape:cy="60.689799"
     inkscape:window-width="1267"
     inkscape:window-height="768"
     inkscape:window-x="0"
     inkscape:window-y="25"
     inkscape:window-maximized="0"
     inkscape:current-layer="layer1"
     fit-margin-top="5"
     fit-margin-right="5"
     fit-margin-bottom="5"
     fit-margin-left="5" />
  <defs
     id="defs2" />
  <g
     inkscape:label="Layer 1"
     inkscape:groupmode="layer"
     id="layer1"
     transform="translate(19.321573,-189.74555)">
    <path
       style="fill:#881b16;stroke-width:0.192424"
       d="m 195.1751,227.15829 c -0.91057,-0.52909 -2.13922,-4.41981 -2.45223,-7.76548 -0.30024,-3.20915 -0.37592,-3.75331 -0.52017,-3.74051 -0.0729,0.007 -0.39233,0.36965 -0.70987,0.80706 -1.16605,1.60627 -2.54117,1.86789 -3.44397,0.65525 -0.36045,-0.48416 -0.40203,-0.78742 -0.38231,-2.78858 0.0121,-1.23494 0.11446,-2.5917 0.22731,-3.01503 0.11286,-0.42334 0.26451,-1.35419 0.33703,-2.06856 0.12139,-1.19584 0.10272,-1.29887 -0.23535,-1.29887 -0.20197,0 -0.72321,0.36801 -1.15835,0.81781 -1.83773,1.89967 -3.45693,5.30461 -3.6602,7.69697 -0.10255,1.20707 -0.14257,1.29886 -0.56633,1.29886 -0.57344,0 -1.02258,-0.71212 -1.79564,-2.84709 -0.37767,-1.043 -0.62138,-2.16021 -0.70308,-3.22311 -0.11673,-1.51838 -0.2622,-1.89895 -0.5487,-1.43539 -0.0651,0.10528 -0.30345,0.29051 -0.52978,0.41162 -0.32327,0.17301 -0.2739,0.0465 0.23021,-0.59001 0.35295,-0.44564 0.83846,-1.29427 1.07889,-1.88584 0.46632,-1.14736 0.83789,-1.49101 1.41432,-1.30806 0.32845,0.10426 0.35633,0.33495 0.33285,2.75379 -0.0239,2.46258 0.28494,4.9172 0.6468,5.14084 0.075,0.0464 0.2434,-0.27295 0.37421,-0.70956 0.34482,-1.15093 1.63558,-3.54005 2.55976,-4.73795 1.43052,-1.85422 2.91721,-2.46005 3.82039,-1.55687 0.3941,0.39411 0.40013,0.50075 0.26412,4.6879 -0.15881,4.8895 -0.0963,5.12397 1.02397,3.84146 1.58238,-1.81156 1.56419,-1.7678 1.76734,-4.25421 0.23435,-2.86841 0.41983,-3.77136 1.39573,-6.7951 0.90949,-2.81795 1.5519,-4.16804 2.63563,-5.53906 1.26873,-1.60505 2.3861,-2.09537 3.11473,-1.36673 0.34933,0.34932 0.39646,0.56447 0.30908,1.41116 -0.22118,2.14301 -1.835,5.91718 -4.18612,9.78987 l -1.38101,2.27478 -0.14251,2.05476 c -0.12267,1.76892 -0.13773,3.55758 -0.0371,4.41197 0.0156,0.13229 0.10006,0.24053 0.18776,0.24053 0.50527,0 2.26237,-1.50996 4.18433,-3.59576 2.00048,-2.17103 2.19865,-2.45214 2.19865,-3.11873 0,-2.21142 2.01272,-4.20721 3.78872,-3.75682 1.14639,0.29074 1.50295,0.97498 1.50295,2.88421 0,0.99276 0.0746,1.59808 0.19243,1.56125 0.28018,-0.0876 1.59435,-2.75143 1.94608,-3.94481 0.16581,-0.56261 0.40191,-1.06095 0.52466,-1.10744 0.32172,-0.12184 2.79069,-0.6584 3.63522,-0.79003 1.04731,-0.16322 1.1039,0.24416 0.28035,2.01781 -1.34896,2.90519 -1.69161,5.72749 -0.8479,6.9836 0.69519,1.03499 1.24369,0.97191 2.38238,-0.27399 1.34249,-1.46891 2.65442,-3.71699 2.65892,-4.55626 0.003,-0.6183 0.0549,-0.67843 0.629,-0.73379 0.5176,-0.0499 0.62538,0.006 0.62538,0.32539 0,0.73844 0.36837,0.6069 0.58837,-0.21009 0.2636,-0.97894 0.81879,-2.10817 1.24706,-2.53644 0.53075,-0.53073 1.52362,-0.39234 2.10006,0.29273 0.27835,0.33078 0.53458,0.5689 0.56943,0.52917 0.0348,-0.0398 0.24593,-0.49047 0.46911,-1.00159 0.60484,-1.38532 1.45836,-2.34886 2.57248,-2.90405 1.71336,-0.8538 3.03774,-0.54061 3.61586,0.85506 0.26168,0.63177 0.19493,3.13671 -0.18961,7.11542 -0.32391,3.35142 0.28403,7.26336 1.34581,8.65977 0.29876,0.39293 0.42805,0.44165 0.71009,0.26764 1.00214,-0.61826 1.97639,-4.06159 2.06973,-7.31508 0.095,-3.31324 0.78446,-5.13559 2.29018,-6.05375 0.90418,-0.55133 2.18426,-0.49333 2.83317,0.12837 l 0.51934,0.49755 0.22829,-0.69173 c 0.28735,-0.87064 0.67724,-1.26549 1.24956,-1.26549 h 0.44751 l -0.10391,3.14573 c -0.10182,3.08237 -0.0939,3.16765 0.394,4.23333 0.27386,0.59819 0.56766,1.08568 0.6529,1.08333 0.26318,-0.007 0.97172,-0.63523 1.55794,-1.38078 0.51039,-0.64912 0.57112,-0.89125 0.69183,-2.75836 0.1549,-2.39607 0.51412,-4.41968 1.17865,-6.63989 0.26289,-0.87826 0.42765,-1.64715 0.36615,-1.70865 -0.0615,-0.0615 -1.30941,-0.11181 -2.77311,-0.11183 -2.45793,0 -2.70608,0.0331 -3.24739,0.43295 -0.32236,0.23813 -0.7267,0.43296 -0.89856,0.43296 -0.56863,0 -0.18126,-0.47383 0.78657,-0.96213 0.86053,-0.43416 1.22552,-0.48762 3.74364,-0.54842 l 2.79015,-0.0674 0.72476,-1.51727 c 0.56196,-1.17642 0.8353,-1.54501 1.21676,-1.64074 0.81605,-0.20482 0.91936,0.13125 0.47877,1.55769 -0.60939,1.97299 -0.70248,1.86875 1.61729,1.81108 3.29688,-0.0819 6.80069,-0.66203 8.77831,-1.45332 1.0252,-0.41021 1.38715,-0.22135 0.55759,0.29092 -1.77636,1.09696 -4.70258,1.72661 -8.93962,1.92361 l -2.68586,0.12488 -0.349,1.34697 c -0.91679,3.5384 -1.3183,9.49755 -0.76621,11.37208 0.25274,0.85818 0.97047,2.02581 1.31452,2.13859 0.37598,0.12323 1.87104,-1.17341 2.46996,-2.14213 0.53911,-0.87199 0.58535,-1.0991 0.704,-3.45697 0.18806,-3.73731 0.65284,-5.34415 1.61571,-5.58581 0.27315,-0.0686 0.57868,-0.0739 0.67899,-0.0119 0.10699,0.0661 0.16677,1.67904 0.14465,3.90248 -0.0386,3.87952 0.14828,5.33127 0.71429,5.54847 0.36526,0.14017 1.53399,-0.78024 2.04913,-1.61374 0.3738,-0.60485 0.41725,-0.92624 0.39391,-2.9139 -0.0346,-2.94488 0.21952,-3.73163 1.61823,-5.00998 2.1048,-1.92366 4.37492,-1.79537 5.30162,0.29961 0.32208,0.72811 0.37821,1.19439 0.32365,2.68895 -0.0363,0.99445 -0.008,1.80802 0.0622,1.80794 0.19082,0 1.21814,-1.35842 1.52835,-2.02061 0.20602,-0.43982 0.419,-0.59162 0.89446,-0.63757 l 0.62403,-0.0603 0.003,2.17695 c 0.002,1.19734 0.0686,2.28021 0.1488,2.40636 0.0928,0.14605 0.34663,-0.15409 0.6984,-0.82598 1.01283,-1.93446 2.89545,-3.1425 4.06608,-2.60914 0.62459,0.28458 0.72267,0.82885 0.47492,2.63533 -0.56547,4.12346 -0.45602,6.09538 0.34485,6.21221 0.47452,0.0692 0.52953,0.23464 0.19067,0.5735 -0.37065,0.37064 -1.20761,0.26687 -1.65061,-0.20467 -1.19761,-1.27481 -1.31497,-3.37556 -0.41966,-7.51185 0.34176,-1.57896 0.0808,-1.74841 -1.06549,-0.69181 -1.37168,1.26437 -2.54703,3.86854 -2.02817,4.49373 0.19898,0.23976 0.18672,0.31395 -0.068,0.41171 -0.17091,0.0656 -0.53328,0.0634 -0.80529,-0.005 -0.61901,-0.15537 -1.34897,-1.66228 -1.68366,-3.47571 l -0.23323,-1.26365 -0.70649,0.72727 c -0.43934,0.4523 -0.89518,1.23854 -1.2055,2.07938 -0.9245,2.50488 -2.40905,3.93957 -4.07651,3.93957 -1.025,0 -1.8344,-0.64575 -2.15638,-1.72042 -0.12871,-0.42959 -0.30085,-0.78109 -0.38254,-0.78109 -0.0817,0 -0.3342,0.25117 -0.56119,0.55816 -0.22696,0.307 -0.80893,0.70951 -1.29326,0.89447 -1.11737,0.42672 -2.19716,0.16306 -2.82831,-0.69063 -0.50594,-0.68432 -0.65684,-0.70906 -0.80181,-0.13146 -0.14919,0.59436 -1.38392,2.0084 -2.05819,2.35708 -0.79773,0.41252 -2.22554,0.36058 -2.98463,-0.10857 -0.65733,-0.40623 -1.62135,-2.04928 -1.62674,-2.7725 -0.002,-0.21737 -0.0899,-0.52507 -0.19608,-0.68382 -0.16804,-0.25114 -0.22827,-0.24271 -0.46351,0.0649 -1.08279,1.41588 -2.86855,1.71795 -4.04572,0.68436 -0.47317,-0.41545 -0.77276,-0.91417 -0.98248,-1.63561 -0.16595,-0.57084 -0.36351,-1.0379 -0.43902,-1.0379 -0.0755,0 -0.27915,0.23813 -0.45256,0.52917 -0.6798,1.1409 -1.59616,1.81014 -2.66034,1.94285 l -1.0079,0.12571 -0.44433,2.20524 c -0.76433,3.79332 -1.28304,4.62582 -2.8822,4.62582 -1.08938,0 -1.79484,-0.6014 -2.46985,-2.10552 -1.09314,-2.43584 -1.33702,-5.56493 -0.7882,-10.11342 0.33097,-2.74308 0.36058,-4.40913 0.0874,-4.91946 -0.53655,-1.00258 -2.44126,0.32832 -3.37554,2.35864 -0.51751,1.12459 -0.55873,1.38365 -0.56048,3.52294 -0.002,1.31453 -0.0848,2.36998 -0.19433,2.45047 -0.10583,0.0778 -0.43497,0.1427 -0.7314,0.14432 -0.68166,0.004 -0.92824,-0.55134 -1.38436,-3.11639 -0.18274,-1.0277 -0.44234,-2.01911 -0.57687,-2.2031 -0.21907,-0.29959 -0.29435,-0.23505 -0.72082,0.61781 -0.637,1.27397 -0.74774,1.80589 -0.74385,3.57334 0.002,1.14516 0.10006,1.68804 0.41381,2.30305 0.45847,0.89866 0.30553,1.18335 -0.58605,1.09095 -0.38891,-0.0403 -0.61649,-0.32324 -1.18799,-1.47703 l -0.70693,-1.42719 -0.54383,0.91946 c -1.49242,2.52332 -2.35258,3.1862 -4.13275,3.18497 -2.40721,-0.002 -3.34322,-1.6105 -2.78155,-4.781 0.24877,-1.40435 0.54225,-2.16633 1.80833,-4.69519 0.10129,-0.20233 -0.50521,-0.17776 -1.34093,0.0544 -0.65717,0.18254 -0.73803,0.28883 -1.1335,1.49023 -0.65582,1.99223 -1.6539,3.83669 -2.57402,4.75681 -0.54715,0.54716 -0.95203,1.18908 -1.17384,1.86107 -0.44208,1.33933 -1.53403,2.46897 -2.38664,2.46897 -1.33519,0 -1.74252,-0.57379 -2.02503,-2.85271 l -0.19861,-1.60193 -0.91091,1.2406 c -1.19363,1.62564 -3.21374,3.50168 -4.07757,3.78677 -0.83221,0.27465 -0.85236,0.40131 -0.13156,0.8271 0.86518,0.51108 1.7155,1.59372 1.95903,2.49424 0.31627,1.16942 0.13482,3.34416 -0.35944,4.30834 -0.52669,1.02738 -1.2009,1.29727 -2.03295,0.81382 z m 1.24427,-1.07873 c 0.47435,-1.23933 0.60066,-2.47377 0.36786,-3.59518 -0.18779,-0.90451 -0.39772,-1.28262 -1.13938,-2.05209 -1.22278,-1.26861 -1.44316,-1.24058 -1.28249,0.16318 0.23634,2.0648 0.95729,5.09148 1.398,5.86894 0.16876,0.29771 0.46018,0.12676 0.65601,-0.38485 z m 7.62939,-10.82387 c -0.0304,-0.17054 -0.30666,-0.3133 -0.67523,-0.34894 -0.57816,-0.0559 -0.6238,-0.0181 -0.6238,0.51664 0,0.31733 0.0928,0.82071 0.20626,1.11864 l 0.20626,0.54169 0.46897,-0.76969 c 0.25793,-0.42334 0.44583,-0.89959 0.41754,-1.05834 z m 56.07212,1.01023 c 0.41109,-0.448 1.51066,-2.19077 1.51066,-2.39433 0,-0.0357 -0.73993,-0.0635 -1.64426,-0.0619 l -1.64429,0.003 0.12795,0.7697 c 0.13945,0.83897 0.76767,2.21288 1.01184,2.21288 0.0839,0 0.37103,-0.23813 0.6381,-0.52917 z m -55.53935,-2.69394 c 0.0646,-0.39687 0.19685,-1.12988 0.29389,-1.62891 0.18253,-0.93857 0.10647,-1.77979 -0.24509,-2.71043 -0.27067,-0.71655 -0.86458,-0.62678 -1.43137,0.21633 -0.8783,1.3065 -0.75367,3.20415 0.28346,4.31544 0.66864,0.71645 0.95949,0.66553 1.09911,-0.19243 z m 31.86843,-0.10343 c 0.38474,-0.33999 0.95839,-0.98423 1.27483,-1.43165 0.53036,-0.7499 0.56208,-0.88529 0.40571,-1.73182 -0.19823,-1.07313 -0.73165,-1.88045 -1.24248,-1.88045 -0.56176,0 -1.20862,1.3914 -1.45421,3.12809 -0.20684,1.46256 -0.13102,2.55697 0.17603,2.54121 0.0774,-0.004 0.45541,-0.2854 0.84012,-0.62538 z m 24.88034,-0.21565 c 0.5529,-0.231 0.69887,-0.43668 0.99012,-1.39507 0.20426,-0.67218 0.3471,-1.78168 0.35526,-2.75971 0.0156,-1.85988 -0.30369,-2.69259 -1.21216,-3.16238 -0.4917,-0.25427 -0.61172,-0.24782 -1.1994,0.0645 -2.59311,1.37793 -3.0588,6.2118 -0.69735,7.23839 0.79035,0.34359 0.97196,0.34505 1.76353,0.0142 z m -63.9775,-7.31774 c 1.67044,-3.41472 2.46396,-6.58183 1.81233,-7.23345 -0.48167,-0.48168 -2.17574,2.6003 -3.12501,5.68523 -0.61554,2.0005 -1.37521,5.22968 -1.36809,5.81558 0.006,0.49001 1.57664,-2.01028 2.68077,-4.26736 z m -74.83149,20.61022 c -0.3541,-0.93139 -1.12971,-4.29489 -1.3609,-5.90181 -0.1301,-0.90412 -0.20392,-2.77587 -0.16505,-4.1853 0.0386,-1.40233 0.027,-2.54966 -0.0259,-2.54962 -0.0529,5e-5 -0.33819,0.30335 -0.63395,0.67402 -0.71172,0.89198 -1.83055,1.44272 -2.93089,1.44272 -1.01644,0 -1.48297,-0.20043 -2.32916,-1.00061 l -0.6023,-0.56957 -0.55453,0.82565 c -0.78559,1.16973 -1.94666,1.93262 -3.1117,2.04457 -2.37998,0.22867 -3.8115,-1.07762 -4.34426,-3.96425 l -0.23378,-1.26669 -1.07875,1.45869 c -1.21167,1.6384 -2.22154,2.27979 -3.58963,2.27979 -1.715123,0 -2.617473,-1.09771 -2.562853,-3.11768 0.0587,-2.16995 0.6968,-3.89336 2.173503,-5.87015 1.72198,-2.30515 4.71017,-2.80982 4.31997,-0.7296 -0.23209,1.23733 -1.46995,3.34443 -2.80384,4.77276 -1.19585,1.2805 -1.34511,1.52481 -1.34511,2.20166 0,1.10798 0.34767,1.97331 0.79282,1.97331 0.88085,0 4.20156,-3.92651 4.61303,-5.45461 0.33713,-1.25199 1.12347,-2.87953 1.67619,-3.46935 0.5442,-0.5807 2.21059,-1.46185 2.77064,-1.46506 0.97904,-0.006 1.69278,0.80874 1.69278,1.93142 0,0.68911 -0.48306,0.77733 -0.64845,0.11841 -0.0621,-0.2474 -0.29778,-0.68485 -0.52378,-0.97216 -0.39851,-0.50662 -0.42243,-0.51193 -0.79358,-0.17603 -0.5815,0.52626 -0.88663,1.23378 -1.33015,3.0845 -0.57156,2.38495 -0.57385,4.84522 -0.006,6.10722 0.42743,0.94942 0.92866,1.64263 1.18772,1.64263 0.27984,0 1.95341,-1.61263 2.50388,-2.41269 0.51036,-0.7418 0.57217,-0.98822 0.57217,-2.28094 0,-4.13154 2.75142,-7.98765 5.25161,-7.36013 1.3018,0.32673 1.17755,3.61222 -0.21502,5.68571 -0.56001,0.83385 -1.45682,1.5539 -1.93815,1.55617 -0.14794,0 0.0156,-0.19356 0.3635,-0.43168 0.80112,-0.54839 1.47182,-1.83382 1.81657,-3.48159 0.42416,-2.02727 -0.12668,-3.33183 -1.00219,-2.37346 -1.91983,2.10154 -2.36364,8.01178 -0.71772,9.55804 0.41877,0.39341 0.52716,0.41414 1.04471,0.19976 0.66078,-0.27371 2.14665,-1.79243 2.56499,-2.62174 0.15521,-0.30769 0.55956,-1.74527 0.89857,-3.19463 0.3658,-1.56403 0.77356,-2.83508 1.00311,-3.1269 0.42466,-0.53988 1.07942,-0.65108 1.24792,-0.21195 0.059,0.15386 -0.0181,1.56096 -0.17141,3.12689 -0.15332,1.56595 -0.24257,2.91204 -0.19835,2.99131 0.0442,0.0793 0.41799,-0.52687 0.83056,-1.34697 0.93166,-1.85191 2.23888,-3.36586 3.25842,-3.7738 1.57253,-0.62921 2.78394,0.31569 3.0261,2.36033 0.0639,0.53939 0.21465,0.98069 0.33503,0.98069 0.1204,0 0.79485,-0.58449 1.49881,-1.29886 l 1.27991,-1.29886 0.33078,-1.82803 c 0.18192,-1.00542 0.52697,-2.4056 0.76679,-3.11152 0.2398,-0.70591 0.38579,-1.3337 0.32443,-1.39508 -0.18671,-0.18669 -4.67897,-0.12165 -6.01261,0.0871 -0.68791,0.10766 -1.76816,0.44827 -2.40056,0.75692 -0.63241,0.30867 -1.18593,0.52509 -1.23008,0.48095 -0.19767,-0.19768 0.48432,-0.6859 1.47694,-1.0573 1.64642,-0.61598 2.77137,-0.79942 5.71355,-0.93166 l 2.69394,-0.12105 0.69285,-1.44386 c 0.71656,-1.49332 0.9619,-1.79568 1.61624,-1.99184 0.81328,-0.2438 0.92901,0.10649 0.49709,1.50488 -0.64304,2.08189 -0.6777,2.02717 1.28284,2.02626 2.0538,0 4.8519,-0.43536 6.30432,-0.97878 0.5932,-0.22194 1.70081,-0.87167 2.46135,-1.44382 1.85166,-1.39296 2.43671,-1.37828 1.35942,0.0341 -0.65449,0.85807 -3.15562,2.09342 -5.07396,2.50611 -0.79375,0.17078 -2.69875,0.36586 -4.23333,0.43355 l -2.79015,0.12308 -0.51789,2.30909 c -0.99888,4.45368 -1.08227,8.22298 -0.25348,11.45615 0.30193,1.17785 1.05177,2.73273 1.43085,2.96701 0.35796,0.22125 1.31552,-0.88202 1.94512,-2.24111 0.64454,-1.39132 0.65168,-1.43701 0.67198,-4.29266 0.026,-3.65394 0.26212,-4.3861 1.38486,-4.29335 l 0.72644,0.06 0.11443,3.07879 c 0.1277,3.43527 0.40413,4.89007 0.85771,4.51365 0.1519,-0.12607 0.54684,-0.70229 0.87767,-1.2805 0.59257,-1.03571 0.5979,-1.06823 0.35964,-2.19095 -0.28327,-1.33488 -0.15178,-2.82309 0.38416,-4.34794 0.75392,-2.14505 2.00923,-3.14048 3.9604,-3.14048 0.96897,0 1.15258,0.0674 1.71392,0.62869 0.698,0.698 1.06407,1.95624 1.06547,3.66222 v 1.00076 l 0.55792,-0.84097 c 0.30685,-0.46253 0.66365,-1.21855 0.79286,-1.68006 0.28361,-1.01299 0.56829,-1.27885 1.28176,-1.19705 l 0.54081,0.062 -0.052,1.44318 c -0.0286,0.79375 -0.10368,2.07097 -0.16693,2.83826 -0.0706,0.85684 -0.0426,1.39507 0.0727,1.39507 0.10322,0 0.4983,-0.50324 0.87796,-1.11833 1.32686,-2.14968 3.31785,-3.55063 4.43984,-3.12406 0.94484,0.35924 0.98529,0.56215 0.9957,4.9941 0.011,4.71185 0.25719,6.08453 1.28916,7.18926 0.52174,0.55851 0.58946,0.58181 0.81094,0.27892 0.2835,-0.38772 0.87272,-0.44196 0.87272,-0.0803 0,0.47808 -0.46736,0.71197 -1.42267,0.71197 -0.9068,0 -1.01598,-0.0569 -1.94106,-1.012 -1.64502,-1.69839 -1.98596,-3.77865 -1.44996,-8.84695 0.29247,-2.76558 0.23005,-3.02886 -0.58131,-2.45114 -1.82455,1.29921 -3.941,5.84979 -3.28811,7.06976 0.27806,0.51955 -0.20077,0.71986 -0.90913,0.38035 -0.75141,-0.36014 -1.37215,-2.07888 -1.49852,-4.14921 -0.0561,-0.91869 -0.1413,-1.79422 -0.1894,-1.9456 -0.17122,-0.53896 -1.34355,1.58134 -1.69486,3.0654 -0.84837,3.58372 -2.05718,5.38787 -3.60995,5.38787 -0.67439,0 -0.90197,-0.11476 -1.52373,-0.76836 -0.4309,-0.45295 -0.78307,-1.04627 -0.85794,-1.44532 -0.17018,-0.90719 -0.39095,-0.99537 -0.75065,-0.29982 -0.16435,0.31781 -0.46542,0.66702 -0.66902,0.77599 -0.53673,0.28723 -1.60973,0.2429 -2.04245,-0.0844 -0.53823,-0.40711 -0.5862,-0.38057 -0.94596,0.52305 -0.74524,1.87181 -1.95287,2.76912 -3.49319,2.5955 -0.44333,-0.05 -1.06695,-0.27665 -1.38586,-0.50373 -1.5428,-1.09857 -2.58222,-4.2094 -2.59561,-7.76828 -0.004,-1.13771 -0.0863,-2.06856 -0.18223,-2.06856 -0.0959,0 -0.72978,0.53326 -1.40854,1.18504 -0.89291,0.85742 -1.2344,1.32292 -1.23523,1.68371 -0.003,1.54931 -0.62444,4.44031 -1.2259,5.70794 -1.04396,2.20022 -2.36121,3.16118 -4.33322,3.16118 -1.82964,0 -2.38354,-1.52809 -1.24966,-3.44762 0.18781,-0.31795 1.31224,-1.4433 2.49873,-2.50081 l 2.15723,-1.92272 0.1301,-1.78904 c 0.14108,-1.94026 -0.1276,-3.27431 -0.68092,-3.38086 -0.16471,-0.0317 -0.75503,0.37912 -1.31181,0.91296 -1.27516,1.2226 -2.53917,3.80226 -3.23205,6.59613 -0.4751,1.91577 -0.48616,2.10679 -0.38687,6.68651 0.0562,2.59292 0.13033,4.88757 0.16469,5.09924 0.048,0.29599 -0.0597,0.39892 -0.46659,0.44573 -0.41433,0.0477 -0.56813,-0.0419 -0.7092,-0.41286 z m 4.09022,-7.25609 c 0.27421,-0.21569 0.76041,-0.93006 1.08045,-1.5875 0.58751,-1.20687 1.32798,-4.08091 1.10807,-4.30084 -0.0654,-0.0654 -0.85373,0.54807 -1.75173,1.36333 -2.19812,1.99559 -2.87203,3.42053 -2.12329,4.48951 0.37365,0.53344 1.03575,0.54739 1.6865,0.0355 z m 22.11095,-2.63852 c 0.59708,-0.67916 1.86644,-3.78214 1.6399,-4.0087 -0.048,-0.0479 -0.46807,0.0857 -0.93362,0.29689 -0.46555,0.21123 -1.25776,0.38595 -1.76047,0.38826 -0.50271,0.002 -0.9119,0.0692 -0.90932,0.14855 0.0325,0.99747 1.11575,3.51174 1.51299,3.51174 0.085,0 0.2877,-0.15153 0.45052,-0.33674 z m 0.96159,-4.58841 c 1.1282,-0.72704 1.30985,-1.15534 1.43619,-3.38629 0.0996,-1.75916 0.0651,-2.10808 -0.28709,-2.90431 -0.80616,-1.82247 -1.94997,-1.60636 -2.9637,0.55993 -0.45014,0.96191 -0.60414,1.60578 -0.6818,2.85044 -0.11492,1.84219 -0.0263,2.34163 0.54389,3.06655 0.46513,0.59134 0.7945,0.5599 1.95251,-0.18632 z m -45.47376,-3.95072 c 0.58545,-1.1716 0.78923,-2.52713 0.4147,-2.7586 -0.55626,-0.34378 -2.61704,3.3229 -2.8141,5.00705 l -0.11126,0.95091 0.95759,-1.00386 c 0.52668,-0.5521 1.22556,-1.54009 1.55307,-2.1955 z m -47.450025,17.06839 c -0.744674,-0.33299 -1.102516,-0.98384 -1.415452,-2.57446 -0.305373,-1.55219 -0.145584,-3.02607 0.55367,-5.10694 0.644692,-1.91851 1.489418,-3.39519 2.756283,-4.81832 0.723892,-0.81319 0.920815,-1.19057 1.021703,-1.95804 0.121926,-0.92746 0.116475,-0.94128 -0.223241,-0.56582 -0.69096,0.76364 -1.636135,1.44318 -2.007335,1.44318 -0.208357,0 -0.600556,-0.22173 -0.871554,-0.49272 -0.270997,-0.27099 -0.516417,-0.46582 -0.545377,-0.43295 -0.02896,0.0329 -0.274753,0.50203 -0.546206,1.04255 -0.977896,1.94728 -2.011824,2.73616 -3.275395,2.49911 -1.464324,-0.27472 -1.915606,-1.48413 -1.827965,-4.89883 0.07403,-2.88429 -0.04033,-3.15091 -0.879563,-2.05063 -0.804189,1.05435 -1.399394,2.53606 -1.760086,4.38158 -0.352969,1.806 -0.627905,2.07991 -1.320036,1.3151 -0.437139,-0.48302 -1.056728,-2.49772 -1.205309,-3.91925 l -0.117992,-1.1289 -1.454712,1.58092 c -0.950431,1.03289 -1.602261,1.94396 -1.880349,2.62819 -1.124113,2.76583 -2.496508,3.59719 -3.851271,2.33303 l -0.413113,-0.38549 -0.238304,0.73651 c -0.67809,2.09565 -1.57375,3.14178 -2.689889,3.14178 -2.174888,0 -2.991106,-3.10632 -2.123582,-8.08181 0.891886,-5.11524 0.906833,-5.58031 0.179356,-5.58031 -0.59949,0 -2.173191,1.72705 -2.832508,3.10852 -0.329936,0.69132 -0.706774,1.88029 -0.837416,2.64214 -0.207978,1.21283 -0.285466,1.37818 -0.622778,1.329 -0.254379,-0.0371 -0.475645,-0.31764 -0.651371,-0.82587 -0.146369,-0.42333 -0.347936,-0.97632 -0.447925,-1.22886 l -0.181801,-0.45914 -0.48457,0.45521 c -0.641088,0.60227 -1.778664,2.93561 -1.961309,4.02294 -0.164082,0.97682 -0.687334,1.24406 -1.240051,0.63331 -0.427455,-0.47233 -1.493897,-3.17949 -1.493897,-3.79226 0,-0.62243 -0.304614,-0.65057 -0.4573,-0.0422 -0.301089,1.19963 -1.582607,3.87367 -2.139335,4.46399 -0.546983,0.57997 -0.739499,0.6609 -1.563208,0.65719 -1.042339,-0.005 -2.286181,-0.49457 -2.841871,-1.11927 l -0.363078,-0.40817 -0.5172,0.81393 c -1.206011,1.89798 -2.799235,2.6234 -4.3440792,1.97793 -0.411664,-0.17201 -0.912398,-0.46097 -1.112741,-0.64214 -1.502264,-1.35851 -1.7848598,-5.09139 -0.685413,-9.05379 0.215525,-0.77676 0.349918,-1.45423 0.298652,-1.50549 -0.166461,-0.16646 -1.2723169,0.50866 -1.5551651,0.9494 -0.1513994,0.23593 -0.4938742,1.30137 -0.7610552,2.36765 -1.2042813,4.80616 -2.653053,6.88015 -4.7854965,6.85072 -0.41158388,-0.006 -1.04400928339,-0.18478 -1.40538968,-0.39799 l -0.65705562,-0.38767 -0.8943475,1.7316 c -1.524381,2.9515 -3.1939537,4.19198 -5.3433729,3.97016 -3.1146593,-0.32147 -6.1158503,-3.65858 -6.8550153,-7.62231 -0.643645,-3.45151 0.251828,-9.48648 1.869656,-12.60038 0.913318,-1.75791 2.9299356,-3.84231 4.0065338,-4.1412 1.7618767,-0.48916 3.2717643,0.0487 3.9250176,1.39811 0.4088208,0.84451 0.5797069,3.39133 0.2275513,3.39133 -0.3120755,0 -0.5514186,-0.47512 -0.6785513,-1.34697 -0.1589829,-1.09028 -0.8358659,-2.30931 -1.4844029,-2.67331 -0.4543291,-0.25502 -0.5499004,-0.24257 -1.0898717,0.14193 -0.7661929,0.54558 -2.0199388,2.43007 -2.550106,3.83303 -1.7080118,4.51983 -2.4841358,11.8404 -1.5584148,14.69929 0.797827,2.46393 2.941337,4.58845 4.6294479,4.58845 1.6522488,0 3.2860152,-1.55933 4.8151895,-4.59582 0.6136235,-1.21847 0.6166369,-1.23839 0.3730548,-2.46386 -0.2888346,-1.45311 -0.034046,-3.43756 0.601243,-4.68284 0.90778252,-1.77938 2.5304422,-2.70646 3.5583359,-2.03296 0.5672301,0.37167 0.607466,0.89091 0.1924916,2.4841 -0.3912312,1.50205 -0.9352049,2.51227 -1.81021368,3.36183 -0.734543,0.71316 -0.7348759,0.7142 -0.4915997,1.53754 0.2542656,0.86052 0.59119078,1.38898 0.88557678,1.38898 0.5245061,0 1.9762527,-1.73101 2.6515714,-3.16165 0.7101455,-1.50441 1.8034134,-4.49247 2.0197656,-5.5203 0.081186,-0.38572 0.4180205,-0.66787 1.4357427,-1.20265 1.425885,-0.74928 2.458368,-0.90163 2.6540822,-0.39161 0.06482,0.16891 -0.07527,1.17206 -0.3113052,2.22924 -0.901206,4.03633 -0.708027,7.70996 0.4632942,8.81035 0.442389,0.4156 0.531185,0.43296 0.981665,0.19187 0.826335,-0.44223 1.745642,-1.61294 2.181627,-2.77822 0.369222,-0.98683 0.390158,-1.22874 0.197865,-2.28615 -0.251197,-1.38132 -0.122717,-2.63344 0.418701,-4.08051 0.825823,-2.20723 3.491602,-3.41792 4.183261,-1.89989 0.309757,0.67984 0.27981,1.06806 -0.176465,2.28756 -0.453255,1.21143 -1.357206,2.22531 -1.973907,2.21396 -0.388308,-0.007 -0.381639,-0.0275 0.09342,-0.28558 1.015767,-0.5517 1.758188,-2.53569 1.433288,-3.8302 -0.175505,-0.69927 -0.611078,-0.61393 -1.15809,0.22689 -1.270934,1.95356 -1.233673,5.93263 0.07488,7.99599 0.848981,1.33872 1.185564,1.43714 2.097393,0.61335 1.15072,-1.03959 3.068006,-5.05625 3.397696,-7.11806 0.193345,-1.20913 0.283486,-1.43048 0.665838,-1.63512 0.796315,-0.42616 0.901689,-0.13258 1.02211,2.84778 0.06285,1.55554 0.175064,3.03495 0.249362,3.28759 0.121145,0.41192 0.188461,0.34176 0.652159,-0.67974 0.768065,-1.69202 1.608209,-2.56975 2.459711,-2.56975 0.377578,0 0.843053,0.14168 1.034388,0.31483 0.32344,0.29271 0.35701,0.28933 0.477816,-0.0481 0.463502,-1.29467 1.256709,-2.7909 1.819204,-3.43154 1.22662,-1.39706 3.080133,-1.81277 3.924165,-0.88013 0.554557,0.61278 0.555198,1.85892 0.0029,5.69505 -0.37019,2.57136 -0.490062,4.01331 -0.407889,4.90653 0.121312,1.31868 0.441992,2.48731 0.682538,2.48731 0.586399,0 2.462245,-3.73553 2.657275,-5.29167 0.05306,-0.42333 0.235945,-0.88026 0.406417,-1.0154 0.254348,-0.20162 0.266827,-0.30518 0.06956,-0.57727 -0.698974,-0.96407 -0.993562,-1.91836 -0.997641,-3.23177 -0.0076,-2.45456 0.974527,-4.20941 2.634211,-4.70666 2.045327,-0.61279 3.134294,1.26456 3.134294,5.40345 0,0.94729 0.06856,1.72235 0.15236,1.72235 0.19944,0 1.581304,-1.4512 2.198745,-2.30909 0.2666,-0.37042 0.540416,-0.90911 0.608478,-1.19709 0.151297,-0.64018 0.757451,-1.01227 1.223849,-0.75126 0.287795,0.16106 0.321997,0.46874 0.268282,2.41344 -0.03386,1.22588 -0.0163,2.22885 0.03903,2.22885 0.05532,0 0.410289,-0.64389 0.788811,-1.43087 1.180721,-2.45481 2.388895,-3.33134 3.487081,-2.52986 0.335917,0.24517 0.383207,0.5899 0.469733,3.42433 0.07881,2.58168 0.15792,3.24583 0.43739,3.67209 0.187648,0.28621 0.435742,0.52037 0.55132,0.52037 0.704507,0 3.474256,-4.54916 3.726424,-6.12044 0.121381,-0.75634 0.177612,-0.82361 0.643405,-0.76969 0.498456,0.0577 0.511118,0.0928 0.541065,1.50225 0.05133,2.41593 0.05965,2.50152 0.24317,2.50152 0.301891,0 1.301438,-1.10517 1.780482,-1.96862 0.250685,-0.45185 0.61525,-1.51426 0.810145,-2.36093 0.534316,-2.32119 1.026756,-3.36742 1.58499,-3.36742 0.251551,0 0.457366,0.0282 0.457366,0.0627 0,0.0345 -0.123488,0.96535 -0.274418,2.06856 -0.15093,1.10322 -0.335128,2.77281 -0.409329,3.71023 l -0.134912,1.70437 0.585652,-0.12863 c 0.799281,-0.17555 2.005049,0.18001 2.58827,0.76323 0.539259,0.53925 0.800802,1.69905 0.611137,2.71005 -0.171754,0.91551 -0.655962,0.86675 -0.6619,-0.0667 -0.01309,-2.05628 -0.797789,-3.23086 -2.135022,-3.1958 -0.440991,0.0115 -0.864576,0.13772 -0.958088,0.28535 -0.09219,0.14554 -0.169597,1.82325 -0.172018,3.72825 -0.0024,1.905 -0.0914,4.02648 -0.197731,4.7144 -0.311674,2.01637 -1.09002,3.93869 -1.989857,4.91445 -0.902137,0.97827 -1.623965,1.19688 -2.563953,0.77655 z m 1.251296,-0.63987 c 1.130213,-1.59086 1.574509,-3.99957 1.574509,-8.53603 0,-2.00196 -0.07513,-3.44238 -0.179541,-3.44238 -0.564681,0 -2.328949,2.90981 -3.113601,5.13525 -0.857704,2.43265 -0.6119,5.79387 0.505408,6.91118 0.588851,0.58884 0.753104,0.57964 1.213225,-0.068 z m -17.57008,-12.05247 0.491243,-0.98427 -1.199865,-0.13697 c -0.659924,-0.0753 -1.227218,-0.10962 -1.26065,-0.0762 -0.09536,0.0953 0.357143,2.09752 0.562776,2.49011 0.174919,0.33393 0.20417,0.33512 0.549998,0.0221 0.200889,-0.18181 0.586313,-0.77347 0.856498,-1.31484 z M 1.5915299,210.40297 c 0.643355,-1.26962 0.9144866,-2.63527 0.6574251,-3.31139 -0.1679902,-0.44185 -0.2537556,-0.49559 -0.4848822,-0.30376 -0.78457708,0.65114 -1.92818508,4.56996 -1.52432318,5.22341 0.1781098,0.28819 0.7136284,-0.34894 1.35178028,-1.60826 z m 39.5153031,0.0543 c 0.69712,-1.30258 0.60385,-5.53503 -0.150526,-6.83062 -0.722549,-1.24092 -1.890909,-0.57337 -2.476439,1.41491 -0.819931,2.78429 0.111316,5.78836 1.794358,5.78836 0.429324,0 0.69738,-0.11998 0.832607,-0.37265 z m 135.027237,7.93623 c -0.81906,-2.59671 -1.12744,-5.31965 -1.12903,-9.96889 -0.002,-5.67645 0.66432,-9.90944 1.60684,-10.20858 0.7498,-0.23799 0.81838,0.13023 0.5293,2.84185 -0.32835,3.07983 -0.34473,11.28047 -0.0272,13.62052 0.12205,0.89958 0.24007,2.28504 0.26225,3.07879 0.0397,1.41907 0.0321,1.44416 -0.45504,1.50222 -0.43956,0.0524 -0.52826,-0.0452 -0.78711,-0.86591 z m -87.648043,0.35233 c -0.559052,-0.35455 -1.917304,-5.87564 -2.349773,-9.55152 -0.263966,-2.24363 -0.323304,-8.21417 -0.102199,-10.28323 l 0.152997,-1.43171 -0.626176,0.5269 c -0.892683,0.75114 -2.011229,1.28246 -2.635681,1.25198 -0.521013,-0.0254 -0.522656,-0.0288 -0.05577,-0.11559 1.044104,-0.19402 2.954599,-1.90773 3.689568,-3.30956 0.484023,-0.92319 1.26121,-1.31131 1.919905,-0.95879 0.328633,0.17588 0.355925,0.50077 0.358915,4.27261 l 0.0032,4.08224 0.626052,-1.53939 c 0.777433,-1.91162 1.835616,-3.52314 3.230793,-4.92022 1.349029,-1.35083 2.469569,-1.91084 3.823511,-1.91084 0.947788,0 1.083308,0.0604 1.845538,0.82263 1.1554,1.15539 1.53773,2.47902 1.51325,5.23873 -0.0194,2.19063 -0.14549,2.85819 -0.99706,5.28045 -0.59249,1.68527 -2.340033,4.42777 -3.466702,5.44046 -1.063967,0.95631 -2.5251,1.673 -3.907197,1.91645 -0.624395,0.10997 -1.135264,0.29405 -1.135264,0.40906 0,0.11499 0.468391,0.66275 1.040869,1.21724 1.60171,1.55138 2.885566,1.78371 4.119425,0.74549 0.654599,-0.55082 1.296713,-0.65269 1.114081,-0.17675 -0.06424,0.16741 -0.1168,0.34458 -0.1168,0.3937 0,0.0491 -0.454602,0.30098 -1.010227,0.55965 -1.789909,0.83333 -3.731522,0.55299 -5.291667,-0.76402 l -0.625378,-0.52792 v 1.63213 c 0,1.31077 -0.05993,1.65512 -0.304375,1.74892 -0.394322,0.15132 -0.508699,0.14442 -0.81387,-0.0491 z m 3.567211,-6.11834 c 0.605684,-0.28577 1.354079,-0.87167 1.881343,-1.47282 1.037084,-1.18239 2.584871,-4.10745 3.233536,-6.11082 1.00255,-3.09633 1.15713,-6.71441 0.36353,-8.50849 -0.689009,-1.55762 -1.586015,-1.67925 -3.265623,-0.44279 -2.9151,2.14597 -5.430312,6.97083 -5.432013,10.42008 -9.62e-4,1.83199 0.419196,6.31696 0.614861,6.56422 0.251692,0.31806 1.396509,0.12054 2.604366,-0.44938 z m -18.046567,0.52102 c -0.876069,-0.26502 -1.325765,-0.58662 -1.622377,-1.1602 -0.380954,-0.73668 -0.370946,-2.11264 0.01942,-2.66996 0.291221,-0.41577 0.285379,-0.45994 -0.09621,-0.72721 -0.732124,-0.51281 -0.386736,-2.15935 0.597577,-2.84879 0.23582,-0.16517 0.803576,-0.30031 1.261676,-0.30031 0.771989,0 0.853756,0.0499 1.117852,0.68195 0.156716,0.37507 0.233778,0.76473 0.17125,0.86591 -0.237632,0.3845 -0.673739,0.15846 -0.944485,-0.48953 -0.154771,-0.37042 -0.370186,-0.67348 -0.478702,-0.67348 -0.318926,0 -0.784458,1.07917 -0.784458,1.81846 0,0.60031 0.05828,0.68305 0.481061,0.68305 0.588868,0 0.605755,0.23178 0.06971,0.95681 -0.764441,1.03397 -0.165286,3.0065 1.028294,3.38532 0.717141,0.22762 1.612556,-1.08127 1.400427,-2.04708 -0.06804,-0.30977 -0.181769,-0.5619 -0.252735,-0.56029 -0.367529,0.008 -0.695266,0.42012 -0.716265,0.89982 -0.01911,0.43642 -0.113009,0.54042 -0.487907,0.54042 -0.358985,0 -0.477626,-0.11553 -0.523244,-0.50954 -0.04926,-0.42549 0.133504,-0.65767 1.107892,-1.40745 1.209435,-0.93064 1.730541,-1.6773 1.593943,-2.28386 -0.06209,-0.27571 0.01857,-0.33851 0.370722,-0.28864 0.703757,0.0997 0.698104,0.93576 -0.0118,1.74429 l -0.57995,0.66053 0.400093,0.80867 c 0.364561,0.73685 0.376201,0.87143 0.131056,1.51553 -0.412175,1.08295 -2.021143,1.77821 -3.25284,1.40558 z m 67.648359,-7.8989 c -0.21961,-0.35533 0.11332,-0.57727 0.86591,-0.57727 0.79256,0 1.1882,0.3159 0.74624,0.59584 -0.36339,0.23018 -1.46627,0.21748 -1.61215,-0.0187 z m 110.78706,-0.12428 c -0.40682,-0.16999 -0.0584,-0.45299 0.55776,-0.45299 0.37952,0 0.5544,0.0837 0.50273,0.24053 -0.0854,0.25941 -0.6686,0.37623 -1.06049,0.21246 z"
       id="path39" />
  </g>
</svg>
