<?xml version="1.0" encoding="UTF-8" standalone="no"?>
<!-- Created with Inkscape (http://www.inkscape.org/) -->

<svg
   width="274.00418mm"
   height="43.80022mm"
   viewBox="0 0 274.00418 43.80022"
   version="1.1"
   id="svg5"
   inkscape:version="1.1 (c4e8f9e, 2021-05-24)"
   sodipodi:docname="FAQ.svg"
   xmlns:inkscape="http://www.inkscape.org/namespaces/inkscape"
   xmlns:sodipodi="http://sodipodi.sourceforge.net/DTD/sodipodi-0.dtd"
   xmlns="http://www.w3.org/2000/svg"
   xmlns:svg="http://www.w3.org/2000/svg">
  <sodipodi:namedview
     id="namedview7"
     pagecolor="#ffffff"
     bordercolor="#666666"
     borderopacity="1.0"
     inkscape:pageshadow="2"
     inkscape:pageopacity="0.0"
     inkscape:pagecheckerboard="0"
     inkscape:document-units="mm"
     showgrid="false"
     inkscape:zoom="0.44354134"
     inkscape:cx="338.18719"
     inkscape:cy="76.655763"
     inkscape:window-width="1421"
     inkscape:window-height="770"
     inkscape:window-x="0"
     inkscape:window-y="25"
     inkscape:window-maximized="0"
     inkscape:current-layer="layer1"
     fit-margin-top="5"
     fit-margin-left="5"
     fit-margin-right="5"
     fit-margin-bottom="5" />
  <defs
     id="defs2" />
  <g
     inkscape:label="Layer 1"
     inkscape:groupmode="layer"
     id="layer1"
     transform="translate(32.891021,-127.52643)">
    <path
       style="fill:#881b16;stroke-width:0.192424"
       d="m 60.153783,166.21451 c -0.629921,-0.25111 -0.830524,-0.79438 -0.829032,-2.2452 0.0019,-1.79368 0.621599,-4.23137 1.537675,-6.04813 1.023399,-2.02961 1.466144,-2.7066 2.859834,-4.37287 0.649796,-0.77688 1.182971,-1.59949 1.184835,-1.82803 0.0019,-0.22853 0.297371,-1.62778 0.656679,-3.10945 0.359308,-1.48166 0.625096,-2.72247 0.590638,-2.75736 -0.03446,-0.0349 -0.847563,1.48046 -1.806904,3.36743 -1.993936,3.92195 -2.672763,4.87402 -3.47516,4.87402 -0.638749,0 -0.973971,-0.35084 -1.14794,-1.20145 l -0.127173,-0.62182 -0.608442,0.88434 c -1.385685,2.01403 -3.137958,1.60672 -3.771474,-0.87666 l -0.23603,-0.92524 -0.700316,1.13461 c -0.977548,1.58375 -1.36973,1.89486 -2.388626,1.89486 -0.705262,0 -0.923169,-0.094 -1.292866,-0.55763 l -0.44464,-0.55764 -0.456365,1.12443 c -1.166214,2.87336 -3.686947,3.60397 -4.831852,1.40046 -0.643805,-1.23907 -0.721181,-4.73744 -0.183749,-8.30793 0.446555,-2.96674 0.498969,-4.0829 0.200392,-4.26743 -0.358371,-0.22148 -1.550587,0.88904 -2.475514,2.30588 -1.31294,2.01121 -2.102126,4.71674 -2.162916,7.41501 -0.02432,1.07944 -0.281736,1.23076 -0.952558,0.55995 -0.857973,-0.85798 -2.097665,-4.21867 -2.097665,-5.6866 0,-1.13967 -0.335053,-0.85124 -1.320648,1.13692 -1.68217,3.39329 -2.676386,4.37625 -4.426357,4.37625 -1.06402,0 -2.014982,-0.83 -2.314701,-2.0203 -0.119941,-0.47633 -0.303422,-0.86607 -0.407731,-0.86607 -0.104309,0 -0.189653,0.0794 -0.189653,0.17646 0,0.0971 -0.652957,0.87056 -1.451014,1.7189 -1.620741,1.72285 -2.653757,2.27923 -3.866472,2.08242 -1.823039,-0.29583 -2.367502,-2.31658 -1.688775,-6.2678 0.168223,-0.97932 0.268459,-1.81798 0.222744,-1.86368 -0.04571,-0.0457 -0.662566,0.82049 -1.370788,1.92493 -1.176291,1.83436 -2.37006,3.1909 -2.808047,3.1909 -0.09526,0 -0.384506,-0.0803 -0.642766,-0.17854 -0.681578,-0.25913 -0.790153,-1.17103 -0.346354,-2.90893 0.20148,-0.78898 0.35089,-1.45165 0.332024,-1.47262 -0.01886,-0.021 -0.455316,0.482 -0.969893,1.11771 -1.153591,1.42512 -3.124887,3.44238 -3.363947,3.44238 -0.09736,0 0.293801,-0.48224 0.86924,-1.07163 1.589245,-1.62782 4.120998,-4.99907 4.743792,-6.31679 0.305295,-0.64595 0.691983,-1.326 0.859309,-1.51121 0.331136,-0.36652 1.112247,-0.45283 1.303126,-0.14397 0.06552,0.10601 -0.405615,1.78558 -1.046976,3.73236 -1.320269,4.0075 -1.420024,4.55303 -0.672138,3.67563 1.261329,-1.47974 3.601633,-5.3178 4.515985,-7.4061 0.98948,-2.25991 1.517585,-3.08383 1.972916,-3.07808 0.701939,0.009 0.67789,0.30958 -0.26924,3.36654 -1.103961,3.56316 -1.903029,7.27152 -1.903029,8.83172 0,1.14475 0.407966,2.42304 0.773314,2.42304 0.376247,0 1.78979,-1.08485 2.799034,-2.14817 2.024459,-2.13292 2.139586,-2.32098 2.291998,-3.74419 0.289893,-2.70698 1.295896,-5.10934 2.669938,-6.3759 0.987104,-0.90987 1.671497,-1.15514 2.354709,-0.84383 0.79526,0.36233 0.950418,0.99444 0.596317,2.42935 -0.49262,1.99623 -1.929194,4.07437 -3.132888,4.53202 -0.43272,0.16452 -0.462014,0.26768 -0.447542,1.57587 0.01826,1.65039 0.341266,3.01729 0.777151,3.28874 0.454828,0.28327 1.567757,-0.4677 2.475771,-1.67056 1.230999,-1.63072 2.792764,-5.01799 3.205905,-6.95318 0.138232,-0.64749 0.248343,-0.77935 0.693489,-0.83058 l 0.529167,-0.0609 0.0059,1.88891 c 0.0071,2.25198 0.262207,4.38348 0.69824,5.83361 0.309849,1.03047 0.32203,1.04313 0.462727,0.48106 0.07947,-0.3175 0.246089,-1.14011 0.370253,-1.82803 0.294291,-1.63048 1.464585,-4.09059 2.497485,-5.25 1.387031,-1.55693 2.512755,-1.8822 3.409727,-0.98523 l 0.499608,0.49961 -0.122141,2.8197 c -0.06718,1.55085 -0.176992,3.77221 -0.244032,4.93638 -0.126363,2.19437 0.0968,3.96226 0.584329,4.62899 0.241758,0.33063 0.2856,0.31868 0.789768,-0.21522 0.293592,-0.3109 0.927472,-1.3879 1.408625,-2.39332 0.818447,-1.71023 0.883733,-1.96444 1.013115,-3.94469 0.118986,-1.82115 1.06436,-8.1255 1.4472,-9.65087 l 0.126892,-0.50557 -1.422733,0.0923 c -1.306451,0.0847 -1.964253,0.30415 -2.908725,0.97024 -0.553914,0.39066 -0.862544,-0.10298 -0.371431,-0.59411 0.481771,-0.48175 1.614646,-0.80391 3.395516,-0.96556 l 1.345669,-0.12215 0.260331,-1.05833 c 0.768502,-3.12424 0.982083,-3.65606 1.468272,-3.65606 0.255291,0 0.50322,0.0649 0.550953,0.14431 0.04773,0.0794 -0.03314,1.05353 -0.179715,2.16478 -0.146575,1.11125 -0.231361,2.1161 -0.188412,2.23302 0.05359,0.14588 0.37009,0.16227 1.008873,0.0522 2.432991,-0.41908 2.869284,-0.44161 2.616783,-0.13517 -0.280832,0.34082 -1.290272,0.65328 -2.69601,0.83452 -0.555508,0.0716 -1.051345,0.1971 -1.101862,0.27884 -0.26115,0.42255 -1.307297,8.72969 -1.382239,10.97594 -0.1077,3.22809 0.02099,3.51582 1.060342,2.37088 1.305468,-1.4381 1.950543,-2.9171 2.269027,-5.20233 0.315716,-2.26537 1.16947,-5.01121 2.509506,-8.07102 0.924156,-2.1102 2.471374,-4.83133 3.195761,-5.62044 1.711719,-1.86469 3.788363,-2.13254 4.089473,-0.52747 0.410835,2.18992 -2.154959,7.17261 -6.269805,12.17573 l -1.292539,1.57155 -0.240144,1.96038 c -0.209492,1.71015 -0.157235,3.94304 0.09826,4.19854 0.313977,0.31398 2.178279,-2.37744 2.488111,-3.59198 0.257752,-1.0104 0.690876,-1.39032 1.150295,-1.00905 0.243872,0.20241 0.306045,0.68076 0.311167,2.39414 l 0.0064,2.14122 0.383282,-0.46024 c 1.186486,-1.42473 5.100127,-8.95691 5.658465,-10.89025 0.466418,-1.61505 0.811742,-2.21542 1.274311,-2.21542 0.478751,0 0.492875,-0.11615 -0.755631,6.21836 -0.49403,2.50658 -0.862946,4.5574 -0.819824,4.5574 0.04312,0 0.5197,-0.20832 1.059084,-0.46292 1.983471,-0.93626 3.879985,-0.82246 4.815128,0.28889 0.78409,0.93183 0.663575,3.25439 -0.168756,3.25232 -0.119842,0 -0.202045,-0.49757 -0.202045,-1.22222 0,-1.36999 -0.2987,-2.09606 -0.992313,-2.41208 -0.990465,-0.45129 -2.698769,-0.10633 -4.12063,0.8321 -0.62892,0.41508 -0.708218,0.57356 -0.934913,1.86865 -0.890714,5.08847 -2.124991,9.22353 -3.40668,11.41305 -1.058809,1.80875 -1.923217,2.41329 -2.896143,2.02543 z m 1.531178,-2.25784 c 1.246666,-2.43754 1.683962,-3.8832 2.459212,-8.12993 0.457703,-2.50723 0.458759,-2.44423 -0.03356,-2.00217 -1.184177,1.06328 -2.831219,4.10916 -3.534697,6.53671 -0.663752,2.29046 -0.624001,5.2791 0.07021,5.2791 0.09774,0 0.565213,-0.75767 1.038833,-1.68371 z M 31.772228,147.07094 c 1.397512,-1.17592 2.616294,-4.17385 2.170632,-5.33927 -0.369145,-0.96532 -0.945151,-0.60912 -1.811378,1.12018 -0.713095,1.42357 -1.492459,4.70065 -1.117927,4.70065 0.102508,0 0.443911,-0.21671 0.758673,-0.48156 z m 28.579906,-3.9442 c 2.323188,-3.07051 3.778154,-6.36939 3.776644,-8.56287 -9.63e-4,-1.38276 -0.225,-1.65553 -0.865554,-1.05376 -0.278412,0.26156 -0.794633,0.95202 -1.147156,1.53435 -1.239202,2.04705 -3.828802,8.55238 -4.223812,10.61062 l -0.124106,0.64666 0.600437,-0.67348 c 0.330238,-0.37042 1.222837,-1.4961 1.983547,-2.50152 z m -49.864249,18.74865 c -1.1478776,-0.80401 -1.7646742,-3.87697 -1.3874631,-6.9125 0.2453948,-1.97479 0.7738415,-4.32523 1.3375541,-5.94923 0.216985,-0.62511 0.394518,-1.17337 0.394518,-1.21834 0,-0.045 -0.318031,0.11476 -0.706738,0.355 -0.4839546,0.29911 -1.024676,0.44196 -1.715352,0.45322 -1.0058631,0.0164 -1.01097,0.0196 -1.8715855,1.1887 -1.7592559,2.38978 -2.8886457,3.2137 -4.4124744,3.21897 -0.7491384,0.003 -1.0182321,-0.0977 -1.49958331,-0.55884 -0.33753712,-0.32339 -0.67573619,-0.91594 -0.79650742,-1.39557 l -0.20989251,-0.83355 -0.88825146,0.94704 c -0.4885382,0.52087 -1.1157527,1.09193 -1.3938096,1.26902 -1.3993013,0.89117 -2.9838303,0.74901 -3.6396198,-0.32651 -0.7449088,-1.2217 -0.3723562,-4.40984 0.8815763,-7.54418 0.2808528,-0.70202 0.4712335,-1.3158 0.4230697,-1.36398 -0.048166,-0.0482 -0.4766656,0.0792 -0.9522229,0.28307 -0.9993379,0.42836 -1.6813318,1.22222 -3.4093091,3.96858 -1.947178,3.09474 -2.790346,4.32954 -2.956349,4.32954 -0.08547,0 -0.08616,-0.11187 -0.0015,-0.24863 1.708808,-2.761 4.4610676,-6.89733 4.9370559,-7.41986 0.4253615,-0.46693 3.1966284,-1.95501 3.6311127,-1.94977 0.7776941,0.009 0.7870748,0.29342 0.080179,2.42814 -1.7062989,5.15277 -1.928926,7.95982 -0.6312939,7.95982 0.6412538,0 2.0099885,-0.97349 3.0293559,-2.15459 0.7550227,-0.87482 0.91979942,-1.21853 1.11125962,-2.31796 0.3331691,-1.9132 0.91048987,-3.63307 1.52836608,-4.55305 1.3187545,-1.96359 3.1893028,-2.11582 3.4355885,-0.27961 0.2392372,1.78364 -1.1091121,4.46091 -2.5994013,5.16136 l -0.8331719,0.39158 0.064716,1.48719 c 0.051816,1.19076 0.1438987,1.56635 0.4619971,1.88445 0.3302982,0.33031 0.4850881,0.36391 0.9180849,0.19927 1.3546571,-0.51502 3.8941201,-3.58563 4.5556939,-5.50853 0.4870488,-1.41562 1.7657926,-3.11698 2.6068789,-3.46841 0.9543706,-0.39876 1.4154986,-0.33406 1.9755326,0.27717 l 0.501779,0.54764 0.931227,-1.51318 c 0.927441,-1.50705 1.671201,-2.22882 2.053334,-1.99265 0.381533,0.23579 0.196275,0.92325 -1.031121,3.82622 -0.677602,1.60262 -1.518873,3.74529 -1.869488,4.76148 l -0.63748,1.84762 0.830553,0.94253 c 0.456805,0.51839 1.05995,1.33219 1.340321,1.80844 0.458671,0.77911 0.508385,1.04916 0.495974,2.69394 -0.01103,1.46179 -0.100511,2.02074 -0.446646,2.78994 -0.567008,1.26003 -1.255091,2.14503 -1.945253,2.50194 -0.711392,0.36786 -1.15234,0.36449 -1.691188,-0.0129 z m 1.731112,-0.80509 c 0.982,-1.04686 1.558461,-2.51719 1.65202,-4.21368 0.07618,-1.38134 0.02791,-1.69578 -0.405771,-2.64305 -0.593625,-1.29665 -1.481255,-2.50332 -1.68621,-2.29229 -0.234538,0.24149 -0.901099,3.07356 -1.138526,4.83732 -0.32145,2.38798 0.10135,4.84087 0.834409,4.84087 0.136231,0 0.471066,-0.23813 0.744078,-0.52917 z M 2.8353312,147.53114 c 0.8185785,-0.97282 1.2982055,-2.08407 1.3966536,-3.23592 0.096464,-1.12863 -0.238583,-1.94189 -0.686079,-1.66532 -0.5938289,0.36701 -1.9497752,4.1047 -1.9497752,5.37461 0,0.45408 0.048377,0.49776 0.3640936,0.32879 0.2002501,-0.10716 0.5940483,-0.46813 0.875107,-0.80216 z m 7.5671598,-0.22209 c 1.163755,-0.77813 1.462549,-1.3076 1.341913,-2.37789 -0.05468,-0.48508 -0.238131,-1.02067 -0.407678,-1.19024 -0.282741,-0.28273 -0.364802,-0.25346 -0.990977,0.35345 -0.8511346,0.82496 -1.8223458,2.7334 -1.8223458,3.58096 0,0.62368 0.012373,0.63328 0.5291667,0.41055 0.2910416,-0.12544 0.8985055,-0.47502 1.3499211,-0.77683 z m 210.213089,14.28701 c -0.7829,-0.7294 -1.06615,-2.28784 -0.94229,-5.18452 0.11363,-2.65711 0.46927,-4.53057 1.54883,-8.15898 0.80158,-2.69417 0.65584,-2.87482 -0.83649,-1.0368 -1.86467,2.29664 -4.12954,7.48536 -4.00102,9.16617 0.045,0.58874 -0.0115,0.70477 -0.36761,0.75547 -0.56661,0.0807 -0.84043,-0.3921 -1.70555,-2.94455 -0.64368,-1.89911 -0.71853,-2.32626 -0.73333,-4.18523 -0.009,-1.13865 -0.0621,-2.06788 -0.1178,-2.06496 -0.0557,0.003 -0.44768,0.52922 -0.87101,1.16957 -0.42333,0.64035 -1.3136,1.67663 -1.97837,2.30284 -0.98238,0.92541 -1.32948,1.42496 -1.85385,2.66833 -0.99988,2.37078 -1.68531,3.0704 -3.02099,3.0835 -0.96449,0.009 -1.67801,-0.5934 -1.83043,-1.54651 -0.0665,-0.41568 -0.17472,-0.75304 -0.24057,-0.74969 -0.0658,0.003 -0.3511,0.38751 -0.63389,0.85369 -0.39196,0.6462 -0.69519,0.90186 -1.27608,1.07588 -2.00852,0.60177 -2.91359,-0.85059 -2.93135,-4.70396 l -0.007,-1.56123 -1.14244,2.22061 c -1.72397,3.35095 -2.78592,4.41802 -4.3968,4.41802 -1.7084,0 -2.43584,-2.19477 -2.30097,-6.94236 l 0.0814,-2.8656 -0.49105,0.31877 c -0.27009,0.17534 -0.95094,0.62276 -1.51299,0.99432 l -1.02195,0.6755 0.13037,1.66655 c 0.1808,2.31119 -0.19046,3.56071 -1.42467,4.79494 -2.12462,2.12462 -4.77459,1.96883 -4.72567,-0.27778 0.0251,-1.15076 0.80647,-2.39647 2.61587,-4.17012 l 1.50597,-1.47622 -0.18215,-1.28628 c -0.10019,-0.70745 -0.2322,-1.33629 -0.29333,-1.39745 -0.0611,-0.0611 -0.21704,0.18619 -0.34642,0.54963 -0.12937,0.36345 -0.79104,1.78648 -1.47035,3.16231 -1.03284,2.09185 -1.44284,2.70786 -2.50346,3.7614 -0.9018,0.89575 -1.51036,1.33067 -2.10576,1.50487 -1.68714,0.49365 -3.1262,-0.20406 -4.19993,-2.03623 l -0.50067,-0.85433 -0.54964,1.14524 c -0.30231,0.62988 -0.68793,1.25999 -0.85694,1.40025 -0.48939,0.40617 -1.54647,0.31261 -2.07468,-0.18363 -1.07809,-1.01281 -2.21041,-4.95029 -1.98974,-6.91908 0.11996,-1.07024 -0.0117,-0.89521 -0.91758,1.21939 -0.98182,2.29207 -1.49623,2.98258 -2.22194,2.98258 -0.95221,0 -1.24264,-0.69521 -1.20717,-2.88958 0.0266,-1.64617 0.27128,-3.67619 0.56199,-4.66307 0.09,-0.30563 0.64986,-0.46571 0.86751,-0.24806 0.0488,0.0488 -0.0192,1.06623 -0.15096,2.26099 -0.36793,3.33548 -0.32285,4.96245 0.13757,4.96245 0.47255,0 2.79669,-5.04398 3.54655,-7.69697 0.71953,-2.54566 1.00006,-3.11433 1.50118,-3.04306 0.359,0.0511 0.43422,0.20014 0.48315,0.95768 0.0319,0.49345 -0.0764,1.86024 -0.24053,3.0373 -0.34278,2.45766 -0.387,5.45413 -0.10271,6.95931 0.26533,1.40489 0.77718,2.69952 1.03549,2.6192 0.11655,-0.0362 0.57993,-0.79479 1.02972,-1.68569 0.7667,-1.51857 0.8178,-1.71981 0.8178,-3.21993 0,-4.40028 1.75984,-8.12633 3.83814,-8.12633 1.35738,0 1.69167,1.26159 1.06068,4.00293 -0.43,1.86799 -1.0309,2.94655 -1.89733,3.40541 l -0.72667,0.38484 0.11607,1.17689 c 0.22158,2.24682 1.09442,4.3072 1.82467,4.3072 0.59897,0 1.95847,-1.15891 3.05512,-2.60436 1.11209,-1.46583 3.99361,-7.02154 4.19298,-8.0843 0.0994,-0.52967 0.21469,-0.66437 0.5688,-0.66437 0.36122,0 0.49796,0.17072 0.73208,0.91402 0.15833,0.50271 0.39178,1.49958 0.51876,2.21526 0.12698,0.71569 0.3084,1.34917 0.40315,1.40772 0.0947,0.0586 0.88667,-0.34557 1.75983,-0.89806 l 1.5876,-1.00453 0.74633,-3.43903 c 0.41048,-1.89147 0.70557,-3.4798 0.65573,-3.52963 -0.0498,-0.0498 -0.60314,-0.14415 -1.22955,-0.20959 -2.30155,-0.24048 -5.34863,0.57409 -6.43063,1.71906 -0.51052,0.54023 -0.86027,0.64375 -1.06357,0.3148 -0.41785,-0.67608 1.98471,-2.15725 4.04615,-2.49441 0.635,-0.10385 2.02424,-0.18933 3.08719,-0.18994 l 1.93265,-0.002 0.25216,-1.13657 c 0.31047,-1.39946 0.84957,-2.32706 1.35245,-2.32706 0.57916,0 0.62526,0.24645 0.3775,2.01754 -0.12646,0.90399 -0.18517,1.68839 -0.13045,1.7431 0.15737,0.15736 2.18032,0.45741 4.44341,0.65905 2.52961,0.22537 4.38103,0.0235 7.04715,-0.76858 2.0381,-0.60548 2.61476,-0.69542 2.41806,-0.37715 -0.23276,0.37659 -1.64165,0.96709 -3.21774,1.34862 -2.4098,0.58336 -5.17038,0.68309 -8.20016,0.29626 -1.41245,-0.18034 -2.60377,-0.29221 -2.64737,-0.24859 -0.0436,0.0436 -0.39106,1.71661 -0.77212,3.71777 -1.0058,5.28206 -1.13419,11.00805 -0.27753,12.37857 0.14526,0.23241 0.24657,0.22385 0.67544,-0.0572 1.03201,-0.67619 4.40596,-6.60696 5.10881,-8.98028 0.49863,-1.68375 0.65522,-1.91551 1.29432,-1.91551 0.45154,0 0.47148,0.0448 0.36411,0.8178 -0.0625,0.4498 -0.17007,2.36326 -0.23905,4.25214 -0.1315,3.60004 0.0753,5.51339 0.59596,5.51339 0.31236,0 1.48932,-1.73993 2.14341,-3.16863 0.46351,-1.01246 0.46973,-1.07869 0.18097,-1.9292 -0.76257,-2.24615 0.0585,-5.29411 1.87785,-6.97117 1.89636,-1.748 4.15032,-1.48095 4.93059,0.58418 0.3921,1.03779 0.14272,4.11652 -0.50154,6.19166 -0.10874,0.35025 -0.0888,0.35854 0.23131,0.0962 0.43887,-0.3597 3.04329,-3.84125 3.60965,-4.82533 0.39276,-0.68243 0.93376,-1.04657 1.18364,-0.79669 0.059,0.059 0.10886,1.37014 0.1107,2.91355 0.003,2.66764 0.33748,5.24443 0.73152,5.63847 0.0894,0.0894 0.2735,-0.20816 0.40898,-0.66134 0.43057,-1.44024 1.84672,-4.24601 2.76945,-5.48707 1.13959,-1.53272 2.26056,-2.36039 3.19678,-2.36039 1.39254,0 1.47474,0.72263 0.50931,4.47692 -0.92429,3.59431 -1.29121,5.99319 -1.29667,8.47738 -0.004,2.01877 0.16764,3.03552 0.55414,3.27439 0.22156,0.13693 1.72182,-1.0647 2.30467,-1.84594 1.82618,-2.44775 5.32384,-11.01262 5.4269,-13.28909 0.0117,-0.26124 0.14289,-0.33414 0.51887,-0.28864 0.4594,0.0556 0.55688,0.23622 1.12349,2.08134 0.34125,1.11125 0.69937,2.3113 0.79581,2.66679 l 0.17538,0.64633 1.81157,0.0271 c 1.18122,0.0177 1.83762,0.10482 1.8864,0.25037 0.0537,0.16017 -0.24875,0.19386 -1.0709,0.11932 -0.63015,-0.0571 -1.46526,-0.0439 -1.8558,0.0293 l -0.71006,0.13319 0.12249,1.09445 c 0.23838,2.12989 -0.55506,4.49676 -1.78835,5.33481 -1.27539,0.86666 -3.13925,0.55149 -3.76147,-0.63604 -0.24829,-0.47386 -0.25575,-0.46782 -0.94542,0.76541 -1.61005,2.87903 -4.21178,4.41088 -5.4819,3.22761 z m 9.25291,-3.83382 c 0.26196,-0.31132 0.58075,-1.00149 0.70843,-1.53373 0.26479,-1.10377 0.36189,-3.3763 0.15326,-3.58672 -0.20399,-0.20575 -1.77919,1.14674 -2.28076,1.95829 -0.23709,0.38361 -0.47125,1.11565 -0.52036,1.62673 -0.0805,0.83718 -0.0312,0.98729 0.49682,1.51534 0.32235,0.32235 0.67166,0.58611 0.77622,0.58611 0.10457,0 0.40444,-0.25471 0.66639,-0.56602 z m -45.3313,-1.53335 c 0.99641,-0.7218 1.55038,-1.88818 1.7094,-3.59914 0.16327,-1.75687 -0.0708,-1.93465 -1.09147,-0.82904 -1.67981,1.81956 -2.35004,3.36736 -1.93082,4.45899 0.25426,0.66211 0.35973,0.65963 1.31289,-0.0308 z m 22.71853,-1.50955 0.84129,-1.58654 h -0.86821 c -0.47752,0 -1.09034,-0.0845 -1.36181,-0.18765 l -0.49359,-0.18767 0.002,1.10169 c 0.002,1.4969 0.316,2.58612 0.72415,2.50752 0.17368,-0.0335 0.69438,-0.77476 1.15708,-1.64735 z m 23.43563,-3.10861 c -0.0486,-0.16828 -0.19123,-0.84715 -0.31686,-1.50861 -0.12564,-0.66146 -0.28535,-1.20265 -0.35491,-1.20265 -0.10012,0 -1.23948,3.1339 -1.518,4.17538 -0.0339,0.12686 0.46479,-0.0818 1.10825,-0.46375 0.81488,-0.48366 1.14312,-0.78728 1.08152,-1.00037 z m -22.45208,0.68087 c 0.37575,-0.45275 1.13592,-2.9229 1.36541,-4.43684 0.35104,-2.31586 -0.11973,-4.05621 -1.23464,-4.56421 -0.39054,-0.17793 -0.5576,-0.14297 -1.01067,0.21156 -1.35249,1.05829 -2.20945,3.13724 -2.22357,5.39432 -0.0135,2.1584 0.94492,3.62954 2.37882,3.6514 0.27807,0.004 0.60418,-0.11106 0.72465,-0.25623 z m -30.42733,-4.03379 c 0.77199,-1.54799 1.06565,-5.32349 0.41408,-5.32349 -0.46757,0 -1.4112,3.14475 -1.64436,5.48011 l -0.13408,1.34296 0.46087,-0.30599 c 0.25348,-0.16831 0.66005,-0.70543 0.90349,-1.19359 z m -46.04081,11.81525 c -1.32374,-0.56178 -2.55624,-3.43977 -2.88615,-6.7395 l -0.14347,-1.43485 -0.38422,0.76137 c -0.53988,1.06982 -0.87793,1.40633 -1.61803,1.61068 -0.92626,0.25575 -1.89003,-0.0691 -2.50995,-0.84601 l -0.52085,-0.65276 -0.54718,0.95806 c -0.63332,1.10892 -1.49702,1.71059 -2.45454,1.70994 -1.17446,0 -1.94216,-0.56188 -2.71055,-1.98099 l -0.30524,-0.56372 -0.51177,0.87327 c -0.61951,1.05713 -1.42533,1.39577 -2.86633,1.20462 -1.57032,-0.2083 -2.56985,-0.80153 -3.77252,-2.23897 -0.59973,-0.7168 -1.15201,-1.31001 -1.22728,-1.31824 -0.22339,-0.0244 -0.72904,1.91366 -0.72904,2.79436 0,0.44839 -0.0525,0.95221 -0.1168,1.11962 -0.11801,0.30755 -0.93955,0.42664 -1.10413,0.16006 -0.23443,-0.37975 -0.76044,-4.0426 -0.86962,-6.05569 l -0.12233,-2.2553 -2.21288,1.59404 c -2.01116,1.44872 -2.20947,1.64555 -2.17553,2.15909 0.151,2.28458 0.10953,2.96057 -0.21164,3.45075 -0.64919,0.99079 -2.644628,1.37375 -4.06522,0.78018 -0.96062,-0.40138 -0.902084,-1.02606 0.207318,-2.21211 0.481042,-0.51427 1.173192,-1.13834 1.538086,-1.38682 0.690476,-0.47021 0.807126,-0.96191 0.494552,-2.08466 -0.12158,-0.43669 -0.21307,-0.3446 -1.05137,1.05833 -1.35153,2.26185 -2.754553,4.10129 -3.453323,4.52755 -1.366058,0.83327 -2.771178,0.6371 -3.354705,-0.46838 -0.463492,-0.87807 -0.539134,-3.65951 -0.168255,-6.18838 0.170372,-1.16186 0.30834,-2.24109 0.30657,-2.3983 -0.0019,-0.15719 -0.377806,0.41177 -0.83566,1.2644 -2.131195,3.96888 -4.509096,7.61272 -5.45186,8.35429 -0.753533,0.59274 -1.90625,0.47536 -2.445327,-0.24898 -0.553701,-0.74399 -0.652453,-3.29132 -0.217593,-5.61209 1.021195,-5.44967 4.891539,-13.15579 7.19224,-14.32019 1.767667,-0.89464 3.112366,-0.66619 3.700299,0.62857 0.198967,0.43817 0.363663,1.07808 0.365972,1.42203 0.0054,0.78906 0.268913,0.80276 0.58876,0.0306 0.135506,-0.32712 0.577061,-1.10644 0.981268,-1.73182 0.577119,-0.8929 0.839085,-1.13703 1.220162,-1.13703 0.275859,0 0.485255,0.1106 0.485255,0.25631 0,0.14097 -0.352925,1.245 -0.784282,2.45341 -1.475971,4.13471 -3.168862,11.31254 -3.380298,14.33229 -0.118418,1.69143 0.115436,3.16253 0.502709,3.16253 0.367472,0 2.480059,-2.56093 3.958416,-4.79846 1.469202,-2.22368 1.607912,-2.5177 1.730722,-3.6682 0.1585,-1.48485 0.356224,-1.92425 0.865874,-1.92425 0.32964,0 0.37808,0.13457 0.37808,1.05049 0,1.20496 0.35388,3.78354 0.56647,4.1275 0.19656,0.31803 4.78796,-2.82189 4.89851,-3.34996 0.0443,-0.21166 0.26739,-1.33734 0.49576,-2.50151 1.07144,-5.46229 3.21749,-9.72351 5.1954,-10.3161 0.92098,-0.27593 1.65421,-0.10498 1.95861,0.45663 0.64256,1.18545 -0.093,5.1499 -1.43662,7.7428 -0.7667,1.47955 -2.32797,3.30808 -3.39042,3.97075 -0.39182,0.24438 -0.49159,0.50762 -0.61551,1.62408 -0.23022,2.07405 -0.20108,4.48886 0.049,4.05881 0.11271,-0.19385 0.16143,-0.51876 0.10826,-0.72206 -0.0532,-0.20327 0.011,-0.43435 0.14261,-0.51348 0.1316,-0.0791 0.53059,-0.695 0.88661,-1.36864 0.92371,-1.74761 2.18811,-3.10476 2.89264,-3.10476 0.81243,0 1.21654,0.6837 0.91936,1.55548 -0.37501,1.10015 -1.28349,2.25679 -2.18965,2.78784 -0.47288,0.27711 -0.85977,0.55093 -0.85977,0.60847 0,0.0575 0.4979,0.71395 1.10644,1.45869 1.09566,1.34091 2.5129,2.44103 3.14463,2.44103 0.93214,0 2.33728,-2.72763 2.64847,-5.14117 0.30072,-2.33231 1.18233,-3.77704 2.45,-4.01485 1.39233,-0.2612 1.94516,0.50819 1.74452,2.42783 -0.18919,1.81012 -1.06147,3.45698 -1.83103,3.45698 -0.2047,0 -0.13437,-0.16358 0.23693,-0.55114 0.55574,-0.58006 1.08337,-2.01643 1.08337,-2.94925 0,-0.30409 -0.12989,-0.86375 -0.28866,-1.24373 -0.23954,-0.57331 -0.33651,-0.65113 -0.56999,-0.45736 -0.7007,0.58153 -1.61841,4.7636 -1.11377,5.07548 0.10394,0.0643 0.14835,0.32937 0.0987,0.58915 -0.1194,0.62466 0.44429,2.28892 0.92158,2.72088 0.36501,0.33033 0.3962,0.32667 0.85015,-0.0998 0.71658,-0.67321 1.98356,-3.25935 2.324,-4.74375 0.16687,-0.72769 0.52418,-1.64473 0.794,-2.03787 0.50885,-0.74141 1.79095,-1.49806 2.5384,-1.49806 0.59369,0 1.5123,0.50355 1.75878,0.96412 0.29183,0.54527 0.57598,0.47329 0.57762,-0.14632 0,-0.29104 0.30376,-2.02594 0.67331,-3.85532 1.22534,-6.06565 3.3776,-10.39877 5.06763,-10.20258 0.81774,0.0949 1.03335,0.79575 0.78788,2.56074 -0.44762,3.2182 -1.86001,7.1249 -3.87681,10.72319 -0.91148,1.62624 -0.94686,1.74812 -1.11752,3.84774 -0.1089,1.33973 -0.10659,2.83034 0.006,3.90086 0.2749,2.61343 1.15799,5.48657 1.68564,5.4842 0.23231,-0.002 1.90278,-3.0617 2.65185,-4.8588 0.6518,-1.56372 0.95046,-2.03697 1.15586,-1.83156 0.22544,0.22543 -2.34309,6.70637 -2.85619,7.20679 -0.33265,0.32441 -1.12907,0.45884 -1.58135,0.26689 z m -45.324512,-6.46389 c 1.60478,-2.01945 4.889346,-7.17279 6.05053,-9.49304 1.391939,-2.7813 1.74294,-5.8901 0.864966,-7.66097 -0.257656,-0.51968 -0.61747,-0.95821 -0.816456,-0.99506 -1.750252,-0.3241 -6.217516,9.12485 -7.335424,15.51557 -0.332778,1.90246 -0.388466,4.08138 -0.104293,4.08138 0.104544,0 0.707871,-0.65155 1.340677,-1.44788 z m 13.486608,1.09499 c 0.330594,-0.26768 0.457164,-0.61072 0.524364,-1.42098 0.0487,-0.58745 0.007,-1.21348 -0.0922,-1.39117 -0.15525,-0.27741 -0.33513,-0.1712 -1.272737,0.75156 -0.828828,0.81568 -1.091949,1.2089 -1.091949,1.63181 0,0.30644 0.108238,0.60084 0.24053,0.65422 0.522259,0.21075 1.277662,0.11009 1.692022,-0.22544 z m 27.906154,-3.23448 c 0.31038,-0.65012 0.56348,-1.47274 0.56244,-1.82803 -0.002,-0.73327 -0.73585,-2.43526 -1.22389,-2.83899 -0.28402,-0.23495 -0.38791,-0.21074 -0.8257,0.19243 -1.39709,1.2866 -1.67464,4.53878 -0.53569,6.27705 l 0.3125,0.47694 0.57302,-0.54866 c 0.31513,-0.30178 0.82694,-1.0806 1.13732,-1.73074 z m -16.99134,-2.12965 c 1.21373,-0.89768 2.49499,-3.32692 1.75473,-3.32692 -0.46001,0 -2.32698,2.49863 -2.79136,3.73572 -0.15748,0.41954 0.002,0.35689 1.03663,-0.4088 z m 22.57834,-7.99767 c 1.00463,-2.42707 1.92652,-6.91071 1.55677,-7.57142 -0.55135,-0.98519 -3.1575,6.97779 -3.60589,11.0176 l -0.10387,0.93593 0.80676,-1.53939 c 0.44371,-0.84667 1.04952,-2.12589 1.34623,-2.84272 z m -22.99789,3.02675 c 2.15131,-2.20349 3.95053,-7.29003 3.35758,-9.49209 -0.12056,-0.44772 -0.35803,-0.86732 -0.52773,-0.93243 -0.93834,-0.36007 -2.85863,4.13883 -3.81223,8.93141 -0.26249,1.31916 -0.47725,2.4348 -0.47725,2.47917 0,0.31015 0.57023,-0.0751 1.45963,-0.98606 z m 52.46405,14.60034 c -0.98367,-0.34811 -2.76139,-1.92214 -3.34634,-2.96293 l -0.42108,-0.7492 -1.02618,1.13398 c -1.281,1.41555 -2.38808,1.98116 -3.84379,1.96376 -1.55858,-0.0187 -2.25579,-0.31796 -3.20848,-1.37758 -2.98459,-3.31959 -2.99443,-11.49922 -0.0212,-17.64253 1.13261,-2.34025 2.79604,-4.38162 4.12126,-5.0577 1.6104,-0.82157 3.45157,-0.72708 4.54537,0.2333 0.68214,0.59891 1.42373,1.81831 1.42373,2.34099 0,0.15542 0.12956,0.41211 0.28788,0.57046 0.78611,0.78611 1.13577,3.55417 0.86803,6.87197 -0.24736,3.06553 -0.64566,5.03332 -1.46341,7.22986 -0.36004,0.96714 -0.65462,1.85685 -0.65462,1.97714 0,0.42202 1.32003,2.83441 2.0704,3.78371 0.44356,0.56115 1.08961,1.10852 1.55716,1.31936 0.74433,0.33565 0.82315,0.33855 1.15052,0.0423 0.43498,-0.39365 0.80222,-0.41021 0.80222,-0.0362 0,0.68563 -1.41413,0.86445 -2.84147,0.35933 z m -7.78041,-1.68409 c 1.00457,-0.52819 3.11733,-3.07589 3.11733,-3.75907 0,-0.15779 -0.36758,-1.31687 -0.81684,-2.57575 -0.6369,-1.78466 -0.91243,-2.32522 -1.25075,-2.45385 -0.23867,-0.0907 -0.43392,-0.24786 -0.43392,-0.34919 0,-0.29251 0.67616,-0.42871 1.17723,-0.23713 0.62521,0.23901 0.98417,0.68405 1.69029,2.09554 0.33092,0.66146 0.64091,1.20265 0.68892,1.20265 0.17199,0 1.05483,-3.20794 1.34408,-4.88392 0.36621,-2.12194 0.37694,-5.80632 0.0213,-7.3181 -0.14721,-0.62571 -0.22131,-1.25834 -0.16472,-1.40585 0.29395,-0.76599 -1.81677,-3.32546 -2.74243,-3.32546 -0.70394,0 -1.98932,1.1033 -2.86708,2.46097 -2.13383,3.30048 -3.38093,8.17484 -3.38093,13.21446 0,2.95426 0.1844,4.13053 0.8961,5.71645 0.7798,1.73759 1.58442,2.21605 2.72141,1.61825 z m -177.362882,0.25071 c -0.939234,-0.28294 -2.141731,-1.1579 -2.923112,-2.12691 -1.294315,-1.60512 -2.869115,-3.98189 -2.70537,-4.08309 0.0909,-0.0562 0.980107,-0.19613 1.976005,-0.31101 2.176462,-0.25104 4.575923,-0.70899 5.590772,-1.06705 1.01002,-0.35637 0.944896,-0.0177 -0.07588,0.39453 -1.54182,0.62274 -2.55164,0.85857 -4.216485,0.98477 -2.211312,0.16762 -2.295703,0.23117 -1.730269,1.30319 1.114162,2.11232 3.495973,4.34301 4.946061,4.63223 1.294042,0.2581 2.727556,-1.35273 3.921574,-4.40663 0.788396,-2.01645 2.130255,-6.58997 2.130255,-7.26065 0,-0.31581 -0.183724,-0.35204 -1.785214,-0.35204 -1.325943,0 -1.89844,0.0793 -2.225323,0.30826 -0.544828,0.38162 -0.800883,0.18754 -0.349271,-0.26473 0.264255,-0.26464 0.759097,-0.34537 2.434327,-0.39709 1.758047,-0.0543 2.118337,-0.11736 2.198364,-0.38485 0.299753,-1.00191 2.06217,-9.8831 1.977954,-9.96732 -0.05552,-0.0555 -1.125867,0.3295 -2.378545,0.85561 -3.907821,1.64123 -5.545913,2.15315 -6.88979,2.15315 -0.909389,0 -1.328124,-0.0924 -1.668382,-0.36828 -0.668137,-0.54167 -0.36022,-0.64183 0.56535,-0.1839 0.787452,0.3896 0.839965,0.39137 2.258461,0.0758 0.798743,-0.17771 2.942366,-0.95254 4.763606,-1.72187 1.821238,-0.76933 4.09066,-1.63542 5.04316,-1.92463 2.0199567,-0.61333 4.607089,-0.83964 5.8233603,-0.5094 0.8700654,0.23624 2.1622461,1.22726 2.1622461,1.65831 0,0.56345 -0.4423121,0.46851 -1.2391524,-0.26597 -1.3716385,-1.26434 -3.0617102,-1.49799 -5.695271,-0.78738 l -1.47654,0.39841 -0.123227,1.73603 c -0.157732,2.22212 -0.625019,5.42221 -1.070876,7.3336 -0.191931,0.82281 -0.295729,1.52706 -0.23066,1.56499 0.06507,0.0379 0.940916,-0.13612 1.946332,-0.3868 1.9827785,-0.49433 2.3855801,-0.54833 2.2315445,-0.29908 -0.097268,0.15738 -2.1268505,0.77524 -3.6596975,1.11412 l -0.754671,0.16683 -0.838694,3.07403 c -1.303598,4.77801 -3.115816,8.14267 -4.875909,9.05285 -0.707467,0.36584 -2.268237,0.49959 -3.057031,0.26199 z M 200.3154,143.39246 c -0.32557,-0.32554 -0.0821,-0.47627 0.68035,-0.4211 0.44979,0.0325 0.8178,0.14576 0.8178,0.2516 0,0.22507 -1.29597,0.3717 -1.49815,0.1695 z"
       id="path39" />
  </g>
</svg>
