<?xml version="1.0" encoding="UTF-8" standalone="no"?>
<!-- Created with Inkscape (http://www.inkscape.org/) -->

<svg
   width="93.320045mm"
   height="42.445057mm"
   viewBox="0 0 93.320045 42.445057"
   version="1.1"
   id="svg380"
   inkscape:version="1.1 (c4e8f9e, 2021-05-24)"
   sodipodi:docname="Travel.svg"
   xmlns:inkscape="http://www.inkscape.org/namespaces/inkscape"
   xmlns:sodipodi="http://sodipodi.sourceforge.net/DTD/sodipodi-0.dtd"
   xmlns="http://www.w3.org/2000/svg"
   xmlns:svg="http://www.w3.org/2000/svg">
  <sodipodi:namedview
     id="namedview382"
     pagecolor="#ffffff"
     bordercolor="#666666"
     borderopacity="1.0"
     inkscape:pageshadow="2"
     inkscape:pageopacity="0.0"
     inkscape:pagecheckerboard="0"
     inkscape:document-units="mm"
     showgrid="false"
     inkscape:zoom="0.48907828"
     inkscape:cx="164.59533"
     inkscape:cy="300.56538"
     inkscape:window-width="1282"
     inkscape:window-height="770"
     inkscape:window-x="0"
     inkscape:window-y="25"
     inkscape:window-maximized="0"
     inkscape:current-layer="layer1"
     fit-margin-top="5"
     fit-margin-right="5"
     fit-margin-bottom="5"
     fit-margin-left="5" />
  <defs
     id="defs377" />
  <g
     inkscape:label="Layer 1"
     inkscape:groupmode="layer"
     id="layer1"
     transform="translate(-54.520085,-49.271039)">
    <path
       style="fill:#881b16;stroke-width:0.192424"
       d="m 74.79216,86.555005 c -0.757212,-0.490874 -1.757726,-12.29306 -1.851219,-21.837204 -0.02627,-2.681329 -0.111287,-4.184825 -0.236609,-4.184111 -0.107586,5.78e-4 -1.636699,0.472082 -3.398029,1.047706 -4.437415,1.450197 -5.435467,1.692013 -7.092279,1.718371 -1.425919,0.02268 -2.693939,-0.305825 -2.693939,-0.697924 0,-0.12349 0.225508,-0.133575 0.625379,-0.02797 0.343958,0.09084 1.231515,0.155001 1.972348,0.142579 1.120392,-0.0188 2.103792,-0.269656 5.846151,-1.491352 7.954845,-2.596865 10.079014,-3.001893 15.705364,-2.994634 2.068643,0.0027 3.530735,0.07469 3.367424,0.165872 -0.15875,0.08863 -1.717386,0.219264 -3.463636,0.290287 -1.74625,0.07102 -3.997614,0.253586 -5.00303,0.405695 -1.709216,0.258586 -4.027388,0.785314 -4.195322,0.953249 -0.04086,0.04086 0.01676,0.838232 0.128045,1.771936 0.251739,2.112118 0.508181,5.311569 0.999769,12.473399 0.210668,3.069166 0.465028,6.598937 0.565242,7.843933 0.281321,3.494897 -0.189012,5.1246 -1.275659,4.420165 z m 11.15897,-1.567426 c -2.336615,-0.589139 -3.52105,-2.702425 -3.676432,-6.559551 -0.102889,-2.554057 0.167103,-4.406336 1.178027,-8.081818 0.363862,-1.322917 0.635354,-2.432421 0.603315,-2.465568 -0.03204,-0.03314 -0.763045,0.294097 -1.624457,0.727208 -1.156183,0.581315 -1.618347,0.924533 -1.765384,1.31102 -0.109551,0.287954 -0.31984,1.77912 -0.467312,3.313703 -0.451366,4.696885 -1.042588,7.764997 -1.604609,8.327019 -0.359354,0.359354 -0.451539,0.01029 -0.150845,-0.571187 0.570251,-1.102744 1.175766,-4.897597 1.446526,-9.065584 0.182259,-2.805669 0.162412,-2.776191 2.817247,-4.183811 0.9525,-0.505025 1.90262,-1.034211 2.111377,-1.175968 0.88798,-0.602988 2.025744,-0.05453 2.025744,0.976505 0,0.349331 -0.358217,2.487547 -0.796026,4.751587 -0.691288,3.574811 -0.798892,4.48356 -0.817803,6.906591 -0.02381,3.050403 0.145953,3.867523 0.975931,4.697502 0.638802,0.638799 1.083187,0.625229 2.295479,-0.0701 2.863292,-1.642254 5.824201,-6.949736 6.23137,-11.169828 0.372861,-3.864319 2.074853,-6.001054 4.557203,-5.721256 1.029359,0.116023 1.695219,0.672342 2.230389,1.863456 l 0.38487,0.856594 0.53954,-1.528549 c 0.50954,-1.443576 1.06857,-2.205093 1.61877,-2.205093 0.58501,0 0.63342,0.481299 0.29027,2.886363 -0.73985,5.18581 -0.8601,6.995989 -0.59143,8.903592 0.25467,1.808184 0.62091,2.834286 1.01163,2.834286 0.37165,0 1.6215,-1.45344 2.26106,-2.629367 0.3359,-0.617597 0.99585,-2.094072 1.46656,-3.281055 0.80803,-2.037639 0.85583,-2.263576 0.85583,-4.046198 0,-2.413123 0.20972,-2.789066 1.50906,-2.70509 l 0.89624,0.05792 0.12656,1.250758 c 0.0696,0.687916 0.23262,2.657859 0.36224,4.377651 0.12961,1.719791 0.30187,3.126894 0.3828,3.126894 0.24687,0 2.51678,-3.629439 3.61038,-5.772727 1.10873,-2.172928 1.1035,-2.130673 0.52349,-4.227162 -0.37505,-1.355716 -0.38309,-4.6423 -0.0142,-5.867567 0.36725,-1.220251 0.96136,-1.835574 1.77231,-1.835574 0.89968,0 1.30006,0.80803 1.28712,2.597727 -0.0117,1.61849 -0.30433,3.088211 -1.06156,5.33117 -0.62653,1.855768 -0.60977,1.966183 0.45164,2.975507 0.6186,0.588247 2.45951,1.67701 2.59924,1.53727 0.0376,-0.03755 0.19612,-0.559081 0.35237,-1.158962 0.60972,-2.340858 1.83298,-3.95426 3.28976,-4.338983 2.25246,-0.594853 3.02255,1.307057 1.70109,4.201273 -0.50307,1.101815 -1.70526,2.517119 -2.13812,2.517119 -0.52028,0 -0.68896,0.812371 -0.59576,2.869393 0.10175,2.24663 0.46759,3.443199 1.23796,4.049176 0.42395,0.333481 0.54889,0.344907 1.29986,0.118897 1.50052,-0.451593 3.23075,-1.91491 5.06361,-4.28249 l 0.77204,-0.997298 0.13653,-2.273914 c 0.32059,-5.339953 1.87007,-11.917924 3.62071,-15.370974 0.98844,-1.949672 2.74937,-3.003172 3.77001,-2.25545 0.85881,0.629158 1.17897,1.513556 1.17929,3.257619 0,2.70772 -1.22772,5.70593 -4.27122,10.426194 l -1.5722,2.438392 0.01,4.137121 c 0.0104,4.375541 0.27425,6.529399 1.00122,8.172877 0.41152,0.9303 0.62234,1.11644 1.06992,0.944686 0.84686,-0.324968 3.6084,-5.125847 4.34677,-7.556717 0.42999,-1.415658 0.763,-1.774104 0.763,-0.821273 0,1.50906 -2.43272,6.680454 -3.81937,8.119073 -0.85608,0.888177 -0.98602,0.95499 -1.85715,0.95499 -0.86614,0 -1.00331,-0.06916 -1.82202,-0.918558 -0.64145,-0.665478 -0.99847,-1.263067 -1.29586,-2.168952 -0.4969,-1.513336 -1.01935,-4.182874 -1.01935,-5.207989 0,-0.411642 -0.0763,-0.74844 -0.16959,-0.74844 -0.0933,0 -0.41482,0.324716 -0.71456,0.721591 -3.0247,4.004933 -6.20976,5.259085 -8.42235,3.316401 -1.28615,-1.129244 -2.23162,-4.380736 -1.96337,-6.751907 l 0.12443,-1.099717 -0.72918,-0.239392 c -0.87151,-0.286121 -2.0737,-1.007123 -2.78434,-1.66988 l -0.51579,-0.481026 -0.96872,1.930394 c -0.53279,1.061718 -1.3707,2.609136 -1.86201,3.438708 -0.4913,0.829571 -1.22609,2.168927 -1.63284,2.976344 -0.78942,1.567021 -1.23479,1.882217 -2.1616,1.529844 -0.58689,-0.223139 -0.94755,-1.114588 -1.3943,-3.446335 l -0.344,-1.79543 -0.61139,1.506794 c -1.83376,4.5194 -3.31589,6.200595 -4.98173,5.650824 -1.41301,-0.466338 -2.34834,-2.295987 -2.74766,-5.37488 l -0.15964,-1.230852 -0.63136,0.978322 c -0.794644,1.231324 -1.643173,1.772015 -2.780939,1.772015 -0.960928,0 -1.689254,-0.447788 -2.263101,-1.391406 l -0.340341,-0.559631 -0.425797,1.408472 c -1.606357,5.313718 -5.485841,9.040545 -8.594842,8.256662 z m 13.395654,-9.602927 c 0.584892,-0.615523 1.293346,-1.546375 1.574306,-2.068561 0.47144,-0.876149 0.49695,-1.038534 0.33072,-2.103972 -0.21796,-1.397025 -0.97498,-3.029033 -1.592814,-3.433855 -0.421028,-0.275861 -0.481295,-0.266409 -0.858004,0.134572 -0.222827,0.237202 -0.589492,0.946691 -0.814782,1.576642 -0.750051,2.097181 -0.689264,7.014307 0.08671,7.014307 0.115724,0 0.688956,-0.503608 1.273868,-1.119133 z M 125.7285,71.383504 c 0.74177,-1.07813 1.14007,-2.21657 1.14007,-3.258628 0,-1.713428 -0.51375,-1.919526 -1.14236,-0.458273 -0.37063,0.861548 -1.15132,3.916806 -1.16257,4.549705 -0.008,0.43618 0.58174,0.01474 1.16486,-0.832804 z m 12.58169,-5.724375 c 2.63845,-4.497278 3.43666,-8.261817 2.15506,-10.163593 -0.57952,-0.859954 -1.07011,-0.823024 -1.59931,0.12039 -0.87097,1.552739 -2.43773,8.469625 -2.85712,12.613617 l -0.12658,1.250758 0.65754,-0.962121 c 0.36164,-0.529167 1.15833,-1.81574 1.77041,-2.859051 z m -19.7372,-0.761888 c 0.70164,-2.678757 0.65632,-5.218468 -0.0975,-5.464188 -0.29855,-0.09732 -0.81263,1.058781 -1.06263,2.389772 -0.21692,1.154809 -0.12357,4.677392 0.14155,5.34202 0.13618,0.341374 0.17488,0.319938 0.39462,-0.218625 0.13401,-0.328408 0.41479,-1.25045 0.62394,-2.048979 z"
       id="path414" />
  </g>
</svg>
