<?xml version="1.0" encoding="UTF-8" standalone="no"?>
<!-- Created with Inkscape (http://www.inkscape.org/) -->

<svg
   width="330.1337mm"
   height="330.02963mm"
   viewBox="0 0 330.13369 330.02964"
   version="1.1"
   id="svg42"
   inkscape:version="1.1.1 (3bf5ae0d25, 2021-09-20, custom)"
   sodipodi:docname="favicon.svg"
   inkscape:export-filename="/home/chandler/projects/katherineandchandler.com/static/favicon.png"
   inkscape:export-xdpi="2.46"
   inkscape:export-ydpi="2.46"
   xmlns:inkscape="http://www.inkscape.org/namespaces/inkscape"
   xmlns:sodipodi="http://sodipodi.sourceforge.net/DTD/sodipodi-0.dtd"
   xmlns="http://www.w3.org/2000/svg"
   xmlns:svg="http://www.w3.org/2000/svg">
  <sodipodi:namedview
     id="namedview44"
     pagecolor="#ffffff"
     bordercolor="#666666"
     borderopacity="1.0"
     inkscape:pageshadow="2"
     inkscape:pageopacity="0.0"
     inkscape:pagecheckerboard="0"
     inkscape:document-units="mm"
     showgrid="false"
     fit-margin-top="0"
     fit-margin-right="0"
     fit-margin-bottom="0"
     fit-margin-left="0"
     inkscape:zoom="0.33890136"
     inkscape:cx="1423.7181"
     inkscape:cy="1075.5342"
     inkscape:window-width="1916"
     inkscape:window-height="1150"
     inkscape:window-x="0"
     inkscape:window-y="0"
     inkscape:window-maximized="1"
     inkscape:current-layer="layer1" />
  <defs
     id="defs39" />
  <g
     inkscape:label="Layer 1"
     inkscape:groupmode="layer"
     id="layer1"
     transform="translate(47.632957,-36.122091)">
    <path
       id="rect1294"
       style="opacity:0.99;fill:#8a1c17;fill-opacity:1;stroke:#ff0000;stroke-width:0.1;stroke-linejoin:round;stroke-miterlimit:4;stroke-dasharray:none"
       d="m 197.55664,36.175781 c -22.87497,0.0651 -45.75026,0.08546 -68.6253,0.160646 -36.189787,0.108086 -72.3815,0.280854 -108.567874,0.734827 -21.8010459,2.231955 -42.128783,14.828665 -54.314146,32.971131 -9.913022,14.665248 -14.461584,32.683255 -13.508304,50.301365 0.208009,58.51838 0.162424,117.03871 0.794922,175.55469 1.320709,20.38011 11.729033,39.84856 27.558047,52.67263 14.363638,11.81314 33.11677,17.90306 51.655621,17.46725 23.65651,0.17761 47.313261,-0.0734 70.969894,-0.0826 37.07445,-0.16197 74.15261,-0.18158 111.22248,-0.78505 21.76738,-2.29114 41.95085,-14.96687 54.2034,-32.9944 8.7443,-12.6402 13.35356,-28.00775 13.34569,-43.35582 0.33595,-12.26254 0.0239,-24.52999 0.10803,-36.79471 -0.14489,-48.89978 -0.18876,-97.80225 -0.88736,-146.69775 -1.19532,-17.795551 -9.65563,-34.746803 -22.32768,-47.167936 -13.04165,-12.774753 -30.78155,-20.590942 -48.99934,-21.673873 -4.20072,-0.316353 -8.4176,-0.323805 -12.62808,-0.31045 z" />
    <path
       style="fill:#ffffff;fill-opacity:1;stroke-width:0.311582"
       d="m 50.118966,328.64364 c -2.835919,-0.74282 -6.182709,-2.50761 -8.253349,-4.35207 -5.588027,-4.97759 -15.268336,-26.5921 -19.955,-44.55619 -2.70654,-10.37426 -4.999991,-24.53674 -5.690825,-35.14187 -0.11482,-1.76257 -0.29837,-3.2601 -0.407897,-3.32778 -0.109526,-0.0677 -1.385084,0.29743 -2.834576,0.81141 -7.7378167,2.7438 -15.803276,4.13243 -23.978792,4.12845 -10.197571,-0.004 -17.701899,-2.1154 -22.481307,-6.32237 -5.036428,-4.43326 -6.04052,-11.72754 -2.588407,-18.80362 3.632221,-7.44526 11.0988,-13.47546 20.395985,-16.47235 5.169418,-1.66634 8.3264543,-2.16247 14.95593224,-2.35038 5.76727656,-0.1635 8.98582286,0.0602 14.69357276,1.02127 l 1.139767,0.1919 0.174687,-1.9835 c 0.09609,-1.09091 0.394869,-5.20836 0.663977,-9.14988 1.118848,-16.38733 4.365603,-39.67098 8.103069,-58.11003 0.607871,-2.99897 2.01602,-10.4302 3.129225,-16.51383 1.1132,-6.08363 2.099854,-11.30652 2.192566,-11.60642 0.09272,-0.2999 0.07512,-0.54527 -0.0391,-0.54527 -0.373544,0 -6.134579,3.45791 -10.272314,6.1657 -5.463092,3.57511 -9.0709836,7.19376 -11.1474943,11.18075 -2.3354981,4.48426 -2.7700234,5.98314 -2.9148957,10.05499 -0.148841,4.1834 -0.3248022,4.4969 -2.8139858,5.01366 -3.5195445,0.73062 -9.0422119,-1.09496 -11.4820548,-3.79557 -1.8213214,-2.016 -2.4338224,-3.71155 -2.5829364,-7.15031 -0.158119,-3.64655 0.597487,-7.05857 2.3394444,-10.56386 0.9190939,-1.84946 1.8459039,-3.02163 4.4436238,-5.62002 3.5753044,-3.57621 6.6636529,-5.79487 14.8108443,-10.64005 C 16.192414,96.356469 29.08065,87.847907 34.729832,83.694545 c 3.94509,-2.900472 4.641148,-3.553481 6.170405,-5.78875 2.364726,-3.456455 3.915154,-4.811342 6.543762,-5.718459 1.887762,-0.651454 2.721509,-0.744447 6.67514,-0.744447 3.951793,0 4.787843,0.09311 6.671826,0.743346 2.634121,0.909076 4.163494,2.230347 4.549379,3.930392 0.376573,1.659029 -0.0096,4.058781 -2.029987,12.619063 -3.253609,13.78447 -4.074517,18.78778 -6.236879,38.01298 -0.607158,5.39815 -1.585846,13.67066 -2.174861,18.38333 -1.733538,13.86998 -2.972206,27.29206 -3.4218,37.07825 -0.09842,2.14213 -0.258081,4.78709 -0.354819,5.87764 -0.11236,1.26674 -0.06296,1.94195 0.136793,1.86951 0.474227,-0.17197 5.823078,-6.0214 10.930589,-11.95351 19.186819,-22.2845 36.653259,-47.98343 50.50687,-74.31228 9.3416,-17.753764 10.13167,-19.090385 13.21799,-22.362053 3.96626,-4.204449 8.78141,-5.607087 13.26675,-3.864569 1.01306,0.393573 2.36141,1.836676 2.79974,2.996492 2.45359,6.492183 -0.81372,23.66953 -7.53009,39.58817 -13.34196,31.62218 -47.740473,74.19411 -79.610864,98.52719 l -2.862548,2.18556 3.32992,2.5031 c 11.997177,9.01816 23.980125,21.09705 37.011319,37.30759 2.066392,2.57055 8.561073,11.0436 14.432613,18.82902 10.37094,13.75144 12.0591,15.89639 16.04448,20.38614 4.44193,5.00403 11.51312,10.5233 17.04714,13.30577 3.17651,1.59712 6.80155,2.80448 7.76714,2.58696 3.04513,-0.68604 7.58337,-2.44679 13.53767,-5.25241 4.47695,-2.1095 7.01429,-2.71535 11.52852,-2.75281 4.09425,-0.034 6.63187,0.39477 9.04681,1.52846 3.29121,1.54504 4.26739,3.76254 2.65386,6.02849 -1.69862,2.3855 -12.04116,8.01348 -18.95192,10.31288 -16.43857,5.46952 -34.80384,4.13523 -50.43571,-3.66433 -11.78101,-5.87813 -22.217326,-15.38393 -39.258851,-35.75847 -5.728835,-6.84927 -9.108101,-11.2796 -20.310415,-26.6276 -1.05811,-1.44969 -1.923838,-2.40034 -1.923838,-2.11258 0,0.28778 0.35258,3.29666 0.783511,6.68636 2.159107,16.98365 4.761823,28.76797 9.653624,43.70877 4.25886,13.00763 4.361569,13.62064 2.796206,16.68928 -0.757954,1.48585 -1.270863,2.04579 -2.606583,2.84569 -3.278101,1.96311 -9.377342,2.54278 -14.003763,1.33093 z M -8.4292807,234.23442 c 5.7175126,-1.91553 13.7139033,-5.95066 20.6152227,-10.40276 l 2.673881,-1.72495 v -2.16014 -2.16011 l -1.956981,-1.23596 c -6.4794376,-4.09214 -12.75332606,-6.08414 -16.8384945,-5.34629 -9.2504085,1.67074 -16.3730675,10.71347 -14.4257595,18.31458 0.58617,2.28804 1.784654,4.19643 3.29321,5.24396 1.360147,0.94442 2.518057,0.85228 6.6389213,-0.52833 z M 195.57729,299.94999 c -16.19565,-1.63268 -28.30552,-9.49465 -35.4562,-23.01885 -7.79542,-14.7436 -11.90423,-38.70137 -11.90423,-69.4116 0,-11.35142 0.26422,-17.22847 1.27095,-28.26932 2.78131,-30.5033 8.16493,-53.10521 16.62223,-69.78459 9.30145,-18.344259 23.80222,-29.82033 41.77475,-33.061036 4.71406,-0.850007 13.54945,-0.776493 17.91597,0.14897 11.95089,2.533194 20.27873,8.346605 26.68829,18.630297 6.37112,10.222079 9.78731,30.366439 6.60593,38.953349 -0.86005,2.32139 -2.99742,4.53508 -4.94083,5.11726 -2.20467,0.6605 -5.78605,0.51345 -7.6332,-0.31341 -3.08638,-1.38156 -4.20842,-3.29482 -5.77397,-9.84567 -1.13226,-4.73785 -2.26454,-8.36415 -4.57572,-14.6543 -4.42994,-12.05666 -9.92267,-20.42838 -16.01488,-24.409033 -1.09131,-0.71305 -2.12558,-1.295104 -2.29839,-1.293469 -0.73402,0.0065 -4.71789,3.377193 -6.76047,5.71909 -6.72581,7.711362 -12.07136,19.000162 -15.70562,33.167322 -6.3006,24.56105 -9.17858,56.4244 -7.91349,87.61284 0.73723,18.1753 1.64415,26.69693 4.2181,39.63365 1.77879,8.94039 3.95884,16.04199 6.4237,20.92547 0.90629,1.79564 3.7391,6.03453 4.9996,7.48118 l 1.05077,1.206 1.91392,-0.96616 c 1.05269,-0.5314 3.08017,-1.7561 4.50558,-2.72156 6.93186,-4.69529 12.49702,-10.15247 21.23996,-20.82783 2.9389,-3.58845 6.68644,-8.14532 8.32788,-10.1264 1.64141,-1.98107 4.15121,-5.21438 5.57731,-7.18514 7.16389,-9.89995 8.16348,-11.02427 10.38892,-11.68514 3.08396,-0.91586 6.68897,-0.28483 8.1254,1.42221 1.96645,2.33703 1.77465,5.66641 -0.89281,15.4971 -2.34216,8.63179 -4.4851,13.10498 -10.85184,22.6524 -4.79593,7.19191 -9.63525,12.93643 -13.85433,16.44582 -11.7366,9.7624 -27.56194,14.52415 -43.07328,12.96047 z"
       id="path39" />
  </g>
</svg>
